G75*
G70*
%OFA0B0*%
%FSLAX24Y24*%
%IPPOS*%
%LPD*%
%AMOC8*
5,1,8,0,0,1.08239X$1,22.5*
%
%ADD10C,0.0000*%
%ADD11C,0.0560*%
%ADD12C,0.0650*%
%ADD13C,0.0705*%
%ADD14OC8,0.0520*%
%ADD15OC8,0.0700*%
%ADD16R,0.0110X0.0169*%
%ADD17OC8,0.0560*%
%ADD18C,0.0780*%
%ADD19C,0.0100*%
%ADD20C,0.0396*%
%ADD21C,0.0160*%
%ADD22C,0.1266*%
%ADD23C,0.0240*%
%ADD24C,0.0320*%
%ADD25C,0.0560*%
D10*
X004214Y003151D02*
X004214Y006695D01*
X000671Y006695D01*
X000671Y032679D01*
X004214Y032679D01*
X004214Y036222D01*
X036104Y036222D01*
X036104Y032679D01*
X039648Y032679D01*
X039648Y006695D01*
X036104Y006695D01*
X036104Y003151D01*
X004214Y003151D01*
X006675Y009844D02*
X006677Y009896D01*
X006683Y009948D01*
X006693Y009999D01*
X006706Y010049D01*
X006724Y010099D01*
X006745Y010146D01*
X006769Y010192D01*
X006798Y010236D01*
X006829Y010278D01*
X006863Y010317D01*
X006900Y010354D01*
X006940Y010387D01*
X006983Y010418D01*
X007027Y010445D01*
X007073Y010469D01*
X007122Y010489D01*
X007171Y010505D01*
X007222Y010518D01*
X007273Y010527D01*
X007325Y010532D01*
X007377Y010533D01*
X007429Y010530D01*
X007481Y010523D01*
X007532Y010512D01*
X007582Y010498D01*
X007631Y010479D01*
X007678Y010457D01*
X007723Y010432D01*
X007767Y010403D01*
X007808Y010371D01*
X007847Y010336D01*
X007882Y010298D01*
X007915Y010257D01*
X007945Y010215D01*
X007971Y010170D01*
X007994Y010123D01*
X008013Y010074D01*
X008029Y010024D01*
X008041Y009974D01*
X008049Y009922D01*
X008053Y009870D01*
X008053Y009818D01*
X008049Y009766D01*
X008041Y009714D01*
X008029Y009664D01*
X008013Y009614D01*
X007994Y009565D01*
X007971Y009518D01*
X007945Y009473D01*
X007915Y009431D01*
X007882Y009390D01*
X007847Y009352D01*
X007808Y009317D01*
X007767Y009285D01*
X007723Y009256D01*
X007678Y009231D01*
X007631Y009209D01*
X007582Y009190D01*
X007532Y009176D01*
X007481Y009165D01*
X007429Y009158D01*
X007377Y009155D01*
X007325Y009156D01*
X007273Y009161D01*
X007222Y009170D01*
X007171Y009183D01*
X007122Y009199D01*
X007073Y009219D01*
X007027Y009243D01*
X006983Y009270D01*
X006940Y009301D01*
X006900Y009334D01*
X006863Y009371D01*
X006829Y009410D01*
X006798Y009452D01*
X006769Y009496D01*
X006745Y009542D01*
X006724Y009589D01*
X006706Y009639D01*
X006693Y009689D01*
X006683Y009740D01*
X006677Y009792D01*
X006675Y009844D01*
X006675Y029529D02*
X006677Y029581D01*
X006683Y029633D01*
X006693Y029684D01*
X006706Y029734D01*
X006724Y029784D01*
X006745Y029831D01*
X006769Y029877D01*
X006798Y029921D01*
X006829Y029963D01*
X006863Y030002D01*
X006900Y030039D01*
X006940Y030072D01*
X006983Y030103D01*
X007027Y030130D01*
X007073Y030154D01*
X007122Y030174D01*
X007171Y030190D01*
X007222Y030203D01*
X007273Y030212D01*
X007325Y030217D01*
X007377Y030218D01*
X007429Y030215D01*
X007481Y030208D01*
X007532Y030197D01*
X007582Y030183D01*
X007631Y030164D01*
X007678Y030142D01*
X007723Y030117D01*
X007767Y030088D01*
X007808Y030056D01*
X007847Y030021D01*
X007882Y029983D01*
X007915Y029942D01*
X007945Y029900D01*
X007971Y029855D01*
X007994Y029808D01*
X008013Y029759D01*
X008029Y029709D01*
X008041Y029659D01*
X008049Y029607D01*
X008053Y029555D01*
X008053Y029503D01*
X008049Y029451D01*
X008041Y029399D01*
X008029Y029349D01*
X008013Y029299D01*
X007994Y029250D01*
X007971Y029203D01*
X007945Y029158D01*
X007915Y029116D01*
X007882Y029075D01*
X007847Y029037D01*
X007808Y029002D01*
X007767Y028970D01*
X007723Y028941D01*
X007678Y028916D01*
X007631Y028894D01*
X007582Y028875D01*
X007532Y028861D01*
X007481Y028850D01*
X007429Y028843D01*
X007377Y028840D01*
X007325Y028841D01*
X007273Y028846D01*
X007222Y028855D01*
X007171Y028868D01*
X007122Y028884D01*
X007073Y028904D01*
X007027Y028928D01*
X006983Y028955D01*
X006940Y028986D01*
X006900Y029019D01*
X006863Y029056D01*
X006829Y029095D01*
X006798Y029137D01*
X006769Y029181D01*
X006745Y029227D01*
X006724Y029274D01*
X006706Y029324D01*
X006693Y029374D01*
X006683Y029425D01*
X006677Y029477D01*
X006675Y029529D01*
X032266Y029529D02*
X032268Y029581D01*
X032274Y029633D01*
X032284Y029684D01*
X032297Y029734D01*
X032315Y029784D01*
X032336Y029831D01*
X032360Y029877D01*
X032389Y029921D01*
X032420Y029963D01*
X032454Y030002D01*
X032491Y030039D01*
X032531Y030072D01*
X032574Y030103D01*
X032618Y030130D01*
X032664Y030154D01*
X032713Y030174D01*
X032762Y030190D01*
X032813Y030203D01*
X032864Y030212D01*
X032916Y030217D01*
X032968Y030218D01*
X033020Y030215D01*
X033072Y030208D01*
X033123Y030197D01*
X033173Y030183D01*
X033222Y030164D01*
X033269Y030142D01*
X033314Y030117D01*
X033358Y030088D01*
X033399Y030056D01*
X033438Y030021D01*
X033473Y029983D01*
X033506Y029942D01*
X033536Y029900D01*
X033562Y029855D01*
X033585Y029808D01*
X033604Y029759D01*
X033620Y029709D01*
X033632Y029659D01*
X033640Y029607D01*
X033644Y029555D01*
X033644Y029503D01*
X033640Y029451D01*
X033632Y029399D01*
X033620Y029349D01*
X033604Y029299D01*
X033585Y029250D01*
X033562Y029203D01*
X033536Y029158D01*
X033506Y029116D01*
X033473Y029075D01*
X033438Y029037D01*
X033399Y029002D01*
X033358Y028970D01*
X033314Y028941D01*
X033269Y028916D01*
X033222Y028894D01*
X033173Y028875D01*
X033123Y028861D01*
X033072Y028850D01*
X033020Y028843D01*
X032968Y028840D01*
X032916Y028841D01*
X032864Y028846D01*
X032813Y028855D01*
X032762Y028868D01*
X032713Y028884D01*
X032664Y028904D01*
X032618Y028928D01*
X032574Y028955D01*
X032531Y028986D01*
X032491Y029019D01*
X032454Y029056D01*
X032420Y029095D01*
X032389Y029137D01*
X032360Y029181D01*
X032336Y029227D01*
X032315Y029274D01*
X032297Y029324D01*
X032284Y029374D01*
X032274Y029425D01*
X032268Y029477D01*
X032266Y029529D01*
X032266Y009844D02*
X032268Y009896D01*
X032274Y009948D01*
X032284Y009999D01*
X032297Y010049D01*
X032315Y010099D01*
X032336Y010146D01*
X032360Y010192D01*
X032389Y010236D01*
X032420Y010278D01*
X032454Y010317D01*
X032491Y010354D01*
X032531Y010387D01*
X032574Y010418D01*
X032618Y010445D01*
X032664Y010469D01*
X032713Y010489D01*
X032762Y010505D01*
X032813Y010518D01*
X032864Y010527D01*
X032916Y010532D01*
X032968Y010533D01*
X033020Y010530D01*
X033072Y010523D01*
X033123Y010512D01*
X033173Y010498D01*
X033222Y010479D01*
X033269Y010457D01*
X033314Y010432D01*
X033358Y010403D01*
X033399Y010371D01*
X033438Y010336D01*
X033473Y010298D01*
X033506Y010257D01*
X033536Y010215D01*
X033562Y010170D01*
X033585Y010123D01*
X033604Y010074D01*
X033620Y010024D01*
X033632Y009974D01*
X033640Y009922D01*
X033644Y009870D01*
X033644Y009818D01*
X033640Y009766D01*
X033632Y009714D01*
X033620Y009664D01*
X033604Y009614D01*
X033585Y009565D01*
X033562Y009518D01*
X033536Y009473D01*
X033506Y009431D01*
X033473Y009390D01*
X033438Y009352D01*
X033399Y009317D01*
X033358Y009285D01*
X033314Y009256D01*
X033269Y009231D01*
X033222Y009209D01*
X033173Y009190D01*
X033123Y009176D01*
X033072Y009165D01*
X033020Y009158D01*
X032968Y009155D01*
X032916Y009156D01*
X032864Y009161D01*
X032813Y009170D01*
X032762Y009183D01*
X032713Y009199D01*
X032664Y009219D01*
X032618Y009243D01*
X032574Y009270D01*
X032531Y009301D01*
X032491Y009334D01*
X032454Y009371D01*
X032420Y009410D01*
X032389Y009452D01*
X032360Y009496D01*
X032336Y009542D01*
X032315Y009589D01*
X032297Y009639D01*
X032284Y009689D01*
X032274Y009740D01*
X032268Y009792D01*
X032266Y009844D01*
D11*
X024455Y011882D03*
X024455Y013782D03*
D12*
X023167Y006021D03*
X022167Y006021D03*
X021167Y006021D03*
X020167Y006021D03*
X019167Y006021D03*
X038220Y017285D03*
X038220Y018285D03*
X038220Y019285D03*
X038220Y020285D03*
X038220Y021285D03*
X038220Y022285D03*
X038220Y023295D03*
X038236Y024279D03*
X038240Y025277D03*
D13*
X032955Y033984D02*
X032955Y034689D01*
X030986Y034689D02*
X030986Y033984D01*
X029018Y033984D02*
X029018Y034689D01*
X027049Y034697D02*
X027049Y033992D01*
X025081Y033992D02*
X025081Y034697D01*
X015238Y034689D02*
X015238Y033984D01*
X013270Y033984D02*
X013270Y034689D01*
X011301Y034689D02*
X011301Y033984D01*
X009333Y033992D02*
X009333Y034697D01*
X007364Y034697D02*
X007364Y033992D01*
X007364Y005382D02*
X007364Y004677D01*
X009333Y004677D02*
X009333Y005382D01*
X011301Y005390D02*
X011301Y004685D01*
X013270Y004685D02*
X013270Y005390D01*
X015238Y005390D02*
X015238Y004685D01*
X029018Y004685D02*
X029018Y005390D01*
X030986Y005390D02*
X030986Y004685D01*
X032955Y004685D02*
X032955Y005390D01*
D14*
X029616Y007679D03*
X028616Y007679D03*
X038270Y008065D03*
X038270Y009065D03*
D15*
X037358Y012675D03*
X036358Y012675D03*
X035358Y012675D03*
X034358Y012675D03*
X034358Y015675D03*
X035358Y015675D03*
X036358Y015675D03*
X037358Y015675D03*
D16*
X020161Y010238D03*
X019960Y010238D03*
D17*
X003533Y017687D03*
X002533Y017687D03*
X002533Y018687D03*
X003533Y018687D03*
X003533Y019687D03*
X002533Y019687D03*
X002533Y020687D03*
X003533Y020687D03*
X003533Y021687D03*
X002533Y021687D03*
D18*
X009805Y021443D02*
X010585Y021443D01*
X012755Y021443D02*
X013535Y021443D01*
X015317Y021443D02*
X016097Y021443D01*
X018267Y021443D02*
X019047Y021443D01*
X021222Y021443D02*
X022002Y021443D01*
X024172Y021443D02*
X024952Y021443D01*
X026734Y021443D02*
X027514Y021443D01*
X029684Y021443D02*
X030464Y021443D01*
X030464Y027353D02*
X029684Y027353D01*
X029684Y029313D02*
X030464Y029313D01*
X030464Y031283D02*
X029684Y031283D01*
X027514Y031283D02*
X026734Y031283D01*
X024952Y031283D02*
X024172Y031283D01*
X024172Y029313D02*
X024952Y029313D01*
X026734Y029313D02*
X027514Y029313D01*
X027514Y027353D02*
X026734Y027353D01*
X024952Y027353D02*
X024172Y027353D01*
X022002Y027353D02*
X021222Y027353D01*
X021222Y029313D02*
X022002Y029313D01*
X022002Y031283D02*
X021222Y031283D01*
X019047Y031283D02*
X018267Y031283D01*
X018267Y029313D02*
X019047Y029313D01*
X019047Y027353D02*
X018267Y027353D01*
X016097Y027353D02*
X015317Y027353D01*
X013535Y027353D02*
X012755Y027353D01*
X012755Y029313D02*
X013535Y029313D01*
X015317Y029313D02*
X016097Y029313D01*
X016097Y031283D02*
X015317Y031283D01*
X013535Y031283D02*
X012755Y031283D01*
X010585Y031283D02*
X009805Y031283D01*
X009805Y029313D02*
X010585Y029313D01*
X010585Y027353D02*
X009805Y027353D01*
D19*
X004004Y027382D02*
X001121Y027382D01*
X001121Y027284D02*
X004004Y027284D01*
X004004Y027185D02*
X001121Y027185D01*
X001121Y027087D02*
X004004Y027087D01*
X004004Y026988D02*
X001121Y026988D01*
X001121Y026890D02*
X004004Y026890D01*
X004004Y026791D02*
X001121Y026791D01*
X001121Y026693D02*
X004004Y026693D01*
X004004Y026594D02*
X001121Y026594D01*
X001121Y026496D02*
X004004Y026496D01*
X004004Y026397D02*
X001121Y026397D01*
X001121Y026299D02*
X004004Y026299D01*
X004004Y026200D02*
X001121Y026200D01*
X001121Y026102D02*
X004004Y026102D01*
X004004Y026003D02*
X001121Y026003D01*
X001121Y025905D02*
X004004Y025905D01*
X004004Y025806D02*
X001121Y025806D01*
X001121Y025708D02*
X004004Y025708D01*
X004004Y025609D02*
X001121Y025609D01*
X001121Y025511D02*
X004004Y025511D01*
X004004Y025412D02*
X001121Y025412D01*
X001121Y025314D02*
X004004Y025314D01*
X004004Y025215D02*
X001121Y025215D01*
X001121Y025117D02*
X004004Y025117D01*
X004004Y025018D02*
X001121Y025018D01*
X001121Y024920D02*
X004004Y024920D01*
X004004Y024821D02*
X001121Y024821D01*
X001121Y024723D02*
X004004Y024723D01*
X004004Y024718D02*
X004127Y024595D01*
X036191Y024595D01*
X036314Y024718D01*
X036314Y032229D01*
X039198Y032229D01*
X039198Y024196D01*
X039145Y024248D01*
X038834Y024559D01*
X038713Y024609D01*
X038662Y024609D01*
X038539Y024733D01*
X038345Y024813D01*
X038351Y024814D01*
X038422Y024837D01*
X038489Y024871D01*
X038549Y024915D01*
X038602Y024968D01*
X038646Y025028D01*
X038680Y025095D01*
X038703Y025166D01*
X038713Y025227D01*
X038290Y025227D01*
X038290Y025327D01*
X038713Y025327D01*
X038703Y025388D01*
X038680Y025459D01*
X038646Y025526D01*
X038602Y025587D01*
X038549Y025639D01*
X038489Y025683D01*
X038422Y025717D01*
X038351Y025740D01*
X038290Y025750D01*
X038290Y025327D01*
X038190Y025327D01*
X038190Y025227D01*
X037767Y025227D01*
X037777Y025166D01*
X037800Y025095D01*
X037834Y025028D01*
X037878Y024968D01*
X037931Y024915D01*
X037991Y024871D01*
X038058Y024837D01*
X038129Y024814D01*
X038130Y024814D01*
X037933Y024733D01*
X037783Y024582D01*
X037701Y024386D01*
X037701Y024173D01*
X037783Y023976D01*
X037933Y023826D01*
X038019Y023790D01*
X037917Y023748D01*
X037767Y023598D01*
X037686Y023401D01*
X037686Y023189D01*
X037767Y022992D01*
X037917Y022842D01*
X038042Y022790D01*
X037917Y022738D01*
X037767Y022588D01*
X037686Y022391D01*
X037686Y022179D01*
X037767Y021982D01*
X037917Y021832D01*
X038030Y021785D01*
X037917Y021738D01*
X037799Y021620D01*
X036938Y021620D01*
X036843Y021580D01*
X036770Y021507D01*
X036193Y020931D01*
X033764Y020931D01*
X033678Y021017D01*
X033528Y021079D01*
X033366Y021079D01*
X033216Y021017D01*
X033101Y020902D01*
X033039Y020752D01*
X033039Y020590D01*
X033101Y020440D01*
X033216Y020325D01*
X033366Y020263D01*
X033394Y020263D01*
X033314Y020230D01*
X033199Y020115D01*
X033137Y019965D01*
X033137Y019802D01*
X033199Y019652D01*
X033314Y019538D01*
X033429Y019490D01*
X033314Y019442D01*
X033199Y019327D01*
X033137Y019177D01*
X033137Y019015D01*
X033199Y018865D01*
X033314Y018750D01*
X033429Y018702D01*
X033314Y018655D01*
X033199Y018540D01*
X033137Y018390D01*
X033137Y018228D01*
X033199Y018078D01*
X033314Y017963D01*
X033464Y017901D01*
X033626Y017901D01*
X033776Y017963D01*
X033862Y018049D01*
X037739Y018049D01*
X037767Y017982D01*
X037917Y017832D01*
X038030Y017785D01*
X037917Y017738D01*
X037767Y017588D01*
X037686Y017391D01*
X037686Y017179D01*
X037767Y016982D01*
X037917Y016832D01*
X038114Y016750D01*
X038327Y016750D01*
X038523Y016832D01*
X038629Y016937D01*
X038629Y009370D01*
X038464Y009535D01*
X038075Y009535D01*
X037800Y009259D01*
X037800Y008870D01*
X038075Y008595D01*
X038333Y008595D01*
X038273Y008535D01*
X038075Y008535D01*
X037800Y008259D01*
X037800Y007870D01*
X037900Y007770D01*
X037900Y007655D01*
X035243Y007655D01*
X035107Y007599D01*
X035003Y007495D01*
X034714Y007205D01*
X034609Y007101D01*
X034553Y006965D01*
X034553Y006080D01*
X034515Y005988D01*
X034515Y005826D01*
X034577Y005676D01*
X034593Y005660D01*
X034593Y004272D01*
X034393Y004072D01*
X011635Y004072D01*
X011631Y004075D01*
X011631Y004219D01*
X011778Y004366D01*
X011864Y004573D01*
X011864Y005501D01*
X011778Y005708D01*
X011620Y005866D01*
X011413Y005952D01*
X011189Y005952D01*
X010982Y005866D01*
X010824Y005708D01*
X010739Y005501D01*
X010739Y004573D01*
X010824Y004366D01*
X010971Y004219D01*
X010971Y004072D01*
X005139Y004072D01*
X005037Y004174D01*
X005037Y007548D01*
X004986Y007669D01*
X004893Y007762D01*
X004327Y008328D01*
X004327Y008351D01*
X004265Y008501D01*
X004150Y008615D01*
X004000Y008677D01*
X003838Y008677D01*
X003688Y008615D01*
X003573Y008501D01*
X003511Y008351D01*
X003511Y008188D01*
X003573Y008038D01*
X003688Y007923D01*
X003838Y007861D01*
X003861Y007861D01*
X004377Y007345D01*
X004377Y007114D01*
X004304Y007145D01*
X001121Y007145D01*
X001121Y032229D01*
X004004Y032229D01*
X004004Y024718D01*
X004098Y024624D02*
X001121Y024624D01*
X001121Y024526D02*
X037759Y024526D01*
X037719Y024427D02*
X001121Y024427D01*
X001121Y024329D02*
X037701Y024329D01*
X037701Y024230D02*
X001121Y024230D01*
X001121Y024132D02*
X037718Y024132D01*
X037759Y024033D02*
X001121Y024033D01*
X001121Y023935D02*
X037824Y023935D01*
X037923Y023836D02*
X001121Y023836D01*
X001121Y023738D02*
X037907Y023738D01*
X037808Y023639D02*
X001121Y023639D01*
X001121Y023541D02*
X037743Y023541D01*
X037703Y023442D02*
X001121Y023442D01*
X001121Y023344D02*
X037686Y023344D01*
X037686Y023245D02*
X001121Y023245D01*
X001121Y023147D02*
X037703Y023147D01*
X037744Y023048D02*
X001121Y023048D01*
X001121Y022950D02*
X037809Y022950D01*
X037908Y022851D02*
X001121Y022851D01*
X001121Y022753D02*
X037952Y022753D01*
X037833Y022654D02*
X001121Y022654D01*
X001121Y022556D02*
X037754Y022556D01*
X037713Y022457D02*
X001121Y022457D01*
X001121Y022359D02*
X037686Y022359D01*
X037686Y022260D02*
X001121Y022260D01*
X001121Y022162D02*
X002315Y022162D01*
X002330Y022177D02*
X002043Y021890D01*
X002043Y021484D01*
X002330Y021197D01*
X002736Y021197D01*
X003023Y021484D01*
X003023Y021890D01*
X002736Y022177D01*
X002330Y022177D01*
X002217Y022063D02*
X001121Y022063D01*
X001121Y021965D02*
X002118Y021965D01*
X002043Y021866D02*
X001121Y021866D01*
X001121Y021768D02*
X002043Y021768D01*
X002043Y021669D02*
X001121Y021669D01*
X001121Y021571D02*
X002043Y021571D01*
X002055Y021472D02*
X001121Y021472D01*
X001121Y021374D02*
X002153Y021374D01*
X002252Y021275D02*
X001121Y021275D01*
X001121Y021177D02*
X009265Y021177D01*
X009296Y021103D02*
X009205Y021323D01*
X009205Y021562D01*
X009296Y021782D01*
X009465Y021951D01*
X009685Y022043D01*
X010704Y022043D01*
X010925Y021951D01*
X011093Y021782D01*
X011185Y021562D01*
X011185Y021323D01*
X011093Y021103D01*
X010925Y020934D01*
X010704Y020843D01*
X009685Y020843D01*
X009465Y020934D01*
X009296Y021103D01*
X009321Y021078D02*
X003835Y021078D01*
X003933Y020980D02*
X009419Y020980D01*
X009592Y020881D02*
X004023Y020881D01*
X004023Y020890D02*
X003736Y021177D01*
X003330Y021177D01*
X003043Y020890D01*
X003043Y020484D01*
X003330Y020197D01*
X003736Y020197D01*
X004023Y020484D01*
X004023Y020890D01*
X004023Y020783D02*
X033051Y020783D01*
X033039Y020684D02*
X004023Y020684D01*
X004023Y020586D02*
X033040Y020586D01*
X033081Y020487D02*
X004023Y020487D01*
X003928Y020389D02*
X033152Y020389D01*
X033299Y020290D02*
X003830Y020290D01*
X003711Y020117D02*
X003573Y020117D01*
X003573Y019727D01*
X003493Y019727D01*
X003493Y019647D01*
X003103Y019647D01*
X003103Y019509D01*
X003355Y019257D01*
X003493Y019257D01*
X003493Y019647D01*
X003573Y019647D01*
X003573Y019257D01*
X003711Y019257D01*
X003963Y019509D01*
X003963Y019647D01*
X003573Y019647D01*
X003573Y019727D01*
X003963Y019727D01*
X003963Y019865D01*
X003711Y020117D01*
X003735Y020093D02*
X033190Y020093D01*
X033149Y019995D02*
X003833Y019995D01*
X003932Y019896D02*
X033137Y019896D01*
X033139Y019798D02*
X003963Y019798D01*
X003963Y019601D02*
X033251Y019601D01*
X033180Y019699D02*
X003573Y019699D01*
X003493Y019699D02*
X003023Y019699D01*
X003103Y019727D02*
X003493Y019727D01*
X003493Y020117D01*
X003355Y020117D01*
X003103Y019865D01*
X003103Y019727D01*
X003103Y019798D02*
X003023Y019798D01*
X003023Y019890D02*
X002736Y020177D01*
X002330Y020177D01*
X002043Y019890D01*
X002043Y019484D01*
X002330Y019197D01*
X002736Y019197D01*
X003023Y019484D01*
X003023Y019890D01*
X003017Y019896D02*
X003135Y019896D01*
X003233Y019995D02*
X002918Y019995D01*
X002820Y020093D02*
X003332Y020093D01*
X003493Y020093D02*
X003573Y020093D01*
X003573Y019995D02*
X003493Y019995D01*
X003493Y019896D02*
X003573Y019896D01*
X003573Y019798D02*
X003493Y019798D01*
X003493Y019601D02*
X003573Y019601D01*
X003573Y019502D02*
X003493Y019502D01*
X003493Y019404D02*
X003573Y019404D01*
X003573Y019305D02*
X003493Y019305D01*
X003307Y019305D02*
X002845Y019305D01*
X002746Y019207D02*
X033149Y019207D01*
X033137Y019108D02*
X003805Y019108D01*
X003736Y019177D02*
X003330Y019177D01*
X003043Y018890D01*
X003043Y018484D01*
X003330Y018197D01*
X003736Y018197D01*
X004023Y018484D01*
X004023Y018890D01*
X003736Y019177D01*
X003760Y019305D02*
X033190Y019305D01*
X033276Y019404D02*
X003859Y019404D01*
X003957Y019502D02*
X033399Y019502D01*
X033742Y019293D02*
X033545Y019096D01*
X033742Y019293D02*
X038212Y019293D01*
X038220Y019285D01*
X038197Y018309D02*
X038220Y018285D01*
X038197Y018309D02*
X033545Y018309D01*
X033137Y018320D02*
X003860Y018320D01*
X003761Y018222D02*
X033139Y018222D01*
X033180Y018123D02*
X002790Y018123D01*
X002736Y018177D02*
X002330Y018177D01*
X002043Y017890D01*
X002043Y017484D01*
X002330Y017197D01*
X002736Y017197D01*
X003023Y017484D01*
X003023Y017890D01*
X002736Y018177D01*
X002736Y018197D02*
X003023Y018484D01*
X003023Y018890D01*
X002736Y019177D01*
X002330Y019177D01*
X002043Y018890D01*
X002043Y018484D01*
X002330Y018197D01*
X002736Y018197D01*
X002761Y018222D02*
X003305Y018222D01*
X003355Y018117D02*
X003103Y017865D01*
X003103Y017727D01*
X003493Y017727D01*
X003493Y017647D01*
X003103Y017647D01*
X003103Y017509D01*
X003355Y017257D01*
X003493Y017257D01*
X003493Y017647D01*
X003573Y017647D01*
X003573Y017257D01*
X003711Y017257D01*
X003963Y017509D01*
X003963Y017647D01*
X003573Y017647D01*
X003573Y017727D01*
X003493Y017727D01*
X003493Y018117D01*
X003355Y018117D01*
X003263Y018025D02*
X002888Y018025D01*
X002987Y017926D02*
X003165Y017926D01*
X003103Y017828D02*
X003023Y017828D01*
X003023Y017729D02*
X003103Y017729D01*
X003103Y017631D02*
X003023Y017631D01*
X003023Y017532D02*
X003103Y017532D01*
X003178Y017434D02*
X002973Y017434D01*
X002875Y017335D02*
X003277Y017335D01*
X003493Y017335D02*
X003573Y017335D01*
X003573Y017434D02*
X003493Y017434D01*
X003493Y017532D02*
X003573Y017532D01*
X003573Y017631D02*
X003493Y017631D01*
X003493Y017729D02*
X003573Y017729D01*
X003573Y017727D02*
X003573Y018117D01*
X003711Y018117D01*
X003963Y017865D01*
X003963Y017727D01*
X003573Y017727D01*
X003573Y017828D02*
X003493Y017828D01*
X003493Y017926D02*
X003573Y017926D01*
X003573Y018025D02*
X003493Y018025D01*
X003803Y018025D02*
X033252Y018025D01*
X033402Y017926D02*
X003902Y017926D01*
X003963Y017828D02*
X037927Y017828D01*
X037908Y017729D02*
X003963Y017729D01*
X003963Y017631D02*
X037810Y017631D01*
X037744Y017532D02*
X003963Y017532D01*
X003889Y017434D02*
X037703Y017434D01*
X037686Y017335D02*
X003790Y017335D01*
X002776Y017237D02*
X037686Y017237D01*
X037702Y017138D02*
X001121Y017138D01*
X001121Y017040D02*
X037743Y017040D01*
X037808Y016941D02*
X001121Y016941D01*
X001121Y016843D02*
X037906Y016843D01*
X038534Y016843D02*
X038629Y016843D01*
X038629Y016744D02*
X001121Y016744D01*
X001121Y016646D02*
X038629Y016646D01*
X038629Y016547D02*
X001121Y016547D01*
X001121Y016449D02*
X022360Y016449D01*
X022340Y016440D02*
X022225Y016325D01*
X022163Y016175D01*
X022163Y016013D01*
X022225Y015863D01*
X022340Y015748D01*
X022490Y015686D01*
X022652Y015686D01*
X022802Y015748D01*
X022912Y015859D01*
X022901Y015831D01*
X022901Y015668D01*
X022963Y015518D01*
X023078Y015404D01*
X023228Y015342D01*
X023390Y015342D01*
X023540Y015404D01*
X023551Y015415D01*
X033826Y015415D01*
X034126Y015115D01*
X034590Y015115D01*
X034858Y015383D01*
X035126Y015115D01*
X035590Y015115D01*
X035858Y015383D01*
X036081Y015160D01*
X034815Y013894D01*
X033493Y013894D01*
X033398Y013854D01*
X033325Y013781D01*
X029107Y009563D01*
X022100Y009563D01*
X022015Y009649D01*
X021865Y009711D01*
X021702Y009711D01*
X021552Y009649D01*
X021437Y009534D01*
X021414Y009478D01*
X021391Y009534D01*
X021276Y009649D01*
X021126Y009711D01*
X020964Y009711D01*
X020956Y009708D01*
X020949Y009710D01*
X019714Y009710D01*
X019618Y009671D01*
X019545Y009598D01*
X018947Y008999D01*
X018907Y008904D01*
X018907Y006492D01*
X018864Y006475D01*
X018714Y006324D01*
X018632Y006128D01*
X018632Y005915D01*
X018714Y005718D01*
X018864Y005568D01*
X019061Y005487D01*
X019274Y005487D01*
X019470Y005568D01*
X019621Y005718D01*
X019667Y005831D01*
X019714Y005718D01*
X019864Y005568D01*
X020061Y005487D01*
X020274Y005487D01*
X020470Y005568D01*
X020621Y005718D01*
X020702Y005915D01*
X020702Y005923D01*
X020704Y005910D01*
X020727Y005839D01*
X020761Y005772D01*
X020805Y005712D01*
X020858Y005659D01*
X020918Y005615D01*
X020985Y005581D01*
X021056Y005558D01*
X021117Y005549D01*
X021117Y005971D01*
X021217Y005971D01*
X021217Y005549D01*
X021278Y005558D01*
X021349Y005581D01*
X021416Y005615D01*
X021477Y005659D01*
X021529Y005712D01*
X021573Y005772D01*
X021607Y005839D01*
X021630Y005910D01*
X021632Y005923D01*
X021632Y005915D01*
X021714Y005718D01*
X021864Y005568D01*
X022061Y005487D01*
X022274Y005487D01*
X022470Y005568D01*
X022621Y005718D01*
X022667Y005831D01*
X022714Y005718D01*
X022864Y005568D01*
X023061Y005487D01*
X023274Y005487D01*
X023470Y005568D01*
X023621Y005718D01*
X023702Y005915D01*
X023702Y006128D01*
X023621Y006324D01*
X023470Y006475D01*
X023274Y006556D01*
X023061Y006556D01*
X022864Y006475D01*
X022714Y006324D01*
X022667Y006212D01*
X022621Y006324D01*
X022470Y006475D01*
X022274Y006556D01*
X022061Y006556D01*
X021864Y006475D01*
X021714Y006324D01*
X021632Y006128D01*
X021632Y006119D01*
X021630Y006133D01*
X021607Y006204D01*
X021573Y006270D01*
X021529Y006331D01*
X021477Y006383D01*
X021416Y006427D01*
X021349Y006461D01*
X021278Y006484D01*
X021217Y006494D01*
X021217Y006071D01*
X021117Y006071D01*
X021117Y006494D01*
X021056Y006484D01*
X020985Y006461D01*
X020918Y006427D01*
X020858Y006383D01*
X020805Y006331D01*
X020761Y006270D01*
X020727Y006204D01*
X020704Y006133D01*
X020702Y006119D01*
X020702Y006128D01*
X020621Y006324D01*
X020470Y006475D01*
X020274Y006556D01*
X020061Y006556D01*
X019864Y006475D01*
X019714Y006324D01*
X019667Y006212D01*
X019621Y006324D01*
X019470Y006475D01*
X019427Y006492D01*
X019427Y006899D01*
X019485Y006841D01*
X019635Y006779D01*
X019798Y006779D01*
X019948Y006841D01*
X020062Y006956D01*
X020071Y006976D01*
X022696Y006976D01*
X022782Y006890D01*
X022932Y006828D01*
X023095Y006828D01*
X023245Y006890D01*
X023360Y007005D01*
X023422Y007155D01*
X023422Y007317D01*
X023360Y007467D01*
X023245Y007582D01*
X023095Y007644D01*
X022932Y007644D01*
X022782Y007582D01*
X022696Y007496D01*
X019984Y007496D01*
X019948Y007533D01*
X019798Y007595D01*
X019635Y007595D01*
X019485Y007533D01*
X019427Y007475D01*
X019427Y008744D01*
X019873Y009190D01*
X020650Y009190D01*
X020699Y009072D01*
X020814Y008957D01*
X020964Y008895D01*
X021126Y008895D01*
X021276Y008957D01*
X021391Y009072D01*
X021414Y009127D01*
X021437Y009072D01*
X021501Y009008D01*
X021437Y008943D01*
X021375Y008793D01*
X021375Y008631D01*
X021437Y008481D01*
X021552Y008366D01*
X021702Y008304D01*
X021865Y008304D01*
X022015Y008366D01*
X022051Y008403D01*
X022278Y008403D01*
X022374Y008443D01*
X022447Y008516D01*
X022678Y008748D01*
X029315Y008748D01*
X029411Y008787D01*
X029484Y008860D01*
X033800Y013177D01*
X035221Y013177D01*
X035316Y013216D01*
X035390Y013289D01*
X037215Y015115D01*
X037590Y015115D01*
X037918Y015443D01*
X037918Y015907D01*
X037590Y016235D01*
X037126Y016235D01*
X036858Y015967D01*
X036590Y016235D01*
X036126Y016235D01*
X035858Y015967D01*
X035590Y016235D01*
X035396Y016235D01*
X035291Y016340D01*
X035218Y016413D01*
X035122Y016453D01*
X022772Y016453D01*
X022652Y016502D01*
X022490Y016502D01*
X022340Y016440D01*
X022250Y016350D02*
X001121Y016350D01*
X001121Y016252D02*
X022194Y016252D01*
X022163Y016153D02*
X001121Y016153D01*
X001121Y016055D02*
X022163Y016055D01*
X022186Y015956D02*
X001121Y015956D01*
X001121Y015858D02*
X022230Y015858D01*
X022328Y015759D02*
X001121Y015759D01*
X001121Y015661D02*
X022904Y015661D01*
X022901Y015759D02*
X022813Y015759D01*
X022912Y015858D02*
X022912Y015858D01*
X022945Y015562D02*
X019781Y015562D01*
X019800Y015554D02*
X019650Y015616D01*
X019488Y015616D01*
X019338Y015554D01*
X019282Y015498D01*
X018478Y015498D01*
X018422Y015554D01*
X018272Y015616D01*
X018110Y015616D01*
X017960Y015554D01*
X017845Y015440D01*
X017783Y015290D01*
X017783Y015127D01*
X017845Y014977D01*
X017960Y014862D01*
X018110Y014800D01*
X018272Y014800D01*
X018422Y014862D01*
X018478Y014918D01*
X019282Y014918D01*
X019328Y014872D01*
X019328Y011706D01*
X019372Y011599D01*
X019454Y011518D01*
X019505Y011466D01*
X019505Y011387D01*
X019567Y011237D01*
X019682Y011122D01*
X019832Y011060D01*
X019994Y011060D01*
X020144Y011122D01*
X020259Y011237D01*
X020321Y011387D01*
X020321Y011549D01*
X020259Y011699D01*
X020144Y011814D01*
X019994Y011876D01*
X019915Y011876D01*
X019908Y011884D01*
X019908Y014970D01*
X019915Y014977D01*
X019977Y015127D01*
X019977Y015290D01*
X019915Y015440D01*
X019800Y015554D01*
X019890Y015464D02*
X023018Y015464D01*
X023170Y015365D02*
X019945Y015365D01*
X019977Y015267D02*
X033974Y015267D01*
X033876Y015365D02*
X023447Y015365D01*
X023384Y015675D02*
X023309Y015750D01*
X023384Y015675D02*
X034358Y015675D01*
X034742Y015267D02*
X034974Y015267D01*
X034876Y015365D02*
X034841Y015365D01*
X034644Y015168D02*
X035073Y015168D01*
X034482Y014800D02*
X034367Y014915D01*
X034217Y014977D01*
X034055Y014977D01*
X033905Y014915D01*
X033849Y014859D01*
X030032Y014859D01*
X029985Y014878D01*
X029822Y014878D01*
X029672Y014816D01*
X029557Y014701D01*
X029495Y014551D01*
X029495Y014389D01*
X029557Y014239D01*
X029613Y014183D01*
X024747Y014183D01*
X024732Y014198D02*
X024552Y014272D01*
X024357Y014272D01*
X024177Y014198D01*
X024039Y014060D01*
X023965Y013880D01*
X023965Y013685D01*
X024039Y013505D01*
X024177Y013367D01*
X024357Y013292D01*
X024552Y013292D01*
X024732Y013367D01*
X024870Y013505D01*
X024945Y013685D01*
X024945Y013880D01*
X024870Y014060D01*
X024732Y014198D01*
X024845Y014085D02*
X029613Y014085D01*
X029613Y014183D02*
X029613Y012789D01*
X029557Y012733D01*
X029495Y012583D01*
X029495Y012420D01*
X029557Y012270D01*
X029672Y012156D01*
X029822Y012094D01*
X029985Y012094D01*
X030135Y012156D01*
X030249Y012270D01*
X030312Y012420D01*
X030312Y012583D01*
X030249Y012733D01*
X030193Y012789D01*
X030193Y014183D01*
X030249Y014239D01*
X030266Y014279D01*
X033849Y014279D01*
X033905Y014223D01*
X034055Y014160D01*
X034217Y014160D01*
X034367Y014223D01*
X034482Y014337D01*
X034544Y014487D01*
X034544Y014650D01*
X034482Y014800D01*
X034492Y014774D02*
X035696Y014774D01*
X035598Y014676D02*
X034533Y014676D01*
X034544Y014577D02*
X035499Y014577D01*
X035401Y014479D02*
X034540Y014479D01*
X034499Y014380D02*
X035302Y014380D01*
X035204Y014282D02*
X034426Y014282D01*
X034272Y014183D02*
X035105Y014183D01*
X035007Y014085D02*
X030193Y014085D01*
X030194Y014183D02*
X033999Y014183D01*
X033480Y013888D02*
X030193Y013888D01*
X030193Y013986D02*
X034908Y013986D01*
X034923Y013634D02*
X036399Y015110D01*
X036399Y015634D01*
X036358Y015675D01*
X035946Y016055D02*
X035770Y016055D01*
X035672Y016153D02*
X036045Y016153D01*
X036672Y016153D02*
X037045Y016153D01*
X036946Y016055D02*
X036770Y016055D01*
X037358Y015675D02*
X037358Y015626D01*
X035169Y013437D01*
X033693Y013437D01*
X029264Y009008D01*
X022571Y009008D01*
X022226Y008663D01*
X021833Y008663D01*
X021783Y008712D01*
X021405Y008864D02*
X019547Y008864D01*
X019449Y008766D02*
X021375Y008766D01*
X021375Y008667D02*
X019427Y008667D01*
X019427Y008569D02*
X021401Y008569D01*
X021448Y008470D02*
X019427Y008470D01*
X019427Y008372D02*
X021547Y008372D01*
X022020Y008372D02*
X027177Y008372D01*
X027089Y008284D02*
X027066Y008284D01*
X026916Y008222D01*
X026802Y008107D01*
X026739Y007957D01*
X026739Y007794D01*
X026802Y007644D01*
X026916Y007530D01*
X027066Y007468D01*
X027229Y007468D01*
X027379Y007530D01*
X027493Y007644D01*
X027556Y007794D01*
X027556Y007817D01*
X027776Y008038D01*
X028310Y008038D01*
X028146Y007873D01*
X028146Y007484D01*
X028421Y007209D01*
X028811Y007209D01*
X029086Y007484D01*
X029086Y007873D01*
X028922Y008038D01*
X029310Y008038D01*
X029146Y007873D01*
X029146Y007484D01*
X029421Y007209D01*
X029811Y007209D01*
X030086Y007484D01*
X030086Y007873D01*
X029922Y008038D01*
X032117Y008038D01*
X032133Y008022D01*
X032283Y007960D01*
X032445Y007960D01*
X032595Y008022D01*
X032710Y008137D01*
X032772Y008287D01*
X032772Y008449D01*
X032710Y008599D01*
X032595Y008714D01*
X032445Y008776D01*
X032283Y008776D01*
X032133Y008714D01*
X032117Y008698D01*
X027574Y008698D01*
X027453Y008648D01*
X027360Y008555D01*
X027089Y008284D01*
X027041Y008273D02*
X019427Y008273D01*
X019427Y008175D02*
X026869Y008175D01*
X026789Y008076D02*
X019427Y008076D01*
X019427Y007978D02*
X026748Y007978D01*
X026739Y007879D02*
X019427Y007879D01*
X019427Y007781D02*
X026745Y007781D01*
X026786Y007682D02*
X019427Y007682D01*
X019427Y007584D02*
X019609Y007584D01*
X019438Y007485D02*
X019427Y007485D01*
X019824Y007584D02*
X022787Y007584D01*
X023014Y007236D02*
X019766Y007236D01*
X019716Y007187D01*
X019432Y006894D02*
X019427Y006894D01*
X019427Y006796D02*
X019594Y006796D01*
X019427Y006697D02*
X034553Y006697D01*
X034553Y006599D02*
X019427Y006599D01*
X019427Y006500D02*
X019926Y006500D01*
X019791Y006402D02*
X019543Y006402D01*
X019629Y006303D02*
X019705Y006303D01*
X019839Y006796D02*
X034553Y006796D01*
X034553Y006894D02*
X023249Y006894D01*
X023348Y006993D02*
X034565Y006993D01*
X034605Y007091D02*
X023395Y007091D01*
X023422Y007190D02*
X034698Y007190D01*
X034797Y007288D02*
X029890Y007288D01*
X029989Y007387D02*
X034895Y007387D01*
X034994Y007485D02*
X030086Y007485D01*
X030086Y007584D02*
X035092Y007584D01*
X035285Y008649D02*
X035135Y008711D01*
X035020Y008826D01*
X034958Y008976D01*
X034958Y009138D01*
X035020Y009288D01*
X035076Y009344D01*
X035076Y009872D01*
X034577Y010371D01*
X034497Y010371D01*
X034347Y010433D01*
X034233Y010548D01*
X034170Y010698D01*
X034170Y010860D01*
X034233Y011010D01*
X034347Y011125D01*
X034497Y011187D01*
X034660Y011187D01*
X034810Y011125D01*
X034925Y011010D01*
X034987Y010860D01*
X034987Y010781D01*
X035612Y010156D01*
X035656Y010049D01*
X035656Y009344D01*
X035712Y009288D01*
X035774Y009138D01*
X035774Y008976D01*
X035712Y008826D01*
X035597Y008711D01*
X035447Y008649D01*
X035285Y008649D01*
X035240Y008667D02*
X032642Y008667D01*
X032579Y008766D02*
X032470Y008766D01*
X032515Y008783D02*
X032805Y008705D01*
X033105Y008705D01*
X033394Y008783D01*
X033654Y008933D01*
X033866Y009145D01*
X034016Y009405D01*
X034094Y009694D01*
X034094Y009994D01*
X034016Y010284D01*
X033866Y010544D01*
X033654Y010756D01*
X033394Y010906D01*
X033105Y010983D01*
X032805Y010983D01*
X032515Y010906D01*
X032255Y010756D01*
X032043Y010544D01*
X031893Y010284D01*
X031816Y009994D01*
X031816Y009694D01*
X031893Y009405D01*
X032043Y009145D01*
X032255Y008933D01*
X032515Y008783D01*
X032374Y008864D02*
X029488Y008864D01*
X029587Y008963D02*
X032225Y008963D01*
X032127Y009061D02*
X029685Y009061D01*
X029784Y009160D02*
X032035Y009160D01*
X031978Y009258D02*
X029882Y009258D01*
X029981Y009357D02*
X031921Y009357D01*
X031880Y009455D02*
X030079Y009455D01*
X030178Y009554D02*
X031853Y009554D01*
X031827Y009652D02*
X030276Y009652D01*
X030375Y009751D02*
X031816Y009751D01*
X031816Y009849D02*
X030473Y009849D01*
X030572Y009948D02*
X031816Y009948D01*
X031830Y010046D02*
X030670Y010046D01*
X030769Y010145D02*
X031856Y010145D01*
X031882Y010243D02*
X030867Y010243D01*
X030966Y010342D02*
X031927Y010342D01*
X031984Y010440D02*
X031064Y010440D01*
X031163Y010539D02*
X032040Y010539D01*
X032137Y010637D02*
X031261Y010637D01*
X031360Y010736D02*
X032235Y010736D01*
X032392Y010834D02*
X031458Y010834D01*
X031557Y010933D02*
X032617Y010933D01*
X033293Y010933D02*
X034200Y010933D01*
X034170Y010834D02*
X033518Y010834D01*
X033674Y010736D02*
X034170Y010736D01*
X034196Y010637D02*
X033772Y010637D01*
X033869Y010539D02*
X034242Y010539D01*
X034340Y010440D02*
X033926Y010440D01*
X033982Y010342D02*
X034606Y010342D01*
X034704Y010243D02*
X034027Y010243D01*
X034053Y010145D02*
X034803Y010145D01*
X034901Y010046D02*
X034080Y010046D01*
X034094Y009948D02*
X035000Y009948D01*
X035076Y009849D02*
X034094Y009849D01*
X034094Y009751D02*
X035076Y009751D01*
X035076Y009652D02*
X034082Y009652D01*
X034056Y009554D02*
X035076Y009554D01*
X035076Y009455D02*
X034030Y009455D01*
X033988Y009357D02*
X035076Y009357D01*
X035008Y009258D02*
X033931Y009258D01*
X033875Y009160D02*
X034967Y009160D01*
X034958Y009061D02*
X033782Y009061D01*
X033684Y008963D02*
X034963Y008963D01*
X035004Y008864D02*
X033535Y008864D01*
X033331Y008766D02*
X035080Y008766D01*
X035492Y008667D02*
X038002Y008667D01*
X037904Y008766D02*
X035652Y008766D01*
X035728Y008864D02*
X037805Y008864D01*
X037800Y008963D02*
X035769Y008963D01*
X035774Y009061D02*
X037800Y009061D01*
X037800Y009160D02*
X035765Y009160D01*
X035724Y009258D02*
X037800Y009258D01*
X037897Y009357D02*
X035656Y009357D01*
X035656Y009455D02*
X037996Y009455D01*
X038544Y009455D02*
X038629Y009455D01*
X038629Y009554D02*
X035656Y009554D01*
X035656Y009652D02*
X038629Y009652D01*
X038629Y009751D02*
X035656Y009751D01*
X035656Y009849D02*
X038629Y009849D01*
X038629Y009948D02*
X035656Y009948D01*
X035656Y010046D02*
X038629Y010046D01*
X038629Y010145D02*
X035617Y010145D01*
X035525Y010243D02*
X038629Y010243D01*
X038629Y010342D02*
X035426Y010342D01*
X035328Y010440D02*
X038629Y010440D01*
X038629Y010539D02*
X035229Y010539D01*
X035131Y010637D02*
X038629Y010637D01*
X038629Y010736D02*
X035032Y010736D01*
X034987Y010834D02*
X038629Y010834D01*
X038629Y010933D02*
X034957Y010933D01*
X034904Y011031D02*
X038629Y011031D01*
X038629Y011130D02*
X034799Y011130D01*
X034359Y011130D02*
X031754Y011130D01*
X031852Y011228D02*
X038629Y011228D01*
X038629Y011327D02*
X031951Y011327D01*
X032049Y011425D02*
X038629Y011425D01*
X038629Y011524D02*
X032148Y011524D01*
X032246Y011622D02*
X038629Y011622D01*
X038629Y011721D02*
X032345Y011721D01*
X032443Y011819D02*
X038629Y011819D01*
X038629Y011918D02*
X032542Y011918D01*
X032640Y012016D02*
X038629Y012016D01*
X038629Y012115D02*
X032739Y012115D01*
X032837Y012213D02*
X034113Y012213D01*
X034151Y012175D02*
X033858Y012468D01*
X033858Y012626D01*
X034310Y012626D01*
X034407Y012626D01*
X034407Y012723D01*
X034858Y012723D01*
X034858Y012882D01*
X034565Y013175D01*
X034407Y013175D01*
X034407Y012723D01*
X034310Y012723D01*
X034310Y012626D01*
X034310Y012175D01*
X034151Y012175D01*
X034310Y012213D02*
X034407Y012213D01*
X034407Y012175D02*
X034565Y012175D01*
X034858Y012468D01*
X034858Y012626D01*
X034407Y012626D01*
X034407Y012175D01*
X034407Y012312D02*
X034310Y012312D01*
X034310Y012410D02*
X034407Y012410D01*
X034407Y012509D02*
X034310Y012509D01*
X034310Y012607D02*
X034407Y012607D01*
X034407Y012706D02*
X035310Y012706D01*
X035310Y012723D02*
X035310Y012626D01*
X035407Y012626D01*
X035407Y012723D01*
X035858Y012723D01*
X036310Y012723D01*
X036310Y012626D01*
X036407Y012626D01*
X036407Y012723D01*
X036858Y012723D01*
X036858Y012882D01*
X036565Y013175D01*
X036407Y013175D01*
X036407Y012723D01*
X036310Y012723D01*
X036310Y013175D01*
X036151Y013175D01*
X035858Y012882D01*
X035565Y013175D01*
X035407Y013175D01*
X035407Y012723D01*
X035310Y012723D01*
X034858Y012723D01*
X034858Y012882D01*
X035151Y013175D01*
X035310Y013175D01*
X035310Y012723D01*
X035310Y012804D02*
X035407Y012804D01*
X035407Y012706D02*
X036310Y012706D01*
X036310Y012626D02*
X035858Y012626D01*
X035858Y012468D01*
X036151Y012175D01*
X036310Y012175D01*
X036310Y012626D01*
X036310Y012607D02*
X036407Y012607D01*
X036407Y012626D02*
X036407Y012175D01*
X036565Y012175D01*
X036858Y012468D01*
X036858Y012626D01*
X036407Y012626D01*
X036407Y012706D02*
X037310Y012706D01*
X037310Y012723D02*
X037310Y012626D01*
X037407Y012626D01*
X037407Y012723D01*
X037858Y012723D01*
X037858Y012882D01*
X037565Y013175D01*
X037407Y013175D01*
X037407Y012723D01*
X037310Y012723D01*
X036858Y012723D01*
X036858Y012882D01*
X037151Y013175D01*
X037310Y013175D01*
X037310Y012723D01*
X037310Y012804D02*
X037407Y012804D01*
X037407Y012706D02*
X038629Y012706D01*
X038629Y012804D02*
X037858Y012804D01*
X037837Y012903D02*
X038629Y012903D01*
X038629Y013001D02*
X037739Y013001D01*
X037640Y013100D02*
X038629Y013100D01*
X038629Y013198D02*
X035273Y013198D01*
X035310Y013100D02*
X035407Y013100D01*
X035407Y013001D02*
X035310Y013001D01*
X035310Y012903D02*
X035407Y012903D01*
X035407Y012626D02*
X035858Y012626D01*
X035858Y012468D01*
X035565Y012175D01*
X035407Y012175D01*
X035407Y012626D01*
X035407Y012607D02*
X035310Y012607D01*
X035310Y012626D02*
X035310Y012175D01*
X035151Y012175D01*
X034858Y012468D01*
X034858Y012626D01*
X035310Y012626D01*
X035310Y012509D02*
X035407Y012509D01*
X035407Y012410D02*
X035310Y012410D01*
X035310Y012312D02*
X035407Y012312D01*
X035407Y012213D02*
X035310Y012213D01*
X035113Y012213D02*
X034604Y012213D01*
X034702Y012312D02*
X035014Y012312D01*
X034916Y012410D02*
X034801Y012410D01*
X034858Y012509D02*
X034858Y012509D01*
X034858Y012607D02*
X034858Y012607D01*
X034858Y012804D02*
X034858Y012804D01*
X034837Y012903D02*
X034879Y012903D01*
X034977Y013001D02*
X034739Y013001D01*
X034640Y013100D02*
X035076Y013100D01*
X035397Y013297D02*
X038629Y013297D01*
X038629Y013395D02*
X035495Y013395D01*
X035594Y013494D02*
X038629Y013494D01*
X038629Y013592D02*
X035692Y013592D01*
X035791Y013691D02*
X038629Y013691D01*
X038629Y013789D02*
X035889Y013789D01*
X035988Y013888D02*
X038629Y013888D01*
X038629Y013986D02*
X036086Y013986D01*
X036185Y014085D02*
X038629Y014085D01*
X038629Y014183D02*
X036283Y014183D01*
X036382Y014282D02*
X038629Y014282D01*
X038629Y014380D02*
X036480Y014380D01*
X036579Y014479D02*
X038629Y014479D01*
X038629Y014577D02*
X036677Y014577D01*
X036776Y014676D02*
X038629Y014676D01*
X038629Y014774D02*
X036874Y014774D01*
X036973Y014873D02*
X038629Y014873D01*
X038629Y014971D02*
X037071Y014971D01*
X037170Y015070D02*
X038629Y015070D01*
X038629Y015168D02*
X037644Y015168D01*
X037742Y015267D02*
X038629Y015267D01*
X038629Y015365D02*
X037841Y015365D01*
X037918Y015464D02*
X038629Y015464D01*
X038629Y015562D02*
X037918Y015562D01*
X037918Y015661D02*
X038629Y015661D01*
X038629Y015759D02*
X037918Y015759D01*
X037918Y015858D02*
X038629Y015858D01*
X038629Y015956D02*
X037869Y015956D01*
X037770Y016055D02*
X038629Y016055D01*
X038629Y016153D02*
X037672Y016153D01*
X038629Y016252D02*
X035379Y016252D01*
X035281Y016350D02*
X038629Y016350D01*
X038629Y016449D02*
X035132Y016449D01*
X035071Y016193D02*
X022669Y016193D01*
X022571Y016094D01*
X024163Y014183D02*
X019908Y014183D01*
X019908Y014085D02*
X024064Y014085D01*
X024009Y013986D02*
X019908Y013986D01*
X019908Y013888D02*
X023968Y013888D01*
X023965Y013789D02*
X019908Y013789D01*
X019908Y013691D02*
X023965Y013691D01*
X024003Y013592D02*
X019908Y013592D01*
X019908Y013494D02*
X024050Y013494D01*
X024149Y013395D02*
X019908Y013395D01*
X019908Y013297D02*
X024346Y013297D01*
X024563Y013297D02*
X029613Y013297D01*
X029613Y013395D02*
X024760Y013395D01*
X024859Y013494D02*
X029613Y013494D01*
X029613Y013592D02*
X024906Y013592D01*
X024945Y013691D02*
X029613Y013691D01*
X029613Y013789D02*
X024945Y013789D01*
X024941Y013888D02*
X029613Y013888D01*
X029613Y013986D02*
X024900Y013986D01*
X024552Y012372D02*
X024357Y012372D01*
X024177Y012298D01*
X024039Y012160D01*
X023965Y011980D01*
X023965Y011785D01*
X024039Y011605D01*
X024177Y011467D01*
X024357Y011392D01*
X024552Y011392D01*
X024732Y011467D01*
X024870Y011605D01*
X024945Y011785D01*
X024945Y011980D01*
X024870Y012160D01*
X024732Y012298D01*
X024552Y012372D01*
X024698Y012312D02*
X029540Y012312D01*
X029500Y012410D02*
X019908Y012410D01*
X019908Y012312D02*
X024211Y012312D01*
X024093Y012213D02*
X019908Y012213D01*
X019908Y012115D02*
X024020Y012115D01*
X023980Y012016D02*
X019908Y012016D01*
X019908Y011918D02*
X023965Y011918D01*
X023965Y011819D02*
X020132Y011819D01*
X020238Y011721D02*
X023991Y011721D01*
X024032Y011622D02*
X020291Y011622D01*
X020321Y011524D02*
X024120Y011524D01*
X024278Y011425D02*
X020321Y011425D01*
X020296Y011327D02*
X030871Y011327D01*
X030969Y011425D02*
X024632Y011425D01*
X024789Y011524D02*
X031068Y011524D01*
X031166Y011622D02*
X024877Y011622D01*
X024918Y011721D02*
X031265Y011721D01*
X031363Y011819D02*
X024945Y011819D01*
X024945Y011918D02*
X031462Y011918D01*
X031560Y012016D02*
X024929Y012016D01*
X024889Y012115D02*
X029771Y012115D01*
X029615Y012213D02*
X024817Y012213D01*
X022006Y009652D02*
X029196Y009652D01*
X029295Y009751D02*
X008503Y009751D01*
X008503Y009694D02*
X008425Y009405D01*
X008275Y009145D01*
X008063Y008933D01*
X007804Y008783D01*
X007514Y008705D01*
X007214Y008705D01*
X006924Y008783D01*
X006665Y008933D01*
X006453Y009145D01*
X006303Y009405D01*
X006225Y009694D01*
X006225Y009994D01*
X006303Y010284D01*
X006453Y010544D01*
X006665Y010756D01*
X006924Y010906D01*
X007214Y010983D01*
X007514Y010983D01*
X007804Y010906D01*
X008063Y010756D01*
X008275Y010544D01*
X008425Y010284D01*
X008503Y009994D01*
X008503Y009694D01*
X008492Y009652D02*
X019600Y009652D01*
X019501Y009554D02*
X008465Y009554D01*
X008439Y009455D02*
X019403Y009455D01*
X019304Y009357D02*
X008398Y009357D01*
X008341Y009258D02*
X019206Y009258D01*
X019107Y009160D02*
X008284Y009160D01*
X008192Y009061D02*
X019009Y009061D01*
X018932Y008963D02*
X017902Y008963D01*
X017878Y008973D02*
X017716Y008973D01*
X017566Y008911D01*
X017451Y008796D01*
X017389Y008646D01*
X017389Y008524D01*
X017296Y008431D01*
X006820Y008431D01*
X006725Y008391D01*
X006420Y008087D01*
X006299Y008087D01*
X006149Y008025D01*
X006034Y007910D01*
X005972Y007760D01*
X005972Y007598D01*
X006034Y007448D01*
X006149Y007333D01*
X006299Y007271D01*
X006461Y007271D01*
X006611Y007333D01*
X006726Y007448D01*
X006788Y007598D01*
X006788Y007719D01*
X006980Y007911D01*
X017455Y007911D01*
X017551Y007951D01*
X017624Y008024D01*
X017757Y008157D01*
X017878Y008157D01*
X018028Y008219D01*
X018143Y008333D01*
X018205Y008483D01*
X018205Y008646D01*
X018143Y008796D01*
X018028Y008911D01*
X017878Y008973D01*
X017692Y008963D02*
X008093Y008963D01*
X007945Y008864D02*
X017520Y008864D01*
X017439Y008766D02*
X007740Y008766D01*
X006988Y008766D02*
X001121Y008766D01*
X001121Y008864D02*
X006783Y008864D01*
X006635Y008963D02*
X001121Y008963D01*
X001121Y009061D02*
X006536Y009061D01*
X006444Y009160D02*
X001121Y009160D01*
X001121Y009258D02*
X006387Y009258D01*
X006330Y009357D02*
X001121Y009357D01*
X001121Y009455D02*
X006289Y009455D01*
X006263Y009554D02*
X001121Y009554D01*
X001121Y009652D02*
X006236Y009652D01*
X006225Y009751D02*
X001121Y009751D01*
X001121Y009849D02*
X006225Y009849D01*
X006225Y009948D02*
X001121Y009948D01*
X001121Y010046D02*
X006239Y010046D01*
X006265Y010145D02*
X001121Y010145D01*
X001121Y010243D02*
X006292Y010243D01*
X006336Y010342D02*
X001121Y010342D01*
X001121Y010440D02*
X006393Y010440D01*
X006450Y010539D02*
X001121Y010539D01*
X001121Y010637D02*
X006546Y010637D01*
X006645Y010736D02*
X001121Y010736D01*
X001121Y010834D02*
X006801Y010834D01*
X007026Y010933D02*
X001121Y010933D01*
X001121Y011031D02*
X010647Y011031D01*
X010647Y010933D02*
X007702Y010933D01*
X007927Y010834D02*
X010647Y010834D01*
X010647Y010736D02*
X008083Y010736D01*
X008182Y010637D02*
X010647Y010637D01*
X010647Y010555D02*
X010561Y010469D01*
X010499Y010319D01*
X010499Y010157D01*
X010561Y010007D01*
X010676Y009892D01*
X010826Y009830D01*
X010989Y009830D01*
X011139Y009892D01*
X011253Y010007D01*
X011315Y010157D01*
X011315Y010319D01*
X011253Y010469D01*
X011167Y010555D01*
X011167Y011299D01*
X011253Y011385D01*
X011315Y011535D01*
X011315Y011697D01*
X011253Y011847D01*
X011139Y011962D01*
X010989Y012024D01*
X010826Y012024D01*
X010676Y011962D01*
X010561Y011847D01*
X010499Y011697D01*
X010499Y011535D01*
X010561Y011385D01*
X010647Y011299D01*
X010647Y010555D01*
X010631Y010539D02*
X008278Y010539D01*
X008335Y010440D02*
X010549Y010440D01*
X010509Y010342D02*
X008392Y010342D01*
X008436Y010243D02*
X010499Y010243D01*
X010504Y010145D02*
X008463Y010145D01*
X008489Y010046D02*
X010545Y010046D01*
X010620Y009948D02*
X008503Y009948D01*
X008503Y009849D02*
X010779Y009849D01*
X011036Y009849D02*
X015148Y009849D01*
X015155Y009843D02*
X015305Y009781D01*
X015467Y009781D01*
X015617Y009843D01*
X015703Y009929D01*
X016889Y009929D01*
X016975Y009843D01*
X017125Y009781D01*
X017288Y009781D01*
X017438Y009843D01*
X017553Y009957D01*
X017615Y010107D01*
X017615Y010270D01*
X017553Y010420D01*
X017438Y010535D01*
X017288Y010597D01*
X017125Y010597D01*
X016975Y010535D01*
X016889Y010449D01*
X015703Y010449D01*
X015617Y010535D01*
X015467Y010597D01*
X015305Y010597D01*
X015155Y010535D01*
X015040Y010420D01*
X014978Y010270D01*
X014978Y010107D01*
X015040Y009957D01*
X015155Y009843D01*
X015049Y009948D02*
X011194Y009948D01*
X011270Y010046D02*
X015003Y010046D01*
X014978Y010145D02*
X011311Y010145D01*
X011315Y010243D02*
X014978Y010243D01*
X015007Y010342D02*
X011306Y010342D01*
X011265Y010440D02*
X015060Y010440D01*
X015165Y010539D02*
X011184Y010539D01*
X011167Y010637D02*
X019516Y010637D01*
X019537Y010646D02*
X019387Y010584D01*
X019272Y010469D01*
X019210Y010319D01*
X019210Y010157D01*
X019272Y010007D01*
X019387Y009892D01*
X019537Y009830D01*
X019699Y009830D01*
X019849Y009892D01*
X019900Y009943D01*
X020103Y009943D01*
X020303Y009943D01*
X020426Y010066D01*
X020426Y010321D01*
X020505Y010400D01*
X020567Y010550D01*
X020567Y010713D01*
X020505Y010863D01*
X020390Y010978D01*
X020240Y011040D01*
X020078Y011040D01*
X019928Y010978D01*
X019813Y010863D01*
X019751Y010713D01*
X019751Y010624D01*
X019699Y010646D01*
X019537Y010646D01*
X019720Y010637D02*
X019751Y010637D01*
X019761Y010736D02*
X011167Y010736D01*
X011167Y010834D02*
X019802Y010834D01*
X019883Y010933D02*
X011167Y010933D01*
X011167Y011031D02*
X020058Y011031D01*
X020152Y011130D02*
X030674Y011130D01*
X030772Y011228D02*
X020250Y011228D01*
X020261Y011031D02*
X030575Y011031D01*
X030477Y010933D02*
X020435Y010933D01*
X020517Y010834D02*
X030378Y010834D01*
X030280Y010736D02*
X020558Y010736D01*
X020567Y010637D02*
X030181Y010637D01*
X030083Y010539D02*
X020563Y010539D01*
X020522Y010440D02*
X029984Y010440D01*
X029886Y010342D02*
X020447Y010342D01*
X020426Y010243D02*
X029787Y010243D01*
X029689Y010145D02*
X020426Y010145D01*
X020406Y010046D02*
X029590Y010046D01*
X029492Y009948D02*
X020308Y009948D01*
X020161Y010238D02*
X020161Y010630D01*
X020159Y010632D01*
X019960Y010238D02*
X019618Y010238D01*
X019210Y010243D02*
X017615Y010243D01*
X017615Y010145D02*
X019215Y010145D01*
X019256Y010046D02*
X017589Y010046D01*
X017543Y009948D02*
X019331Y009948D01*
X019490Y009849D02*
X017444Y009849D01*
X017207Y010189D02*
X015386Y010189D01*
X015607Y010539D02*
X016985Y010539D01*
X017428Y010539D02*
X019342Y010539D01*
X019260Y010440D02*
X017532Y010440D01*
X017585Y010342D02*
X019219Y010342D01*
X019746Y009849D02*
X029393Y009849D01*
X029214Y009303D02*
X033545Y013634D01*
X034923Y013634D01*
X034407Y013100D02*
X034310Y013100D01*
X034310Y013175D02*
X034310Y012723D01*
X033858Y012723D01*
X033858Y012882D01*
X034151Y013175D01*
X034310Y013175D01*
X034310Y013001D02*
X034407Y013001D01*
X034407Y012903D02*
X034310Y012903D01*
X034310Y012804D02*
X034407Y012804D01*
X034310Y012706D02*
X033330Y012706D01*
X033428Y012804D02*
X033858Y012804D01*
X033879Y012903D02*
X033527Y012903D01*
X033625Y013001D02*
X033977Y013001D01*
X034076Y013100D02*
X033724Y013100D01*
X033858Y012607D02*
X033231Y012607D01*
X033133Y012509D02*
X033858Y012509D01*
X033916Y012410D02*
X033034Y012410D01*
X032936Y012312D02*
X034014Y012312D01*
X034254Y011031D02*
X031655Y011031D01*
X031659Y012115D02*
X030036Y012115D01*
X030192Y012213D02*
X031757Y012213D01*
X031856Y012312D02*
X030266Y012312D01*
X030307Y012410D02*
X031954Y012410D01*
X032053Y012509D02*
X030312Y012509D01*
X030301Y012607D02*
X032151Y012607D01*
X032250Y012706D02*
X030261Y012706D01*
X030193Y012804D02*
X032348Y012804D01*
X032447Y012903D02*
X030193Y012903D01*
X030193Y013001D02*
X032545Y013001D01*
X032644Y013100D02*
X030193Y013100D01*
X030193Y013198D02*
X032742Y013198D01*
X032841Y013297D02*
X030193Y013297D01*
X030193Y013395D02*
X032939Y013395D01*
X033038Y013494D02*
X030193Y013494D01*
X030193Y013592D02*
X033136Y013592D01*
X033235Y013691D02*
X030193Y013691D01*
X030193Y013789D02*
X033333Y013789D01*
X033863Y014873D02*
X029998Y014873D01*
X029809Y014873D02*
X019908Y014873D01*
X019909Y014971D02*
X034041Y014971D01*
X034230Y014971D02*
X035893Y014971D01*
X035795Y014873D02*
X034409Y014873D01*
X034073Y015168D02*
X019977Y015168D01*
X019953Y015070D02*
X035992Y015070D01*
X036073Y015168D02*
X035644Y015168D01*
X035742Y015267D02*
X035974Y015267D01*
X035876Y015365D02*
X035841Y015365D01*
X035358Y015675D02*
X035358Y015905D01*
X035071Y016193D01*
X033838Y018025D02*
X037749Y018025D01*
X037823Y017926D02*
X033688Y017926D01*
X033149Y018419D02*
X003958Y018419D01*
X004023Y018517D02*
X033190Y018517D01*
X033275Y018616D02*
X004023Y018616D01*
X004023Y018714D02*
X033401Y018714D01*
X033251Y018813D02*
X004023Y018813D01*
X004002Y018911D02*
X033180Y018911D01*
X033139Y019010D02*
X003903Y019010D01*
X003262Y019108D02*
X002805Y019108D01*
X002903Y019010D02*
X003163Y019010D01*
X003065Y018911D02*
X003002Y018911D01*
X003023Y018813D02*
X003043Y018813D01*
X003043Y018714D02*
X003023Y018714D01*
X003023Y018616D02*
X003043Y018616D01*
X003043Y018517D02*
X003023Y018517D01*
X002958Y018419D02*
X003108Y018419D01*
X003207Y018320D02*
X002860Y018320D01*
X002305Y018222D02*
X001121Y018222D01*
X001121Y018320D02*
X002207Y018320D01*
X002108Y018419D02*
X001121Y018419D01*
X001121Y018517D02*
X002043Y018517D01*
X002043Y018616D02*
X001121Y018616D01*
X001121Y018714D02*
X002043Y018714D01*
X002043Y018813D02*
X001121Y018813D01*
X001121Y018911D02*
X002065Y018911D01*
X002163Y019010D02*
X001121Y019010D01*
X001121Y019108D02*
X002262Y019108D01*
X002320Y019207D02*
X001121Y019207D01*
X001121Y019305D02*
X002222Y019305D01*
X002123Y019404D02*
X001121Y019404D01*
X001121Y019502D02*
X002043Y019502D01*
X002043Y019601D02*
X001121Y019601D01*
X001121Y019699D02*
X002043Y019699D01*
X002043Y019798D02*
X001121Y019798D01*
X001121Y019896D02*
X002050Y019896D01*
X002148Y019995D02*
X001121Y019995D01*
X001121Y020093D02*
X002247Y020093D01*
X002330Y020197D02*
X002736Y020197D01*
X003023Y020484D01*
X003023Y020890D01*
X002736Y021177D01*
X002330Y021177D01*
X002043Y020890D01*
X002043Y020484D01*
X002330Y020197D01*
X002237Y020290D02*
X001121Y020290D01*
X001121Y020192D02*
X033276Y020192D01*
X033545Y019884D02*
X036596Y019884D01*
X036990Y020277D01*
X038212Y020277D01*
X038220Y020285D01*
X038197Y021261D02*
X038220Y021285D01*
X038146Y021360D01*
X036990Y021360D01*
X036301Y020671D01*
X033447Y020671D01*
X033715Y020980D02*
X036242Y020980D01*
X036341Y021078D02*
X033530Y021078D01*
X033364Y021078D02*
X030948Y021078D01*
X030973Y021103D02*
X031064Y021323D01*
X031064Y021562D01*
X030973Y021782D01*
X030804Y021951D01*
X030583Y022043D01*
X029565Y022043D01*
X029344Y021951D01*
X029175Y021782D01*
X029084Y021562D01*
X029084Y021323D01*
X029175Y021103D01*
X029344Y020934D01*
X029565Y020843D01*
X030583Y020843D01*
X030804Y020934D01*
X030973Y021103D01*
X031003Y021177D02*
X036439Y021177D01*
X036538Y021275D02*
X031044Y021275D01*
X031064Y021374D02*
X036636Y021374D01*
X036735Y021472D02*
X031064Y021472D01*
X031060Y021571D02*
X036833Y021571D01*
X037848Y021669D02*
X031019Y021669D01*
X030979Y021768D02*
X037988Y021768D01*
X037883Y021866D02*
X030889Y021866D01*
X030771Y021965D02*
X037784Y021965D01*
X037733Y022063D02*
X003850Y022063D01*
X003948Y021965D02*
X009498Y021965D01*
X009380Y021866D02*
X004023Y021866D01*
X004023Y021890D02*
X003736Y022177D01*
X003330Y022177D01*
X003043Y021890D01*
X003043Y021484D01*
X003330Y021197D01*
X003736Y021197D01*
X004023Y021484D01*
X004023Y021890D01*
X004023Y021768D02*
X009290Y021768D01*
X009249Y021669D02*
X004023Y021669D01*
X004023Y021571D02*
X009208Y021571D01*
X009205Y021472D02*
X004012Y021472D01*
X003913Y021374D02*
X009205Y021374D01*
X009225Y021275D02*
X003815Y021275D01*
X003252Y021275D02*
X002815Y021275D01*
X002913Y021374D02*
X003153Y021374D01*
X003055Y021472D02*
X003012Y021472D01*
X003023Y021571D02*
X003043Y021571D01*
X003043Y021669D02*
X003023Y021669D01*
X003023Y021768D02*
X003043Y021768D01*
X003043Y021866D02*
X003023Y021866D01*
X002948Y021965D02*
X003118Y021965D01*
X003217Y022063D02*
X002850Y022063D01*
X002751Y022162D02*
X003315Y022162D01*
X003751Y022162D02*
X037693Y022162D01*
X039163Y024230D02*
X039198Y024230D01*
X039198Y024329D02*
X039065Y024329D01*
X038966Y024427D02*
X039198Y024427D01*
X039198Y024526D02*
X038868Y024526D01*
X038647Y024624D02*
X039198Y024624D01*
X039198Y024723D02*
X038549Y024723D01*
X038554Y024920D02*
X039198Y024920D01*
X039198Y025018D02*
X038639Y025018D01*
X038687Y025117D02*
X039198Y025117D01*
X039198Y025215D02*
X038711Y025215D01*
X038695Y025412D02*
X039198Y025412D01*
X039198Y025314D02*
X038290Y025314D01*
X038290Y025412D02*
X038190Y025412D01*
X038190Y025327D02*
X038190Y025750D01*
X038129Y025740D01*
X038058Y025717D01*
X037991Y025683D01*
X037931Y025639D01*
X037878Y025587D01*
X037834Y025526D01*
X037800Y025459D01*
X037777Y025388D01*
X037767Y025327D01*
X038190Y025327D01*
X038190Y025314D02*
X036314Y025314D01*
X036314Y025412D02*
X037785Y025412D01*
X037826Y025511D02*
X036314Y025511D01*
X036314Y025609D02*
X037901Y025609D01*
X038039Y025708D02*
X036314Y025708D01*
X036314Y025806D02*
X039198Y025806D01*
X039198Y025708D02*
X038441Y025708D01*
X038290Y025708D02*
X038190Y025708D01*
X038190Y025609D02*
X038290Y025609D01*
X038290Y025511D02*
X038190Y025511D01*
X038579Y025609D02*
X039198Y025609D01*
X039198Y025511D02*
X038654Y025511D01*
X039198Y025905D02*
X036314Y025905D01*
X036314Y026003D02*
X039198Y026003D01*
X039198Y026102D02*
X036314Y026102D01*
X036314Y026200D02*
X039198Y026200D01*
X039198Y026299D02*
X036314Y026299D01*
X036314Y026397D02*
X039198Y026397D01*
X039198Y026496D02*
X036314Y026496D01*
X036314Y026594D02*
X039198Y026594D01*
X039198Y026693D02*
X036314Y026693D01*
X036314Y026791D02*
X039198Y026791D01*
X039198Y026890D02*
X036314Y026890D01*
X036314Y026988D02*
X039198Y026988D01*
X039198Y027087D02*
X036314Y027087D01*
X036314Y027185D02*
X039198Y027185D01*
X039198Y027284D02*
X036314Y027284D01*
X036314Y027382D02*
X039198Y027382D01*
X039198Y027481D02*
X036314Y027481D01*
X036314Y027579D02*
X039198Y027579D01*
X039198Y027678D02*
X036314Y027678D01*
X036314Y027776D02*
X039198Y027776D01*
X039198Y027875D02*
X036314Y027875D01*
X036314Y027973D02*
X039198Y027973D01*
X039198Y028072D02*
X036314Y028072D01*
X036314Y028170D02*
X039198Y028170D01*
X039198Y028269D02*
X036314Y028269D01*
X036314Y028367D02*
X039198Y028367D01*
X039198Y028466D02*
X036314Y028466D01*
X036314Y028564D02*
X039198Y028564D01*
X039198Y028663D02*
X036314Y028663D01*
X036314Y028761D02*
X039198Y028761D01*
X039198Y028860D02*
X036314Y028860D01*
X036314Y028958D02*
X039198Y028958D01*
X039198Y029057D02*
X036314Y029057D01*
X036314Y029155D02*
X039198Y029155D01*
X039198Y029254D02*
X036314Y029254D01*
X036314Y029352D02*
X039198Y029352D01*
X039198Y029451D02*
X036314Y029451D01*
X036314Y029549D02*
X039198Y029549D01*
X039198Y029648D02*
X036314Y029648D01*
X036314Y029746D02*
X039198Y029746D01*
X039198Y029845D02*
X036314Y029845D01*
X036314Y029943D02*
X039198Y029943D01*
X039198Y030042D02*
X036314Y030042D01*
X036314Y030140D02*
X039198Y030140D01*
X039198Y030239D02*
X036314Y030239D01*
X036314Y030337D02*
X039198Y030337D01*
X039198Y030436D02*
X036314Y030436D01*
X036314Y030534D02*
X039198Y030534D01*
X039198Y030633D02*
X036314Y030633D01*
X036314Y030731D02*
X039198Y030731D01*
X039198Y030830D02*
X036314Y030830D01*
X036314Y030928D02*
X039198Y030928D01*
X039198Y031027D02*
X036314Y031027D01*
X036314Y031125D02*
X039198Y031125D01*
X039198Y031224D02*
X036314Y031224D01*
X036314Y031322D02*
X039198Y031322D01*
X039198Y031421D02*
X036314Y031421D01*
X036314Y031519D02*
X039198Y031519D01*
X039198Y031618D02*
X036314Y031618D01*
X036314Y031716D02*
X039198Y031716D01*
X039198Y031815D02*
X036314Y031815D01*
X036314Y031913D02*
X039198Y031913D01*
X039198Y032012D02*
X036314Y032012D01*
X036314Y032110D02*
X039198Y032110D01*
X039198Y032209D02*
X036314Y032209D01*
X036314Y025215D02*
X037769Y025215D01*
X037793Y025117D02*
X036314Y025117D01*
X036314Y025018D02*
X037841Y025018D01*
X037926Y024920D02*
X036314Y024920D01*
X036314Y024821D02*
X038107Y024821D01*
X037923Y024723D02*
X036314Y024723D01*
X036221Y024624D02*
X037825Y024624D01*
X038373Y024821D02*
X039198Y024821D01*
X033178Y020980D02*
X030850Y020980D01*
X030677Y020881D02*
X033092Y020881D01*
X029471Y020881D02*
X027727Y020881D01*
X027633Y020843D02*
X027854Y020934D01*
X028023Y021103D01*
X028114Y021323D01*
X028114Y021562D01*
X028023Y021782D01*
X027854Y021951D01*
X027633Y022043D01*
X026615Y022043D01*
X026394Y021951D01*
X026225Y021782D01*
X026134Y021562D01*
X026134Y021323D01*
X026225Y021103D01*
X026394Y020934D01*
X026615Y020843D01*
X027633Y020843D01*
X027900Y020980D02*
X029298Y020980D01*
X029200Y021078D02*
X027998Y021078D01*
X028053Y021177D02*
X029145Y021177D01*
X029104Y021275D02*
X028094Y021275D01*
X028114Y021374D02*
X029084Y021374D01*
X029084Y021472D02*
X028114Y021472D01*
X028110Y021571D02*
X029088Y021571D01*
X029128Y021669D02*
X028069Y021669D01*
X028029Y021768D02*
X029169Y021768D01*
X029259Y021866D02*
X027939Y021866D01*
X027821Y021965D02*
X029377Y021965D01*
X026427Y021965D02*
X025259Y021965D01*
X025292Y021951D02*
X025071Y022043D01*
X024053Y022043D01*
X023832Y021951D01*
X023663Y021782D01*
X023572Y021562D01*
X023572Y021323D01*
X023663Y021103D01*
X023832Y020934D01*
X024053Y020843D01*
X025071Y020843D01*
X025292Y020934D01*
X025461Y021103D01*
X025552Y021323D01*
X025552Y021562D01*
X025461Y021782D01*
X025292Y021951D01*
X025377Y021866D02*
X026309Y021866D01*
X026219Y021768D02*
X025467Y021768D01*
X025508Y021669D02*
X026178Y021669D01*
X026138Y021571D02*
X025548Y021571D01*
X025552Y021472D02*
X026134Y021472D01*
X026134Y021374D02*
X025552Y021374D01*
X025532Y021275D02*
X026154Y021275D01*
X026195Y021177D02*
X025491Y021177D01*
X025436Y021078D02*
X026250Y021078D01*
X026348Y020980D02*
X025338Y020980D01*
X025165Y020881D02*
X026521Y020881D01*
X023959Y020881D02*
X022215Y020881D01*
X022121Y020843D02*
X022342Y020934D01*
X022511Y021103D01*
X022602Y021323D01*
X022602Y021562D01*
X022511Y021782D01*
X022342Y021951D01*
X022121Y022043D01*
X021103Y022043D01*
X020882Y021951D01*
X020713Y021782D01*
X020622Y021562D01*
X020622Y021323D01*
X020713Y021103D01*
X020882Y020934D01*
X021103Y020843D01*
X022121Y020843D01*
X022388Y020980D02*
X023786Y020980D01*
X023688Y021078D02*
X022486Y021078D01*
X022541Y021177D02*
X023633Y021177D01*
X023592Y021275D02*
X022582Y021275D01*
X022602Y021374D02*
X023572Y021374D01*
X023572Y021472D02*
X022602Y021472D01*
X022598Y021571D02*
X023576Y021571D01*
X023617Y021669D02*
X022558Y021669D01*
X022517Y021768D02*
X023657Y021768D01*
X023747Y021866D02*
X022427Y021866D01*
X022309Y021965D02*
X023865Y021965D01*
X020915Y021965D02*
X019354Y021965D01*
X019386Y021951D02*
X019166Y022043D01*
X018147Y022043D01*
X017927Y021951D01*
X017758Y021782D01*
X017667Y021562D01*
X017667Y021323D01*
X017758Y021103D01*
X017927Y020934D01*
X018147Y020843D01*
X019166Y020843D01*
X019386Y020934D01*
X019555Y021103D01*
X019647Y021323D01*
X019647Y021562D01*
X019555Y021782D01*
X019386Y021951D01*
X019471Y021866D02*
X020797Y021866D01*
X020707Y021768D02*
X019561Y021768D01*
X019602Y021669D02*
X020667Y021669D01*
X020626Y021571D02*
X019643Y021571D01*
X019647Y021472D02*
X020622Y021472D01*
X020622Y021374D02*
X019647Y021374D01*
X019627Y021275D02*
X020642Y021275D01*
X020683Y021177D02*
X019586Y021177D01*
X019531Y021078D02*
X020738Y021078D01*
X020836Y020980D02*
X019432Y020980D01*
X019259Y020881D02*
X021009Y020881D01*
X018054Y020881D02*
X016309Y020881D01*
X016216Y020843D02*
X016436Y020934D01*
X016605Y021103D01*
X016697Y021323D01*
X016697Y021562D01*
X016605Y021782D01*
X016436Y021951D01*
X016216Y022043D01*
X015197Y022043D01*
X014977Y021951D01*
X014808Y021782D01*
X014717Y021562D01*
X014717Y021323D01*
X014808Y021103D01*
X014977Y020934D01*
X015197Y020843D01*
X016216Y020843D01*
X016482Y020980D02*
X017881Y020980D01*
X017782Y021078D02*
X016581Y021078D01*
X016636Y021177D02*
X017727Y021177D01*
X017686Y021275D02*
X016677Y021275D01*
X016697Y021374D02*
X017667Y021374D01*
X017667Y021472D02*
X016697Y021472D01*
X016693Y021571D02*
X017670Y021571D01*
X017711Y021669D02*
X016652Y021669D01*
X016611Y021768D02*
X017752Y021768D01*
X017842Y021866D02*
X016521Y021866D01*
X016404Y021965D02*
X017959Y021965D01*
X015009Y021965D02*
X013842Y021965D01*
X013875Y021951D02*
X013654Y022043D01*
X012635Y022043D01*
X012415Y021951D01*
X012246Y021782D01*
X012155Y021562D01*
X012155Y021323D01*
X012246Y021103D01*
X012415Y020934D01*
X012635Y020843D01*
X013654Y020843D01*
X013875Y020934D01*
X014043Y021103D01*
X014135Y021323D01*
X014135Y021562D01*
X014043Y021782D01*
X013875Y021951D01*
X013960Y021866D02*
X014892Y021866D01*
X014802Y021768D02*
X014049Y021768D01*
X014090Y021669D02*
X014761Y021669D01*
X014720Y021571D02*
X014131Y021571D01*
X014135Y021472D02*
X014717Y021472D01*
X014717Y021374D02*
X014135Y021374D01*
X014115Y021275D02*
X014736Y021275D01*
X014777Y021177D02*
X014074Y021177D01*
X014019Y021078D02*
X014832Y021078D01*
X014931Y020980D02*
X013920Y020980D01*
X013748Y020881D02*
X015104Y020881D01*
X012542Y020881D02*
X010798Y020881D01*
X010970Y020980D02*
X012369Y020980D01*
X012271Y021078D02*
X011069Y021078D01*
X011124Y021177D02*
X012215Y021177D01*
X012175Y021275D02*
X011165Y021275D01*
X011185Y021374D02*
X012155Y021374D01*
X012155Y021472D02*
X011185Y021472D01*
X011181Y021571D02*
X012158Y021571D01*
X012199Y021669D02*
X011140Y021669D01*
X011099Y021768D02*
X012240Y021768D01*
X012330Y021866D02*
X011010Y021866D01*
X010892Y021965D02*
X012448Y021965D01*
X017979Y015562D02*
X001121Y015562D01*
X001121Y015464D02*
X017869Y015464D01*
X017814Y015365D02*
X001121Y015365D01*
X001121Y015267D02*
X017783Y015267D01*
X017783Y015168D02*
X001121Y015168D01*
X001121Y015070D02*
X017806Y015070D01*
X017851Y014971D02*
X001121Y014971D01*
X001121Y014873D02*
X017949Y014873D01*
X018432Y014873D02*
X019327Y014873D01*
X019328Y014774D02*
X001121Y014774D01*
X001121Y014676D02*
X019328Y014676D01*
X019328Y014577D02*
X001121Y014577D01*
X001121Y014479D02*
X019328Y014479D01*
X019328Y014380D02*
X001121Y014380D01*
X001121Y014282D02*
X019328Y014282D01*
X019328Y014183D02*
X001121Y014183D01*
X001121Y014085D02*
X019328Y014085D01*
X019328Y013986D02*
X001121Y013986D01*
X001121Y013888D02*
X019328Y013888D01*
X019328Y013789D02*
X001121Y013789D01*
X001121Y013691D02*
X019328Y013691D01*
X019328Y013592D02*
X001121Y013592D01*
X001121Y013494D02*
X019328Y013494D01*
X019328Y013395D02*
X001121Y013395D01*
X001121Y013297D02*
X019328Y013297D01*
X019328Y013198D02*
X001121Y013198D01*
X001121Y013100D02*
X019328Y013100D01*
X019328Y013001D02*
X001121Y013001D01*
X001121Y012903D02*
X019328Y012903D01*
X019328Y012804D02*
X001121Y012804D01*
X001121Y012706D02*
X019328Y012706D01*
X019328Y012607D02*
X001121Y012607D01*
X001121Y012509D02*
X019328Y012509D01*
X019328Y012410D02*
X001121Y012410D01*
X001121Y012312D02*
X019328Y012312D01*
X019328Y012213D02*
X001121Y012213D01*
X001121Y012115D02*
X019328Y012115D01*
X019328Y012016D02*
X011007Y012016D01*
X010808Y012016D02*
X001121Y012016D01*
X001121Y011918D02*
X010632Y011918D01*
X010550Y011819D02*
X001121Y011819D01*
X001121Y011721D02*
X010509Y011721D01*
X010499Y011622D02*
X001121Y011622D01*
X001121Y011524D02*
X010504Y011524D01*
X010545Y011425D02*
X001121Y011425D01*
X001121Y011327D02*
X010619Y011327D01*
X010647Y011228D02*
X001121Y011228D01*
X001121Y011130D02*
X010647Y011130D01*
X011167Y011130D02*
X019675Y011130D01*
X019576Y011228D02*
X011167Y011228D01*
X011195Y011327D02*
X019530Y011327D01*
X019505Y011425D02*
X011270Y011425D01*
X011311Y011524D02*
X019448Y011524D01*
X019363Y011622D02*
X011315Y011622D01*
X011306Y011721D02*
X019328Y011721D01*
X019328Y011819D02*
X011265Y011819D01*
X011183Y011918D02*
X019328Y011918D01*
X019908Y012509D02*
X029495Y012509D01*
X029505Y012607D02*
X019908Y012607D01*
X019908Y012706D02*
X029546Y012706D01*
X029613Y012804D02*
X019908Y012804D01*
X019908Y012903D02*
X029613Y012903D01*
X029613Y013001D02*
X019908Y013001D01*
X019908Y013100D02*
X029613Y013100D01*
X029613Y013198D02*
X019908Y013198D01*
X019908Y014282D02*
X029540Y014282D01*
X029499Y014380D02*
X019908Y014380D01*
X019908Y014479D02*
X029495Y014479D01*
X029506Y014577D02*
X019908Y014577D01*
X019908Y014676D02*
X029547Y014676D01*
X029630Y014774D02*
X019908Y014774D01*
X019357Y015562D02*
X018403Y015562D01*
X016969Y009849D02*
X015623Y009849D01*
X017398Y008667D02*
X004025Y008667D01*
X004197Y008569D02*
X017389Y008569D01*
X017335Y008470D02*
X004278Y008470D01*
X004318Y008372D02*
X006705Y008372D01*
X006607Y008273D02*
X004382Y008273D01*
X004480Y008175D02*
X006508Y008175D01*
X006273Y008076D02*
X004579Y008076D01*
X004677Y007978D02*
X006102Y007978D01*
X006021Y007879D02*
X004776Y007879D01*
X004874Y007781D02*
X005980Y007781D01*
X005972Y007682D02*
X004973Y007682D01*
X005022Y007584D02*
X005977Y007584D01*
X006018Y007485D02*
X005037Y007485D01*
X005037Y007387D02*
X006095Y007387D01*
X006256Y007288D02*
X005037Y007288D01*
X005037Y007190D02*
X014713Y007190D01*
X014695Y007172D02*
X014633Y007022D01*
X014633Y006859D01*
X014695Y006709D01*
X014810Y006595D01*
X014960Y006533D01*
X015122Y006533D01*
X015272Y006595D01*
X015358Y006681D01*
X015531Y006681D01*
X015450Y006647D01*
X015335Y006532D01*
X015273Y006382D01*
X015273Y006220D01*
X015335Y006070D01*
X015450Y005955D01*
X015600Y005893D01*
X015721Y005893D01*
X016405Y005209D01*
X016405Y005088D01*
X016467Y004938D01*
X016582Y004823D01*
X016732Y004761D01*
X016894Y004761D01*
X017044Y004823D01*
X017159Y004938D01*
X017221Y005088D01*
X017221Y005250D01*
X017159Y005400D01*
X017044Y005515D01*
X016894Y005577D01*
X016772Y005577D01*
X016089Y006260D01*
X016089Y006382D01*
X016027Y006532D01*
X015912Y006647D01*
X015831Y006681D01*
X017357Y006681D01*
X017452Y006720D01*
X017757Y007025D01*
X017878Y007025D01*
X018028Y007087D01*
X018143Y007202D01*
X018205Y007352D01*
X018205Y007514D01*
X018143Y007664D01*
X018028Y007779D01*
X017878Y007841D01*
X017716Y007841D01*
X017566Y007779D01*
X017451Y007664D01*
X017389Y007514D01*
X017389Y007392D01*
X017197Y007201D01*
X015358Y007201D01*
X015272Y007287D01*
X015122Y007349D01*
X014960Y007349D01*
X014810Y007287D01*
X014695Y007172D01*
X014662Y007091D02*
X005037Y007091D01*
X005037Y006993D02*
X014633Y006993D01*
X014633Y006894D02*
X005037Y006894D01*
X005037Y006796D02*
X014659Y006796D01*
X014707Y006697D02*
X005037Y006697D01*
X005037Y006599D02*
X014806Y006599D01*
X015041Y006941D02*
X017305Y006941D01*
X017797Y007433D01*
X017418Y007584D02*
X006782Y007584D01*
X006788Y007682D02*
X017469Y007682D01*
X017571Y007781D02*
X006849Y007781D01*
X006948Y007879D02*
X018907Y007879D01*
X018907Y007781D02*
X018023Y007781D01*
X018125Y007682D02*
X018907Y007682D01*
X018907Y007584D02*
X018176Y007584D01*
X018205Y007485D02*
X018907Y007485D01*
X018907Y007387D02*
X018205Y007387D01*
X018179Y007288D02*
X018907Y007288D01*
X018907Y007190D02*
X018131Y007190D01*
X018033Y007091D02*
X018907Y007091D01*
X018907Y006993D02*
X017725Y006993D01*
X017626Y006894D02*
X018907Y006894D01*
X018907Y006796D02*
X017528Y006796D01*
X017397Y006697D02*
X018907Y006697D01*
X018907Y006599D02*
X015960Y006599D01*
X016040Y006500D02*
X018907Y006500D01*
X018791Y006402D02*
X016081Y006402D01*
X016089Y006303D02*
X018705Y006303D01*
X018664Y006205D02*
X016145Y006205D01*
X016243Y006106D02*
X018632Y006106D01*
X018632Y006008D02*
X016342Y006008D01*
X016440Y005909D02*
X018635Y005909D01*
X018676Y005811D02*
X016539Y005811D01*
X016637Y005712D02*
X018720Y005712D01*
X018818Y005614D02*
X016736Y005614D01*
X017043Y005515D02*
X018991Y005515D01*
X019343Y005515D02*
X019991Y005515D01*
X019818Y005614D02*
X019516Y005614D01*
X019614Y005712D02*
X019720Y005712D01*
X019676Y005811D02*
X019659Y005811D01*
X020343Y005515D02*
X021991Y005515D01*
X021818Y005614D02*
X021413Y005614D01*
X021530Y005712D02*
X021720Y005712D01*
X021676Y005811D02*
X021593Y005811D01*
X021630Y005909D02*
X021635Y005909D01*
X021607Y006205D02*
X021664Y006205D01*
X021705Y006303D02*
X021549Y006303D01*
X021451Y006402D02*
X021791Y006402D01*
X021926Y006500D02*
X020408Y006500D01*
X020543Y006402D02*
X020883Y006402D01*
X020785Y006303D02*
X020629Y006303D01*
X020670Y006205D02*
X020728Y006205D01*
X020704Y005909D02*
X020700Y005909D01*
X020659Y005811D02*
X020742Y005811D01*
X020805Y005712D02*
X020614Y005712D01*
X020516Y005614D02*
X020921Y005614D01*
X021117Y005614D02*
X021217Y005614D01*
X021217Y005712D02*
X021117Y005712D01*
X021117Y005811D02*
X021217Y005811D01*
X021217Y005909D02*
X021117Y005909D01*
X021117Y006106D02*
X021217Y006106D01*
X021217Y006205D02*
X021117Y006205D01*
X021117Y006303D02*
X021217Y006303D01*
X021217Y006402D02*
X021117Y006402D01*
X020001Y006894D02*
X022778Y006894D01*
X022926Y006500D02*
X022408Y006500D01*
X022543Y006402D02*
X022791Y006402D01*
X022705Y006303D02*
X022629Y006303D01*
X022659Y005811D02*
X022676Y005811D01*
X022720Y005712D02*
X022614Y005712D01*
X022516Y005614D02*
X022818Y005614D01*
X022991Y005515D02*
X022343Y005515D01*
X023343Y005515D02*
X028530Y005515D01*
X028527Y005507D02*
X028515Y005429D01*
X028515Y005087D01*
X028968Y005087D01*
X028968Y005890D01*
X028900Y005880D01*
X028825Y005855D01*
X028754Y005819D01*
X028690Y005773D01*
X028634Y005717D01*
X028588Y005653D01*
X028552Y005582D01*
X028527Y005507D01*
X028515Y005417D02*
X017142Y005417D01*
X017193Y005318D02*
X028515Y005318D01*
X028515Y005220D02*
X017221Y005220D01*
X017221Y005121D02*
X028515Y005121D01*
X028515Y004987D02*
X028515Y004645D01*
X028527Y004567D01*
X028552Y004492D01*
X028588Y004421D01*
X028634Y004357D01*
X028690Y004301D01*
X028754Y004255D01*
X028825Y004219D01*
X028900Y004194D01*
X028968Y004184D01*
X028968Y004987D01*
X029068Y004987D01*
X029068Y005087D01*
X029520Y005087D01*
X029520Y005429D01*
X029508Y005507D01*
X029483Y005582D01*
X029447Y005653D01*
X029401Y005717D01*
X029345Y005773D01*
X029281Y005819D01*
X029210Y005855D01*
X029135Y005880D01*
X029068Y005890D01*
X029068Y005087D01*
X028968Y005087D01*
X028968Y004987D01*
X028515Y004987D01*
X028515Y004924D02*
X017145Y004924D01*
X017194Y005023D02*
X028968Y005023D01*
X028968Y005121D02*
X029068Y005121D01*
X029068Y005023D02*
X030936Y005023D01*
X030936Y004987D02*
X030484Y004987D01*
X030484Y004645D01*
X030496Y004567D01*
X030520Y004492D01*
X030556Y004421D01*
X030603Y004357D01*
X030659Y004301D01*
X030723Y004255D01*
X030793Y004219D01*
X030868Y004194D01*
X030936Y004184D01*
X030936Y004987D01*
X030936Y005087D01*
X030484Y005087D01*
X030484Y005429D01*
X030496Y005507D01*
X030520Y005582D01*
X030556Y005653D01*
X030603Y005717D01*
X030659Y005773D01*
X030723Y005819D01*
X030793Y005855D01*
X030868Y005880D01*
X030936Y005890D01*
X030936Y005087D01*
X031036Y005087D01*
X031036Y005890D01*
X031104Y005880D01*
X031179Y005855D01*
X031249Y005819D01*
X031313Y005773D01*
X031369Y005717D01*
X031416Y005653D01*
X031452Y005582D01*
X031476Y005507D01*
X031489Y005429D01*
X031489Y005087D01*
X031036Y005087D01*
X031036Y004987D01*
X031036Y004184D01*
X031104Y004194D01*
X031179Y004219D01*
X031249Y004255D01*
X031313Y004301D01*
X031369Y004357D01*
X031416Y004421D01*
X031452Y004492D01*
X031476Y004567D01*
X031489Y004645D01*
X031489Y004987D01*
X031036Y004987D01*
X030936Y004987D01*
X030936Y004924D02*
X031036Y004924D01*
X031036Y004826D02*
X030936Y004826D01*
X030936Y004727D02*
X031036Y004727D01*
X031036Y004629D02*
X030936Y004629D01*
X030936Y004530D02*
X031036Y004530D01*
X031036Y004432D02*
X030936Y004432D01*
X030936Y004333D02*
X031036Y004333D01*
X031036Y004235D02*
X030936Y004235D01*
X030762Y004235D02*
X029242Y004235D01*
X029210Y004219D02*
X029281Y004255D01*
X029345Y004301D01*
X029401Y004357D01*
X029447Y004421D01*
X029483Y004492D01*
X029508Y004567D01*
X029520Y004645D01*
X029520Y004987D01*
X029068Y004987D01*
X029068Y004184D01*
X029135Y004194D01*
X029210Y004219D01*
X029068Y004235D02*
X028968Y004235D01*
X028968Y004333D02*
X029068Y004333D01*
X029068Y004432D02*
X028968Y004432D01*
X028968Y004530D02*
X029068Y004530D01*
X029068Y004629D02*
X028968Y004629D01*
X028968Y004727D02*
X029068Y004727D01*
X029068Y004826D02*
X028968Y004826D01*
X028968Y004924D02*
X029068Y004924D01*
X029068Y005220D02*
X028968Y005220D01*
X028968Y005318D02*
X029068Y005318D01*
X029068Y005417D02*
X028968Y005417D01*
X028968Y005515D02*
X029068Y005515D01*
X029068Y005614D02*
X028968Y005614D01*
X028968Y005712D02*
X029068Y005712D01*
X029068Y005811D02*
X028968Y005811D01*
X028742Y005811D02*
X023659Y005811D01*
X023700Y005909D02*
X032739Y005909D01*
X032636Y005866D02*
X032478Y005708D01*
X032392Y005501D01*
X032392Y004573D01*
X032478Y004366D01*
X032636Y004208D01*
X032843Y004122D01*
X033066Y004122D01*
X033273Y004208D01*
X033431Y004366D01*
X033517Y004573D01*
X033517Y005501D01*
X033431Y005708D01*
X033273Y005866D01*
X033066Y005952D01*
X032843Y005952D01*
X032636Y005866D01*
X032580Y005811D02*
X031261Y005811D01*
X031373Y005712D02*
X032482Y005712D01*
X032439Y005614D02*
X031436Y005614D01*
X031474Y005515D02*
X032398Y005515D01*
X032392Y005417D02*
X031489Y005417D01*
X031489Y005318D02*
X032392Y005318D01*
X032392Y005220D02*
X031489Y005220D01*
X031489Y005121D02*
X032392Y005121D01*
X032392Y005023D02*
X031036Y005023D01*
X031036Y005121D02*
X030936Y005121D01*
X030936Y005220D02*
X031036Y005220D01*
X031036Y005318D02*
X030936Y005318D01*
X030936Y005417D02*
X031036Y005417D01*
X031036Y005515D02*
X030936Y005515D01*
X030936Y005614D02*
X031036Y005614D01*
X031036Y005712D02*
X030936Y005712D01*
X030936Y005811D02*
X031036Y005811D01*
X030711Y005811D02*
X029293Y005811D01*
X029404Y005712D02*
X030599Y005712D01*
X030536Y005614D02*
X029467Y005614D01*
X029505Y005515D02*
X030499Y005515D01*
X030484Y005417D02*
X029520Y005417D01*
X029520Y005318D02*
X030484Y005318D01*
X030484Y005220D02*
X029520Y005220D01*
X029520Y005121D02*
X030484Y005121D01*
X030484Y004924D02*
X029520Y004924D01*
X029520Y004826D02*
X030484Y004826D01*
X030484Y004727D02*
X029520Y004727D01*
X029518Y004629D02*
X030486Y004629D01*
X030508Y004530D02*
X029496Y004530D01*
X029453Y004432D02*
X030551Y004432D01*
X030627Y004333D02*
X029377Y004333D01*
X028794Y004235D02*
X015584Y004235D01*
X015557Y004208D02*
X015715Y004366D01*
X015801Y004573D01*
X015801Y005501D01*
X015715Y005708D01*
X015557Y005866D01*
X015350Y005952D01*
X015126Y005952D01*
X014919Y005866D01*
X014761Y005708D01*
X014676Y005501D01*
X014676Y004573D01*
X014761Y004366D01*
X014919Y004208D01*
X015126Y004122D01*
X015350Y004122D01*
X015557Y004208D01*
X015682Y004333D02*
X028658Y004333D01*
X028582Y004432D02*
X015742Y004432D01*
X015783Y004530D02*
X028539Y004530D01*
X028518Y004629D02*
X015801Y004629D01*
X015801Y004727D02*
X028515Y004727D01*
X028515Y004826D02*
X017047Y004826D01*
X016813Y005169D02*
X015681Y006301D01*
X015273Y006303D02*
X005037Y006303D01*
X005037Y006205D02*
X015279Y006205D01*
X015320Y006106D02*
X005037Y006106D01*
X005037Y006008D02*
X015397Y006008D01*
X015453Y005909D02*
X015560Y005909D01*
X015612Y005811D02*
X015803Y005811D01*
X015711Y005712D02*
X015902Y005712D01*
X016000Y005614D02*
X015754Y005614D01*
X015795Y005515D02*
X016099Y005515D01*
X016197Y005417D02*
X015801Y005417D01*
X015801Y005318D02*
X016296Y005318D01*
X016394Y005220D02*
X015801Y005220D01*
X015801Y005121D02*
X016405Y005121D01*
X016432Y005023D02*
X015801Y005023D01*
X015801Y004924D02*
X016480Y004924D01*
X016579Y004826D02*
X015801Y004826D01*
X015384Y004136D02*
X032808Y004136D01*
X032609Y004235D02*
X031210Y004235D01*
X031345Y004333D02*
X032510Y004333D01*
X032450Y004432D02*
X031421Y004432D01*
X031464Y004530D02*
X032410Y004530D01*
X032392Y004629D02*
X031486Y004629D01*
X031489Y004727D02*
X032392Y004727D01*
X032392Y004826D02*
X031489Y004826D01*
X031489Y004924D02*
X032392Y004924D01*
X033101Y004136D02*
X034457Y004136D01*
X034556Y004235D02*
X033300Y004235D01*
X033399Y004333D02*
X034593Y004333D01*
X034593Y004432D02*
X033459Y004432D01*
X033500Y004530D02*
X034593Y004530D01*
X034593Y004629D02*
X033517Y004629D01*
X033517Y004727D02*
X034593Y004727D01*
X034593Y004826D02*
X033517Y004826D01*
X033517Y004924D02*
X034593Y004924D01*
X034593Y005023D02*
X033517Y005023D01*
X033517Y005121D02*
X034593Y005121D01*
X034593Y005220D02*
X033517Y005220D01*
X033517Y005318D02*
X034593Y005318D01*
X034593Y005417D02*
X033517Y005417D01*
X033511Y005515D02*
X034593Y005515D01*
X034593Y005614D02*
X033471Y005614D01*
X033427Y005712D02*
X034562Y005712D01*
X034521Y005811D02*
X033329Y005811D01*
X033170Y005909D02*
X034515Y005909D01*
X034523Y006008D02*
X023702Y006008D01*
X023702Y006106D02*
X034553Y006106D01*
X034553Y006205D02*
X023670Y006205D01*
X023629Y006303D02*
X034553Y006303D01*
X034553Y006402D02*
X023543Y006402D01*
X023408Y006500D02*
X034553Y006500D01*
X032650Y008076D02*
X037800Y008076D01*
X037800Y007978D02*
X032489Y007978D01*
X032239Y007978D02*
X029982Y007978D01*
X030080Y007879D02*
X037800Y007879D01*
X037889Y007781D02*
X030086Y007781D01*
X030086Y007682D02*
X037900Y007682D01*
X037800Y008175D02*
X032726Y008175D01*
X032767Y008273D02*
X037814Y008273D01*
X037912Y008372D02*
X032772Y008372D01*
X032763Y008470D02*
X038011Y008470D01*
X038307Y008569D02*
X032723Y008569D01*
X032258Y008766D02*
X029359Y008766D01*
X029214Y009303D02*
X021783Y009303D01*
X021457Y009554D02*
X021371Y009554D01*
X021268Y009652D02*
X021561Y009652D01*
X021045Y009303D02*
X020898Y009450D01*
X019766Y009450D01*
X019167Y008852D01*
X019167Y006021D01*
X017383Y007387D02*
X006665Y007387D01*
X006741Y007485D02*
X017389Y007485D01*
X017285Y007288D02*
X015268Y007288D01*
X014814Y007288D02*
X006503Y007288D01*
X006380Y007679D02*
X006872Y008171D01*
X017403Y008171D01*
X017797Y008565D01*
X018075Y008864D02*
X018907Y008864D01*
X018907Y008766D02*
X018156Y008766D01*
X018196Y008667D02*
X018907Y008667D01*
X018907Y008569D02*
X018205Y008569D01*
X018200Y008470D02*
X018907Y008470D01*
X018907Y008372D02*
X018159Y008372D01*
X018083Y008273D02*
X018907Y008273D01*
X018907Y008175D02*
X017922Y008175D01*
X017676Y008076D02*
X018907Y008076D01*
X018907Y007978D02*
X017578Y007978D01*
X015402Y006599D02*
X015276Y006599D01*
X015322Y006500D02*
X005037Y006500D01*
X005037Y006402D02*
X015281Y006402D01*
X015023Y005909D02*
X011516Y005909D01*
X011675Y005811D02*
X012994Y005811D01*
X013006Y005819D02*
X012942Y005773D01*
X012886Y005717D01*
X012840Y005653D01*
X012804Y005582D01*
X012779Y005507D01*
X012767Y005429D01*
X012767Y005087D01*
X013220Y005087D01*
X013220Y005890D01*
X013152Y005880D01*
X013077Y005855D01*
X013006Y005819D01*
X012883Y005712D02*
X011774Y005712D01*
X011817Y005614D02*
X012820Y005614D01*
X012782Y005515D02*
X011858Y005515D01*
X011864Y005417D02*
X012767Y005417D01*
X012767Y005318D02*
X011864Y005318D01*
X011864Y005220D02*
X012767Y005220D01*
X012767Y005121D02*
X011864Y005121D01*
X011864Y005023D02*
X013220Y005023D01*
X013220Y004987D02*
X012767Y004987D01*
X012767Y004645D01*
X012779Y004567D01*
X012804Y004492D01*
X012840Y004421D01*
X012886Y004357D01*
X012942Y004301D01*
X013006Y004255D01*
X013077Y004219D01*
X013152Y004194D01*
X013220Y004184D01*
X013220Y004987D01*
X013320Y004987D01*
X013320Y005087D01*
X013772Y005087D01*
X013772Y005429D01*
X013760Y005507D01*
X013735Y005582D01*
X013699Y005653D01*
X013653Y005717D01*
X013597Y005773D01*
X013533Y005819D01*
X013462Y005855D01*
X013387Y005880D01*
X013320Y005890D01*
X013320Y005087D01*
X013220Y005087D01*
X013220Y004987D01*
X013220Y004924D02*
X013320Y004924D01*
X013320Y004987D02*
X013320Y004184D01*
X013387Y004194D01*
X013462Y004219D01*
X013533Y004255D01*
X013597Y004301D01*
X013653Y004357D01*
X013699Y004421D01*
X013735Y004492D01*
X013760Y004567D01*
X013772Y004645D01*
X013772Y004987D01*
X013320Y004987D01*
X013320Y005023D02*
X014676Y005023D01*
X014676Y005121D02*
X013772Y005121D01*
X013772Y005220D02*
X014676Y005220D01*
X014676Y005318D02*
X013772Y005318D01*
X013772Y005417D02*
X014676Y005417D01*
X014681Y005515D02*
X013757Y005515D01*
X013719Y005614D02*
X014722Y005614D01*
X014765Y005712D02*
X013656Y005712D01*
X013545Y005811D02*
X014864Y005811D01*
X014676Y004924D02*
X013772Y004924D01*
X013772Y004826D02*
X014676Y004826D01*
X014676Y004727D02*
X013772Y004727D01*
X013769Y004629D02*
X014676Y004629D01*
X014693Y004530D02*
X013748Y004530D01*
X013705Y004432D02*
X014734Y004432D01*
X014794Y004333D02*
X013629Y004333D01*
X013494Y004235D02*
X014892Y004235D01*
X015092Y004136D02*
X011631Y004136D01*
X011647Y004235D02*
X013046Y004235D01*
X012910Y004333D02*
X011745Y004333D01*
X011805Y004432D02*
X012834Y004432D01*
X012791Y004530D02*
X011846Y004530D01*
X011864Y004629D02*
X012770Y004629D01*
X012767Y004727D02*
X011864Y004727D01*
X011864Y004826D02*
X012767Y004826D01*
X012767Y004924D02*
X011864Y004924D01*
X010955Y004235D02*
X009686Y004235D01*
X009651Y004200D02*
X009809Y004358D01*
X009895Y004565D01*
X009895Y005494D01*
X009809Y005700D01*
X009651Y005859D01*
X009444Y005944D01*
X009221Y005944D01*
X009014Y005859D01*
X008856Y005700D01*
X008770Y005494D01*
X008770Y004565D01*
X008856Y004358D01*
X009014Y004200D01*
X009221Y004114D01*
X009444Y004114D01*
X009651Y004200D01*
X009498Y004136D02*
X010971Y004136D01*
X010857Y004333D02*
X009785Y004333D01*
X009840Y004432D02*
X010797Y004432D01*
X010756Y004530D02*
X009881Y004530D01*
X009895Y004629D02*
X010739Y004629D01*
X010739Y004727D02*
X009895Y004727D01*
X009895Y004826D02*
X010739Y004826D01*
X010739Y004924D02*
X009895Y004924D01*
X009895Y005023D02*
X010739Y005023D01*
X010739Y005121D02*
X009895Y005121D01*
X009895Y005220D02*
X010739Y005220D01*
X010739Y005318D02*
X009895Y005318D01*
X009895Y005417D02*
X010739Y005417D01*
X010744Y005515D02*
X009886Y005515D01*
X009845Y005614D02*
X010785Y005614D01*
X010828Y005712D02*
X009797Y005712D01*
X009699Y005811D02*
X010927Y005811D01*
X011086Y005909D02*
X009529Y005909D01*
X009136Y005909D02*
X007560Y005909D01*
X007476Y005944D02*
X007252Y005944D01*
X007045Y005859D01*
X006887Y005700D01*
X006802Y005494D01*
X006802Y004565D01*
X006887Y004358D01*
X007045Y004200D01*
X007252Y004114D01*
X007476Y004114D01*
X007683Y004200D01*
X007841Y004358D01*
X007927Y004565D01*
X007927Y005494D01*
X007841Y005700D01*
X007683Y005859D01*
X007476Y005944D01*
X007730Y005811D02*
X008966Y005811D01*
X008868Y005712D02*
X007829Y005712D01*
X007877Y005614D02*
X008820Y005614D01*
X008779Y005515D02*
X007918Y005515D01*
X007927Y005417D02*
X008770Y005417D01*
X008770Y005318D02*
X007927Y005318D01*
X007927Y005220D02*
X008770Y005220D01*
X008770Y005121D02*
X007927Y005121D01*
X007927Y005023D02*
X008770Y005023D01*
X008770Y004924D02*
X007927Y004924D01*
X007927Y004826D02*
X008770Y004826D01*
X008770Y004727D02*
X007927Y004727D01*
X007927Y004629D02*
X008770Y004629D01*
X008784Y004530D02*
X007912Y004530D01*
X007871Y004432D02*
X008825Y004432D01*
X008880Y004333D02*
X007816Y004333D01*
X007718Y004235D02*
X008979Y004235D01*
X009167Y004136D02*
X007529Y004136D01*
X007199Y004136D02*
X005074Y004136D01*
X005037Y004235D02*
X007010Y004235D01*
X006912Y004333D02*
X005037Y004333D01*
X005037Y004432D02*
X006857Y004432D01*
X006816Y004530D02*
X005037Y004530D01*
X005037Y004629D02*
X006802Y004629D01*
X006802Y004727D02*
X005037Y004727D01*
X005037Y004826D02*
X006802Y004826D01*
X006802Y004924D02*
X005037Y004924D01*
X005037Y005023D02*
X006802Y005023D01*
X006802Y005121D02*
X005037Y005121D01*
X005037Y005220D02*
X006802Y005220D01*
X006802Y005318D02*
X005037Y005318D01*
X005037Y005417D02*
X006802Y005417D01*
X006811Y005515D02*
X005037Y005515D01*
X005037Y005614D02*
X006851Y005614D01*
X006899Y005712D02*
X005037Y005712D01*
X005037Y005811D02*
X006998Y005811D01*
X007168Y005909D02*
X005037Y005909D01*
X004377Y007190D02*
X001121Y007190D01*
X001121Y007288D02*
X004377Y007288D01*
X004335Y007387D02*
X001121Y007387D01*
X001121Y007485D02*
X004237Y007485D01*
X004138Y007584D02*
X001121Y007584D01*
X001121Y007682D02*
X004040Y007682D01*
X003941Y007781D02*
X001121Y007781D01*
X001121Y007879D02*
X003794Y007879D01*
X003634Y007978D02*
X001121Y007978D01*
X001121Y008076D02*
X003557Y008076D01*
X003517Y008175D02*
X001121Y008175D01*
X001121Y008273D02*
X003511Y008273D01*
X003520Y008372D02*
X001121Y008372D01*
X001121Y008470D02*
X003561Y008470D01*
X003641Y008569D02*
X001121Y008569D01*
X001121Y008667D02*
X003813Y008667D01*
X004893Y007762D02*
X004893Y007762D01*
X010907Y010238D02*
X010907Y011616D01*
X013220Y005811D02*
X013320Y005811D01*
X013320Y005712D02*
X013220Y005712D01*
X013220Y005614D02*
X013320Y005614D01*
X013320Y005515D02*
X013220Y005515D01*
X013220Y005417D02*
X013320Y005417D01*
X013320Y005318D02*
X013220Y005318D01*
X013220Y005220D02*
X013320Y005220D01*
X013320Y005121D02*
X013220Y005121D01*
X013220Y004826D02*
X013320Y004826D01*
X013320Y004727D02*
X013220Y004727D01*
X013220Y004629D02*
X013320Y004629D01*
X013320Y004530D02*
X013220Y004530D01*
X013220Y004432D02*
X013320Y004432D01*
X013320Y004333D02*
X013220Y004333D01*
X013220Y004235D02*
X013320Y004235D01*
X019646Y008963D02*
X020808Y008963D01*
X020710Y009061D02*
X019744Y009061D01*
X019843Y009160D02*
X020663Y009160D01*
X021282Y008963D02*
X021457Y008963D01*
X021448Y009061D02*
X021381Y009061D01*
X022401Y008470D02*
X027275Y008470D01*
X027374Y008569D02*
X022500Y008569D01*
X022598Y008667D02*
X027500Y008667D01*
X027716Y007978D02*
X028250Y007978D01*
X028152Y007879D02*
X027618Y007879D01*
X027550Y007781D02*
X028146Y007781D01*
X028146Y007682D02*
X027509Y007682D01*
X027433Y007584D02*
X028146Y007584D01*
X028146Y007485D02*
X027271Y007485D01*
X027024Y007485D02*
X023341Y007485D01*
X023393Y007387D02*
X028243Y007387D01*
X028342Y007288D02*
X023422Y007288D01*
X023240Y007584D02*
X026862Y007584D01*
X028890Y007288D02*
X029342Y007288D01*
X029243Y007387D02*
X028989Y007387D01*
X029086Y007485D02*
X029146Y007485D01*
X029146Y007584D02*
X029086Y007584D01*
X029086Y007682D02*
X029146Y007682D01*
X029146Y007781D02*
X029086Y007781D01*
X029080Y007879D02*
X029152Y007879D01*
X029250Y007978D02*
X028982Y007978D01*
X028631Y005712D02*
X023614Y005712D01*
X023516Y005614D02*
X028568Y005614D01*
X035604Y012213D02*
X036113Y012213D01*
X036014Y012312D02*
X035702Y012312D01*
X035801Y012410D02*
X035916Y012410D01*
X035858Y012509D02*
X035858Y012509D01*
X035858Y012607D02*
X035858Y012607D01*
X035858Y012723D02*
X035858Y012882D01*
X035858Y012723D01*
X035858Y012804D02*
X035858Y012804D01*
X035837Y012903D02*
X035879Y012903D01*
X035977Y013001D02*
X035739Y013001D01*
X035640Y013100D02*
X036076Y013100D01*
X036310Y013100D02*
X036407Y013100D01*
X036407Y013001D02*
X036310Y013001D01*
X036310Y012903D02*
X036407Y012903D01*
X036407Y012804D02*
X036310Y012804D01*
X036310Y012509D02*
X036407Y012509D01*
X036407Y012410D02*
X036310Y012410D01*
X036310Y012312D02*
X036407Y012312D01*
X036407Y012213D02*
X036310Y012213D01*
X036604Y012213D02*
X037113Y012213D01*
X037151Y012175D02*
X036858Y012468D01*
X036858Y012626D01*
X037310Y012626D01*
X037310Y012175D01*
X037151Y012175D01*
X037310Y012213D02*
X037407Y012213D01*
X037407Y012175D02*
X037565Y012175D01*
X037858Y012468D01*
X037858Y012626D01*
X037407Y012626D01*
X037407Y012175D01*
X037407Y012312D02*
X037310Y012312D01*
X037310Y012410D02*
X037407Y012410D01*
X037407Y012509D02*
X037310Y012509D01*
X037310Y012607D02*
X037407Y012607D01*
X037407Y012903D02*
X037310Y012903D01*
X037310Y013001D02*
X037407Y013001D01*
X037407Y013100D02*
X037310Y013100D01*
X037076Y013100D02*
X036640Y013100D01*
X036739Y013001D02*
X036977Y013001D01*
X036879Y012903D02*
X036837Y012903D01*
X036858Y012804D02*
X036858Y012804D01*
X036858Y012607D02*
X036858Y012607D01*
X036858Y012509D02*
X036858Y012509D01*
X036801Y012410D02*
X036916Y012410D01*
X037014Y012312D02*
X036702Y012312D01*
X037604Y012213D02*
X038629Y012213D01*
X038629Y012312D02*
X037702Y012312D01*
X037801Y012410D02*
X038629Y012410D01*
X038629Y012509D02*
X037858Y012509D01*
X037858Y012607D02*
X038629Y012607D01*
X004004Y027481D02*
X001121Y027481D01*
X001121Y027579D02*
X004004Y027579D01*
X004004Y027678D02*
X001121Y027678D01*
X001121Y027776D02*
X004004Y027776D01*
X004004Y027875D02*
X001121Y027875D01*
X001121Y027973D02*
X004004Y027973D01*
X004004Y028072D02*
X001121Y028072D01*
X001121Y028170D02*
X004004Y028170D01*
X004004Y028269D02*
X001121Y028269D01*
X001121Y028367D02*
X004004Y028367D01*
X004004Y028466D02*
X001121Y028466D01*
X001121Y028564D02*
X004004Y028564D01*
X004004Y028663D02*
X001121Y028663D01*
X001121Y028761D02*
X004004Y028761D01*
X004004Y028860D02*
X001121Y028860D01*
X001121Y028958D02*
X004004Y028958D01*
X004004Y029057D02*
X001121Y029057D01*
X001121Y029155D02*
X004004Y029155D01*
X004004Y029254D02*
X001121Y029254D01*
X001121Y029352D02*
X004004Y029352D01*
X004004Y029451D02*
X001121Y029451D01*
X001121Y029549D02*
X004004Y029549D01*
X004004Y029648D02*
X001121Y029648D01*
X001121Y029746D02*
X004004Y029746D01*
X004004Y029845D02*
X001121Y029845D01*
X001121Y029943D02*
X004004Y029943D01*
X004004Y030042D02*
X001121Y030042D01*
X001121Y030140D02*
X004004Y030140D01*
X004004Y030239D02*
X001121Y030239D01*
X001121Y030337D02*
X004004Y030337D01*
X004004Y030436D02*
X001121Y030436D01*
X001121Y030534D02*
X004004Y030534D01*
X004004Y030633D02*
X001121Y030633D01*
X001121Y030731D02*
X004004Y030731D01*
X004004Y030830D02*
X001121Y030830D01*
X001121Y030928D02*
X004004Y030928D01*
X004004Y031027D02*
X001121Y031027D01*
X001121Y031125D02*
X004004Y031125D01*
X004004Y031224D02*
X001121Y031224D01*
X001121Y031322D02*
X004004Y031322D01*
X004004Y031421D02*
X001121Y031421D01*
X001121Y031519D02*
X004004Y031519D01*
X004004Y031618D02*
X001121Y031618D01*
X001121Y031716D02*
X004004Y031716D01*
X004004Y031815D02*
X001121Y031815D01*
X001121Y031913D02*
X004004Y031913D01*
X004004Y032012D02*
X001121Y032012D01*
X001121Y032110D02*
X004004Y032110D01*
X004004Y032209D02*
X001121Y032209D01*
X001121Y021078D02*
X002232Y021078D01*
X002133Y020980D02*
X001121Y020980D01*
X001121Y020881D02*
X002043Y020881D01*
X002043Y020783D02*
X001121Y020783D01*
X001121Y020684D02*
X002043Y020684D01*
X002043Y020586D02*
X001121Y020586D01*
X001121Y020487D02*
X002043Y020487D01*
X002138Y020389D02*
X001121Y020389D01*
X002830Y020290D02*
X003237Y020290D01*
X003138Y020389D02*
X002928Y020389D01*
X003023Y020487D02*
X003043Y020487D01*
X003043Y020586D02*
X003023Y020586D01*
X003023Y020684D02*
X003043Y020684D01*
X003043Y020783D02*
X003023Y020783D01*
X003023Y020881D02*
X003043Y020881D01*
X003133Y020980D02*
X002933Y020980D01*
X002835Y021078D02*
X003232Y021078D01*
X003103Y019601D02*
X003023Y019601D01*
X003023Y019502D02*
X003110Y019502D01*
X003208Y019404D02*
X002943Y019404D01*
X002277Y018123D02*
X001121Y018123D01*
X001121Y018025D02*
X002178Y018025D01*
X002080Y017926D02*
X001121Y017926D01*
X001121Y017828D02*
X002043Y017828D01*
X002043Y017729D02*
X001121Y017729D01*
X001121Y017631D02*
X002043Y017631D01*
X002043Y017532D02*
X001121Y017532D01*
X001121Y017434D02*
X002093Y017434D01*
X002192Y017335D02*
X001121Y017335D01*
X001121Y017237D02*
X002290Y017237D01*
D20*
X001311Y018210D03*
X001311Y016242D03*
X001311Y014273D03*
X001311Y012305D03*
X001311Y010336D03*
X001311Y008368D03*
X003919Y008269D03*
X004756Y008565D03*
X006380Y007679D03*
X006626Y006399D03*
X008348Y006448D03*
X010760Y007630D03*
X009382Y009450D03*
X011055Y009500D03*
X010907Y010238D03*
X010907Y011616D03*
X009333Y011025D03*
X008053Y011271D03*
X004116Y013043D03*
X005838Y015307D03*
X005838Y017029D03*
X007758Y017324D03*
X007758Y015356D03*
X009726Y015356D03*
X011695Y015356D03*
X013663Y015356D03*
X013368Y013240D03*
X012679Y011271D03*
X012679Y009254D03*
X013073Y007187D03*
X015041Y006941D03*
X015681Y006301D03*
X016813Y005169D03*
X017797Y007433D03*
X018486Y007482D03*
X019716Y007187D03*
X019667Y006596D03*
X017797Y008565D03*
X017207Y010189D03*
X017010Y011124D03*
X018289Y012452D03*
X017502Y013141D03*
X016272Y014273D03*
X018191Y015208D03*
X019569Y015208D03*
X020504Y013289D03*
X021734Y014224D03*
X023309Y015750D03*
X022571Y016094D03*
X022177Y016537D03*
X021094Y018604D03*
X019126Y017718D03*
X015090Y018604D03*
X013614Y017718D03*
X009677Y018506D03*
X007610Y020179D03*
X006429Y021754D03*
X005100Y019736D03*
X001311Y020179D03*
X001311Y022147D03*
X001311Y024116D03*
X001311Y026084D03*
X001311Y028053D03*
X001311Y030021D03*
X001311Y031990D03*
X003673Y031990D03*
X003673Y030021D03*
X003673Y028053D03*
X003673Y026084D03*
X003673Y024116D03*
X006429Y024116D03*
X008004Y024116D03*
X009579Y024116D03*
X010071Y022344D03*
X011547Y024116D03*
X013516Y024116D03*
X015484Y024116D03*
X016075Y022344D03*
X017453Y024116D03*
X019421Y024116D03*
X021390Y024116D03*
X021291Y022344D03*
X023358Y024116D03*
X025327Y024116D03*
X027295Y024116D03*
X026508Y022344D03*
X029264Y024116D03*
X031232Y024116D03*
X033201Y024116D03*
X035169Y024116D03*
X037039Y022836D03*
X036547Y026084D03*
X036547Y028053D03*
X036547Y030021D03*
X036547Y031990D03*
X038909Y031990D03*
X038909Y030021D03*
X033447Y020671D03*
X033545Y019884D03*
X033545Y019096D03*
X033545Y018309D03*
X032118Y020671D03*
X036842Y016340D03*
X037777Y015011D03*
X036153Y013732D03*
X034726Y014076D03*
X034136Y014569D03*
X034874Y015061D03*
X031724Y015061D03*
X031724Y013240D03*
X029903Y012502D03*
X029264Y011370D03*
X027492Y010385D03*
X026065Y010632D03*
X024490Y010533D03*
X021783Y009303D03*
X021783Y008712D03*
X021045Y009303D03*
X021144Y009844D03*
X020898Y010828D03*
X020159Y010632D03*
X019618Y010238D03*
X019126Y010681D03*
X019913Y011468D03*
X019962Y008860D03*
X022964Y007925D03*
X023014Y007236D03*
X023703Y007088D03*
X025179Y004824D03*
X022325Y004726D03*
X027148Y007876D03*
X031429Y008909D03*
X032364Y008368D03*
X032758Y006448D03*
X034923Y005907D03*
X035366Y009057D03*
X034579Y010779D03*
X033398Y011173D03*
X029903Y014470D03*
X026852Y013781D03*
X025031Y017817D03*
X026606Y018702D03*
X015386Y010189D03*
X015041Y009254D03*
D21*
X019618Y011763D02*
X019913Y011468D01*
X019618Y011763D02*
X019618Y015159D01*
X019569Y015208D01*
X018191Y015208D01*
X029903Y014470D02*
X029903Y012502D01*
X029903Y014470D02*
X030002Y014569D01*
X034136Y014569D01*
X034579Y010779D02*
X035366Y009992D01*
X035366Y009057D01*
D22*
X036399Y011025D03*
D23*
X038959Y008754D02*
X038270Y008065D01*
X038959Y008754D02*
X038959Y023968D01*
X038648Y024279D01*
X038236Y024279D01*
X032364Y008368D02*
X027640Y008368D01*
X027148Y007876D01*
X034529Y003742D02*
X034923Y004135D01*
X034923Y005907D01*
X034529Y003742D02*
X011498Y003742D01*
X005002Y003742D01*
X004707Y004037D01*
X004707Y007482D01*
X003919Y008269D01*
X011301Y005037D02*
X011301Y003939D01*
X011498Y003742D01*
D24*
X034923Y005907D02*
X034923Y006891D01*
X035317Y007285D01*
X038073Y007285D01*
X038270Y007482D01*
X038270Y008065D01*
D25*
X030074Y029313D02*
X028722Y029313D01*
X028624Y029411D01*
X028624Y032580D01*
X028821Y032777D01*
X032462Y032777D01*
X032955Y033269D01*
X032955Y034336D01*
X028722Y029313D02*
X027124Y029313D01*
X024562Y029313D02*
X023210Y029313D01*
X023112Y029411D01*
X023112Y032580D01*
X023407Y032876D01*
X026655Y032876D01*
X027049Y033269D01*
X027049Y034344D01*
X023210Y029313D02*
X021612Y029313D01*
X018657Y029313D02*
X017305Y029313D01*
X017207Y029411D01*
X017207Y033761D01*
X016632Y034336D01*
X015238Y034336D01*
X011695Y032285D02*
X011695Y029411D01*
X011793Y029313D01*
X010195Y029313D01*
X011793Y029313D02*
X013145Y029313D01*
X015707Y029313D02*
X017305Y029313D01*
X011695Y032285D02*
X011203Y032777D01*
X009825Y032777D01*
X009333Y033269D01*
X009333Y034344D01*
M02*
