%
M48
M72
T01C0.0236
T02C0.0320
T03C0.0360
T04C0.0394
T05C0.0433
T06C0.0470
T07C0.0520
T08C0.0866
T09C0.1378
%
T01
X6626Y6399
X6380Y7679
X4756Y8565
X3919Y8269
X1311Y8368
X1311Y10336
X1311Y12305
X1311Y14273
X1311Y16242
X1311Y18210
X1311Y20179
X1311Y22147
X1311Y24116
X1311Y26084
X1311Y28053
X1311Y30021
X1311Y31990
X3673Y31990
X3673Y30021
X3673Y28053
X3673Y26084
X3673Y24116
X6429Y24116
X8004Y24116
X9579Y24116
X10071Y22344
X11547Y24116
X13516Y24116
X15484Y24116
X16075Y22344
X17453Y24116
X19421Y24116
X21390Y24116
X21291Y22344
X23358Y24116
X25327Y24116
X27295Y24116
X26508Y22344
X29264Y24116
X31232Y24116
X33201Y24116
X35169Y24116
X37039Y22836
X36547Y26084
X36547Y28053
X36547Y30021
X36547Y31990
X38909Y31990
X38909Y30021
X33447Y20671
X33545Y19884
X33545Y19096
X33545Y18309
X32118Y20671
X36842Y16340
X37777Y15011
X36153Y13732
X34726Y14076
X34136Y14569
X34874Y15061
X31724Y15061
X31724Y13240
X29903Y12502
X29264Y11370
X27492Y10385
X26065Y10632
X24490Y10533
X21783Y9303
X21783Y8712
X21045Y9303
X21144Y9844
X20898Y10828
X20159Y10632
X19618Y10238
X19126Y10681
X19913Y11468
X18289Y12452
X17502Y13141
X16272Y14273
X18191Y15208
X19569Y15208
X20504Y13289
X21734Y14224
X23309Y15750
X22571Y16094
X22177Y16537
X21094Y18604
X19126Y17718
X15090Y18604
X13614Y17718
X13663Y15356
X11695Y15356
X9726Y15356
X7758Y15356
X5838Y15307
X5838Y17029
X7758Y17324
X9677Y18506
X7610Y20179
X6429Y21754
X5100Y19736
X4116Y13043
X8053Y11271
X9333Y11025
X10907Y11616
X10907Y10238
X11055Y9500
X12679Y9254
X12679Y11271
X13368Y13240
X15386Y10189
X15041Y9254
X17010Y11124
X17207Y10189
X17797Y8565
X17797Y7433
X18486Y7482
X19716Y7187
X19667Y6596
X19962Y8860
X22964Y7925
X23014Y7236
X23703Y7088
X25179Y4824
X22325Y4726
X27148Y7876
X31429Y8909
X32364Y8368
X32758Y6448
X34923Y5907
X35366Y9057
X34579Y10779
X33398Y11173
X29903Y14470
X26852Y13781
X25031Y17817
X26606Y18702
X15041Y6941
X15681Y6301
X16813Y5169
X13073Y7187
X10760Y7630
X9382Y9450
X8348Y6448
T02
X24455Y11882
X24455Y13782
X28616Y7679
X29616Y7679
X38270Y8065
X38270Y9065
T03
X3533Y17687
X2533Y17687
X2533Y18687
X3533Y18687
X3533Y19687
X2533Y19687
X2533Y20687
X3533Y20687
X3533Y21687
X2533Y21687
T04
X34358Y15675
X35358Y15675
X36358Y15675
X37358Y15675
X37358Y12675
X36358Y12675
X35358Y12675
X34358Y12675
T05
X38220Y17285
X38220Y18285
X38220Y19285
X38220Y20285
X38220Y21285
X38220Y22285
X38220Y23295
X38236Y24279
X38240Y25277
X23167Y6021
X22167Y6021
X21167Y6021
X20167Y6021
X19167Y6021
T06
X15238Y5037
X13270Y5037
X11301Y5037
X9333Y5029
X7364Y5029
X29018Y5037
X30986Y5037
X32955Y5037
X32955Y34336
X30986Y34336
X29018Y34336
X27049Y34344
X25081Y34344
X15238Y34336
X13270Y34336
X11301Y34336
X9333Y34344
X7364Y34344
T07
X10195Y31283
X10195Y29313
X10195Y27353
X13145Y27353
X13145Y29313
X13145Y31283
X15707Y31283
X15707Y29313
X15707Y27353
X18657Y27353
X18657Y29313
X18657Y31283
X21612Y31283
X21612Y29313
X21612Y27353
X24562Y27353
X24562Y29313
X24562Y31283
X27124Y31283
X27124Y29313
X27124Y27353
X30074Y27353
X30074Y29313
X30074Y31283
X30074Y21443
X27124Y21443
X24562Y21443
X21612Y21443
X18657Y21443
X15707Y21443
X13145Y21443
X10195Y21443
T08
X36399Y11025
T09
X32955Y9844
X32955Y29529
X7364Y29529
X7364Y9844
M30
