G75*
G70*
%OFA0B0*%
%FSLAX24Y24*%
%IPPOS*%
%LPD*%
%AMOC8*
5,1,8,0,0,1.08239X$1,22.5*
%
%ADD10C,0.0000*%
%ADD11C,0.1458*%
%ADD12C,0.0640*%
%ADD13C,0.0730*%
%ADD14C,0.0785*%
%ADD15OC8,0.0600*%
%ADD16OC8,0.0780*%
%ADD17R,0.0190X0.0249*%
%ADD18OC8,0.0640*%
%ADD19C,0.0860*%
%ADD20C,0.0476*%
%ADD21C,0.1346*%
D10*
X004214Y003151D02*
X004214Y006695D01*
X000671Y006695D01*
X000671Y032679D01*
X004214Y032679D01*
X004214Y036222D01*
X036104Y036222D01*
X036104Y032679D01*
X039648Y032679D01*
X039648Y006695D01*
X036104Y006695D01*
X036104Y003151D01*
X004214Y003151D01*
X006675Y009844D02*
X006677Y009896D01*
X006683Y009948D01*
X006693Y009999D01*
X006706Y010049D01*
X006724Y010099D01*
X006745Y010146D01*
X006769Y010192D01*
X006798Y010236D01*
X006829Y010278D01*
X006863Y010317D01*
X006900Y010354D01*
X006940Y010387D01*
X006983Y010418D01*
X007027Y010445D01*
X007073Y010469D01*
X007122Y010489D01*
X007171Y010505D01*
X007222Y010518D01*
X007273Y010527D01*
X007325Y010532D01*
X007377Y010533D01*
X007429Y010530D01*
X007481Y010523D01*
X007532Y010512D01*
X007582Y010498D01*
X007631Y010479D01*
X007678Y010457D01*
X007723Y010432D01*
X007767Y010403D01*
X007808Y010371D01*
X007847Y010336D01*
X007882Y010298D01*
X007915Y010257D01*
X007945Y010215D01*
X007971Y010170D01*
X007994Y010123D01*
X008013Y010074D01*
X008029Y010024D01*
X008041Y009974D01*
X008049Y009922D01*
X008053Y009870D01*
X008053Y009818D01*
X008049Y009766D01*
X008041Y009714D01*
X008029Y009664D01*
X008013Y009614D01*
X007994Y009565D01*
X007971Y009518D01*
X007945Y009473D01*
X007915Y009431D01*
X007882Y009390D01*
X007847Y009352D01*
X007808Y009317D01*
X007767Y009285D01*
X007723Y009256D01*
X007678Y009231D01*
X007631Y009209D01*
X007582Y009190D01*
X007532Y009176D01*
X007481Y009165D01*
X007429Y009158D01*
X007377Y009155D01*
X007325Y009156D01*
X007273Y009161D01*
X007222Y009170D01*
X007171Y009183D01*
X007122Y009199D01*
X007073Y009219D01*
X007027Y009243D01*
X006983Y009270D01*
X006940Y009301D01*
X006900Y009334D01*
X006863Y009371D01*
X006829Y009410D01*
X006798Y009452D01*
X006769Y009496D01*
X006745Y009542D01*
X006724Y009589D01*
X006706Y009639D01*
X006693Y009689D01*
X006683Y009740D01*
X006677Y009792D01*
X006675Y009844D01*
X006675Y029529D02*
X006677Y029581D01*
X006683Y029633D01*
X006693Y029684D01*
X006706Y029734D01*
X006724Y029784D01*
X006745Y029831D01*
X006769Y029877D01*
X006798Y029921D01*
X006829Y029963D01*
X006863Y030002D01*
X006900Y030039D01*
X006940Y030072D01*
X006983Y030103D01*
X007027Y030130D01*
X007073Y030154D01*
X007122Y030174D01*
X007171Y030190D01*
X007222Y030203D01*
X007273Y030212D01*
X007325Y030217D01*
X007377Y030218D01*
X007429Y030215D01*
X007481Y030208D01*
X007532Y030197D01*
X007582Y030183D01*
X007631Y030164D01*
X007678Y030142D01*
X007723Y030117D01*
X007767Y030088D01*
X007808Y030056D01*
X007847Y030021D01*
X007882Y029983D01*
X007915Y029942D01*
X007945Y029900D01*
X007971Y029855D01*
X007994Y029808D01*
X008013Y029759D01*
X008029Y029709D01*
X008041Y029659D01*
X008049Y029607D01*
X008053Y029555D01*
X008053Y029503D01*
X008049Y029451D01*
X008041Y029399D01*
X008029Y029349D01*
X008013Y029299D01*
X007994Y029250D01*
X007971Y029203D01*
X007945Y029158D01*
X007915Y029116D01*
X007882Y029075D01*
X007847Y029037D01*
X007808Y029002D01*
X007767Y028970D01*
X007723Y028941D01*
X007678Y028916D01*
X007631Y028894D01*
X007582Y028875D01*
X007532Y028861D01*
X007481Y028850D01*
X007429Y028843D01*
X007377Y028840D01*
X007325Y028841D01*
X007273Y028846D01*
X007222Y028855D01*
X007171Y028868D01*
X007122Y028884D01*
X007073Y028904D01*
X007027Y028928D01*
X006983Y028955D01*
X006940Y028986D01*
X006900Y029019D01*
X006863Y029056D01*
X006829Y029095D01*
X006798Y029137D01*
X006769Y029181D01*
X006745Y029227D01*
X006724Y029274D01*
X006706Y029324D01*
X006693Y029374D01*
X006683Y029425D01*
X006677Y029477D01*
X006675Y029529D01*
X032266Y029529D02*
X032268Y029581D01*
X032274Y029633D01*
X032284Y029684D01*
X032297Y029734D01*
X032315Y029784D01*
X032336Y029831D01*
X032360Y029877D01*
X032389Y029921D01*
X032420Y029963D01*
X032454Y030002D01*
X032491Y030039D01*
X032531Y030072D01*
X032574Y030103D01*
X032618Y030130D01*
X032664Y030154D01*
X032713Y030174D01*
X032762Y030190D01*
X032813Y030203D01*
X032864Y030212D01*
X032916Y030217D01*
X032968Y030218D01*
X033020Y030215D01*
X033072Y030208D01*
X033123Y030197D01*
X033173Y030183D01*
X033222Y030164D01*
X033269Y030142D01*
X033314Y030117D01*
X033358Y030088D01*
X033399Y030056D01*
X033438Y030021D01*
X033473Y029983D01*
X033506Y029942D01*
X033536Y029900D01*
X033562Y029855D01*
X033585Y029808D01*
X033604Y029759D01*
X033620Y029709D01*
X033632Y029659D01*
X033640Y029607D01*
X033644Y029555D01*
X033644Y029503D01*
X033640Y029451D01*
X033632Y029399D01*
X033620Y029349D01*
X033604Y029299D01*
X033585Y029250D01*
X033562Y029203D01*
X033536Y029158D01*
X033506Y029116D01*
X033473Y029075D01*
X033438Y029037D01*
X033399Y029002D01*
X033358Y028970D01*
X033314Y028941D01*
X033269Y028916D01*
X033222Y028894D01*
X033173Y028875D01*
X033123Y028861D01*
X033072Y028850D01*
X033020Y028843D01*
X032968Y028840D01*
X032916Y028841D01*
X032864Y028846D01*
X032813Y028855D01*
X032762Y028868D01*
X032713Y028884D01*
X032664Y028904D01*
X032618Y028928D01*
X032574Y028955D01*
X032531Y028986D01*
X032491Y029019D01*
X032454Y029056D01*
X032420Y029095D01*
X032389Y029137D01*
X032360Y029181D01*
X032336Y029227D01*
X032315Y029274D01*
X032297Y029324D01*
X032284Y029374D01*
X032274Y029425D01*
X032268Y029477D01*
X032266Y029529D01*
X032266Y009844D02*
X032268Y009896D01*
X032274Y009948D01*
X032284Y009999D01*
X032297Y010049D01*
X032315Y010099D01*
X032336Y010146D01*
X032360Y010192D01*
X032389Y010236D01*
X032420Y010278D01*
X032454Y010317D01*
X032491Y010354D01*
X032531Y010387D01*
X032574Y010418D01*
X032618Y010445D01*
X032664Y010469D01*
X032713Y010489D01*
X032762Y010505D01*
X032813Y010518D01*
X032864Y010527D01*
X032916Y010532D01*
X032968Y010533D01*
X033020Y010530D01*
X033072Y010523D01*
X033123Y010512D01*
X033173Y010498D01*
X033222Y010479D01*
X033269Y010457D01*
X033314Y010432D01*
X033358Y010403D01*
X033399Y010371D01*
X033438Y010336D01*
X033473Y010298D01*
X033506Y010257D01*
X033536Y010215D01*
X033562Y010170D01*
X033585Y010123D01*
X033604Y010074D01*
X033620Y010024D01*
X033632Y009974D01*
X033640Y009922D01*
X033644Y009870D01*
X033644Y009818D01*
X033640Y009766D01*
X033632Y009714D01*
X033620Y009664D01*
X033604Y009614D01*
X033585Y009565D01*
X033562Y009518D01*
X033536Y009473D01*
X033506Y009431D01*
X033473Y009390D01*
X033438Y009352D01*
X033399Y009317D01*
X033358Y009285D01*
X033314Y009256D01*
X033269Y009231D01*
X033222Y009209D01*
X033173Y009190D01*
X033123Y009176D01*
X033072Y009165D01*
X033020Y009158D01*
X032968Y009155D01*
X032916Y009156D01*
X032864Y009161D01*
X032813Y009170D01*
X032762Y009183D01*
X032713Y009199D01*
X032664Y009219D01*
X032618Y009243D01*
X032574Y009270D01*
X032531Y009301D01*
X032491Y009334D01*
X032454Y009371D01*
X032420Y009410D01*
X032389Y009452D01*
X032360Y009496D01*
X032336Y009542D01*
X032315Y009589D01*
X032297Y009639D01*
X032284Y009689D01*
X032274Y009740D01*
X032268Y009792D01*
X032266Y009844D01*
D11*
X032955Y009844D03*
X032955Y029529D03*
X007364Y029529D03*
X007364Y009844D03*
D12*
X024455Y011882D03*
X024455Y013782D03*
D13*
X023167Y006021D03*
X022167Y006021D03*
X021167Y006021D03*
X020167Y006021D03*
X019167Y006021D03*
X038220Y017285D03*
X038220Y018285D03*
X038220Y019285D03*
X038220Y020285D03*
X038220Y021285D03*
X038220Y022285D03*
X038220Y023295D03*
X038236Y024279D03*
X038240Y025277D03*
D14*
X032955Y033984D02*
X032955Y034689D01*
X030986Y034689D02*
X030986Y033984D01*
X029018Y033984D02*
X029018Y034689D01*
X027049Y034697D02*
X027049Y033992D01*
X025081Y033992D02*
X025081Y034697D01*
X015238Y034689D02*
X015238Y033984D01*
X013270Y033984D02*
X013270Y034689D01*
X011301Y034689D02*
X011301Y033984D01*
X009333Y033992D02*
X009333Y034697D01*
X007364Y034697D02*
X007364Y033992D01*
X007364Y005382D02*
X007364Y004677D01*
X009333Y004677D02*
X009333Y005382D01*
X011301Y005390D02*
X011301Y004685D01*
X013270Y004685D02*
X013270Y005390D01*
X015238Y005390D02*
X015238Y004685D01*
X029018Y004685D02*
X029018Y005390D01*
X030986Y005390D02*
X030986Y004685D01*
X032955Y004685D02*
X032955Y005390D01*
D15*
X029616Y007679D03*
X028616Y007679D03*
X038270Y008065D03*
X038270Y009065D03*
D16*
X037358Y012675D03*
X036358Y012675D03*
X035358Y012675D03*
X034358Y012675D03*
X034358Y015675D03*
X035358Y015675D03*
X036358Y015675D03*
X037358Y015675D03*
D17*
X020161Y010238D03*
X019960Y010238D03*
D18*
X003533Y017687D03*
X002533Y017687D03*
X002533Y018687D03*
X003533Y018687D03*
X003533Y019687D03*
X002533Y019687D03*
X002533Y020687D03*
X003533Y020687D03*
X003533Y021687D03*
X002533Y021687D03*
D19*
X009805Y021443D02*
X010585Y021443D01*
X012755Y021443D02*
X013535Y021443D01*
X015317Y021443D02*
X016097Y021443D01*
X018267Y021443D02*
X019047Y021443D01*
X021222Y021443D02*
X022002Y021443D01*
X024172Y021443D02*
X024952Y021443D01*
X026734Y021443D02*
X027514Y021443D01*
X029684Y021443D02*
X030464Y021443D01*
X030464Y027353D02*
X029684Y027353D01*
X029684Y029313D02*
X030464Y029313D01*
X030464Y031283D02*
X029684Y031283D01*
X027514Y031283D02*
X026734Y031283D01*
X024952Y031283D02*
X024172Y031283D01*
X024172Y029313D02*
X024952Y029313D01*
X026734Y029313D02*
X027514Y029313D01*
X027514Y027353D02*
X026734Y027353D01*
X024952Y027353D02*
X024172Y027353D01*
X022002Y027353D02*
X021222Y027353D01*
X021222Y029313D02*
X022002Y029313D01*
X022002Y031283D02*
X021222Y031283D01*
X019047Y031283D02*
X018267Y031283D01*
X018267Y029313D02*
X019047Y029313D01*
X019047Y027353D02*
X018267Y027353D01*
X016097Y027353D02*
X015317Y027353D01*
X013535Y027353D02*
X012755Y027353D01*
X012755Y029313D02*
X013535Y029313D01*
X015317Y029313D02*
X016097Y029313D01*
X016097Y031283D02*
X015317Y031283D01*
X013535Y031283D02*
X012755Y031283D01*
X010585Y031283D02*
X009805Y031283D01*
X009805Y029313D02*
X010585Y029313D01*
X010585Y027353D02*
X009805Y027353D01*
D21*
X036399Y011025D03*
M02*
