G75*
G70*
%OFA0B0*%
%FSLAX24Y24*%
%IPPOS*%
%LPD*%
%AMOC8*
5,1,8,0,0,1.08239X$1,22.5*
%
%ADD10C,0.0000*%
%ADD11C,0.0080*%
%ADD12C,0.0079*%
D10*
X004214Y003151D02*
X004214Y006695D01*
X000671Y006695D01*
X000671Y032679D01*
X004214Y032679D01*
X004214Y036222D01*
X036104Y036222D01*
X036104Y032679D01*
X039648Y032679D01*
X039648Y006695D01*
X036104Y006695D01*
X036104Y003151D01*
X004214Y003151D01*
X006675Y009844D02*
X006677Y009896D01*
X006683Y009948D01*
X006693Y009999D01*
X006706Y010049D01*
X006724Y010099D01*
X006745Y010146D01*
X006769Y010192D01*
X006798Y010236D01*
X006829Y010278D01*
X006863Y010317D01*
X006900Y010354D01*
X006940Y010387D01*
X006983Y010418D01*
X007027Y010445D01*
X007073Y010469D01*
X007122Y010489D01*
X007171Y010505D01*
X007222Y010518D01*
X007273Y010527D01*
X007325Y010532D01*
X007377Y010533D01*
X007429Y010530D01*
X007481Y010523D01*
X007532Y010512D01*
X007582Y010498D01*
X007631Y010479D01*
X007678Y010457D01*
X007723Y010432D01*
X007767Y010403D01*
X007808Y010371D01*
X007847Y010336D01*
X007882Y010298D01*
X007915Y010257D01*
X007945Y010215D01*
X007971Y010170D01*
X007994Y010123D01*
X008013Y010074D01*
X008029Y010024D01*
X008041Y009974D01*
X008049Y009922D01*
X008053Y009870D01*
X008053Y009818D01*
X008049Y009766D01*
X008041Y009714D01*
X008029Y009664D01*
X008013Y009614D01*
X007994Y009565D01*
X007971Y009518D01*
X007945Y009473D01*
X007915Y009431D01*
X007882Y009390D01*
X007847Y009352D01*
X007808Y009317D01*
X007767Y009285D01*
X007723Y009256D01*
X007678Y009231D01*
X007631Y009209D01*
X007582Y009190D01*
X007532Y009176D01*
X007481Y009165D01*
X007429Y009158D01*
X007377Y009155D01*
X007325Y009156D01*
X007273Y009161D01*
X007222Y009170D01*
X007171Y009183D01*
X007122Y009199D01*
X007073Y009219D01*
X007027Y009243D01*
X006983Y009270D01*
X006940Y009301D01*
X006900Y009334D01*
X006863Y009371D01*
X006829Y009410D01*
X006798Y009452D01*
X006769Y009496D01*
X006745Y009542D01*
X006724Y009589D01*
X006706Y009639D01*
X006693Y009689D01*
X006683Y009740D01*
X006677Y009792D01*
X006675Y009844D01*
X006675Y029529D02*
X006677Y029581D01*
X006683Y029633D01*
X006693Y029684D01*
X006706Y029734D01*
X006724Y029784D01*
X006745Y029831D01*
X006769Y029877D01*
X006798Y029921D01*
X006829Y029963D01*
X006863Y030002D01*
X006900Y030039D01*
X006940Y030072D01*
X006983Y030103D01*
X007027Y030130D01*
X007073Y030154D01*
X007122Y030174D01*
X007171Y030190D01*
X007222Y030203D01*
X007273Y030212D01*
X007325Y030217D01*
X007377Y030218D01*
X007429Y030215D01*
X007481Y030208D01*
X007532Y030197D01*
X007582Y030183D01*
X007631Y030164D01*
X007678Y030142D01*
X007723Y030117D01*
X007767Y030088D01*
X007808Y030056D01*
X007847Y030021D01*
X007882Y029983D01*
X007915Y029942D01*
X007945Y029900D01*
X007971Y029855D01*
X007994Y029808D01*
X008013Y029759D01*
X008029Y029709D01*
X008041Y029659D01*
X008049Y029607D01*
X008053Y029555D01*
X008053Y029503D01*
X008049Y029451D01*
X008041Y029399D01*
X008029Y029349D01*
X008013Y029299D01*
X007994Y029250D01*
X007971Y029203D01*
X007945Y029158D01*
X007915Y029116D01*
X007882Y029075D01*
X007847Y029037D01*
X007808Y029002D01*
X007767Y028970D01*
X007723Y028941D01*
X007678Y028916D01*
X007631Y028894D01*
X007582Y028875D01*
X007532Y028861D01*
X007481Y028850D01*
X007429Y028843D01*
X007377Y028840D01*
X007325Y028841D01*
X007273Y028846D01*
X007222Y028855D01*
X007171Y028868D01*
X007122Y028884D01*
X007073Y028904D01*
X007027Y028928D01*
X006983Y028955D01*
X006940Y028986D01*
X006900Y029019D01*
X006863Y029056D01*
X006829Y029095D01*
X006798Y029137D01*
X006769Y029181D01*
X006745Y029227D01*
X006724Y029274D01*
X006706Y029324D01*
X006693Y029374D01*
X006683Y029425D01*
X006677Y029477D01*
X006675Y029529D01*
X032266Y029529D02*
X032268Y029581D01*
X032274Y029633D01*
X032284Y029684D01*
X032297Y029734D01*
X032315Y029784D01*
X032336Y029831D01*
X032360Y029877D01*
X032389Y029921D01*
X032420Y029963D01*
X032454Y030002D01*
X032491Y030039D01*
X032531Y030072D01*
X032574Y030103D01*
X032618Y030130D01*
X032664Y030154D01*
X032713Y030174D01*
X032762Y030190D01*
X032813Y030203D01*
X032864Y030212D01*
X032916Y030217D01*
X032968Y030218D01*
X033020Y030215D01*
X033072Y030208D01*
X033123Y030197D01*
X033173Y030183D01*
X033222Y030164D01*
X033269Y030142D01*
X033314Y030117D01*
X033358Y030088D01*
X033399Y030056D01*
X033438Y030021D01*
X033473Y029983D01*
X033506Y029942D01*
X033536Y029900D01*
X033562Y029855D01*
X033585Y029808D01*
X033604Y029759D01*
X033620Y029709D01*
X033632Y029659D01*
X033640Y029607D01*
X033644Y029555D01*
X033644Y029503D01*
X033640Y029451D01*
X033632Y029399D01*
X033620Y029349D01*
X033604Y029299D01*
X033585Y029250D01*
X033562Y029203D01*
X033536Y029158D01*
X033506Y029116D01*
X033473Y029075D01*
X033438Y029037D01*
X033399Y029002D01*
X033358Y028970D01*
X033314Y028941D01*
X033269Y028916D01*
X033222Y028894D01*
X033173Y028875D01*
X033123Y028861D01*
X033072Y028850D01*
X033020Y028843D01*
X032968Y028840D01*
X032916Y028841D01*
X032864Y028846D01*
X032813Y028855D01*
X032762Y028868D01*
X032713Y028884D01*
X032664Y028904D01*
X032618Y028928D01*
X032574Y028955D01*
X032531Y028986D01*
X032491Y029019D01*
X032454Y029056D01*
X032420Y029095D01*
X032389Y029137D01*
X032360Y029181D01*
X032336Y029227D01*
X032315Y029274D01*
X032297Y029324D01*
X032284Y029374D01*
X032274Y029425D01*
X032268Y029477D01*
X032266Y029529D01*
X032266Y009844D02*
X032268Y009896D01*
X032274Y009948D01*
X032284Y009999D01*
X032297Y010049D01*
X032315Y010099D01*
X032336Y010146D01*
X032360Y010192D01*
X032389Y010236D01*
X032420Y010278D01*
X032454Y010317D01*
X032491Y010354D01*
X032531Y010387D01*
X032574Y010418D01*
X032618Y010445D01*
X032664Y010469D01*
X032713Y010489D01*
X032762Y010505D01*
X032813Y010518D01*
X032864Y010527D01*
X032916Y010532D01*
X032968Y010533D01*
X033020Y010530D01*
X033072Y010523D01*
X033123Y010512D01*
X033173Y010498D01*
X033222Y010479D01*
X033269Y010457D01*
X033314Y010432D01*
X033358Y010403D01*
X033399Y010371D01*
X033438Y010336D01*
X033473Y010298D01*
X033506Y010257D01*
X033536Y010215D01*
X033562Y010170D01*
X033585Y010123D01*
X033604Y010074D01*
X033620Y010024D01*
X033632Y009974D01*
X033640Y009922D01*
X033644Y009870D01*
X033644Y009818D01*
X033640Y009766D01*
X033632Y009714D01*
X033620Y009664D01*
X033604Y009614D01*
X033585Y009565D01*
X033562Y009518D01*
X033536Y009473D01*
X033506Y009431D01*
X033473Y009390D01*
X033438Y009352D01*
X033399Y009317D01*
X033358Y009285D01*
X033314Y009256D01*
X033269Y009231D01*
X033222Y009209D01*
X033173Y009190D01*
X033123Y009176D01*
X033072Y009165D01*
X033020Y009158D01*
X032968Y009155D01*
X032916Y009156D01*
X032864Y009161D01*
X032813Y009170D01*
X032762Y009183D01*
X032713Y009199D01*
X032664Y009219D01*
X032618Y009243D01*
X032574Y009270D01*
X032531Y009301D01*
X032491Y009334D01*
X032454Y009371D01*
X032420Y009410D01*
X032389Y009452D01*
X032360Y009496D01*
X032336Y009542D01*
X032315Y009589D01*
X032297Y009639D01*
X032284Y009689D01*
X032274Y009740D01*
X032268Y009792D01*
X032266Y009844D01*
D11*
X031931Y008112D02*
X031892Y008112D01*
X031892Y007718D01*
X031459Y007994D01*
X031459Y007364D01*
X031892Y007679D01*
X031892Y007246D01*
X030317Y007246D01*
X030317Y008112D01*
X031892Y008112D01*
X031931Y008112D02*
X031931Y007246D01*
X031892Y007246D01*
X031931Y007246D02*
X032836Y007246D01*
X032836Y008112D01*
X031931Y008112D01*
X031892Y007718D02*
X031892Y007679D01*
X029982Y007285D02*
X029982Y008073D01*
X028250Y008073D01*
X028250Y007285D01*
X029982Y007285D01*
X026852Y007482D02*
X025671Y007482D01*
X025671Y004332D01*
X026852Y004332D01*
X026852Y007482D01*
X025553Y007128D02*
X025238Y007128D01*
X025396Y007285D02*
X025396Y006970D01*
X023667Y006521D02*
X023667Y005521D01*
X018667Y005521D01*
X018667Y006521D01*
X023667Y006521D01*
X021687Y005108D02*
X019640Y005108D01*
X019640Y004321D01*
X021687Y004321D01*
X021687Y005108D01*
X019994Y004084D02*
X019758Y004084D01*
X019876Y003966D02*
X019876Y004202D01*
X018972Y008415D02*
X018825Y008563D01*
X018825Y012008D01*
X018972Y012155D01*
X019022Y012155D01*
X022417Y012155D01*
X022565Y012008D01*
X022565Y008563D01*
X022417Y008415D01*
X018972Y008415D01*
X018972Y011860D02*
X018974Y011884D01*
X018980Y011907D01*
X018989Y011929D01*
X019002Y011949D01*
X019017Y011967D01*
X019036Y011982D01*
X019057Y011994D01*
X019079Y012002D01*
X019102Y012007D01*
X019126Y012008D01*
X019150Y012005D01*
X019172Y011998D01*
X019194Y011988D01*
X019214Y011975D01*
X019231Y011958D01*
X019245Y011939D01*
X019256Y011918D01*
X019264Y011895D01*
X019268Y011872D01*
X019268Y011848D01*
X019264Y011825D01*
X019256Y011802D01*
X019245Y011781D01*
X019231Y011762D01*
X019214Y011745D01*
X019194Y011732D01*
X019172Y011722D01*
X019150Y011715D01*
X019126Y011712D01*
X019102Y011713D01*
X019079Y011718D01*
X019057Y011726D01*
X019036Y011738D01*
X019017Y011753D01*
X019002Y011771D01*
X018989Y011791D01*
X018980Y011813D01*
X018974Y011836D01*
X018972Y011860D01*
X019785Y014391D02*
X017974Y014391D01*
X017974Y016517D01*
X019785Y016517D01*
X019785Y016439D01*
X019785Y014391D01*
X021106Y014750D02*
X021894Y014750D01*
X021894Y016797D01*
X021106Y016797D01*
X021106Y014750D01*
X022012Y014986D02*
X022248Y014986D01*
X022130Y014868D02*
X022130Y015104D01*
X023707Y014801D02*
X025203Y014801D01*
X025203Y010864D01*
X023707Y010864D01*
X023707Y014801D01*
X024455Y013344D02*
X024455Y013108D01*
X024730Y013108D01*
X024730Y012911D02*
X024179Y012911D01*
X024179Y012754D01*
X024730Y012754D01*
X024730Y012911D01*
X024455Y013108D02*
X024179Y013108D01*
X024179Y012557D02*
X024455Y012557D01*
X024730Y012557D01*
X024455Y012557D02*
X024455Y012321D01*
X018126Y016202D02*
X018128Y016224D01*
X018133Y016244D01*
X018143Y016264D01*
X018155Y016282D01*
X018170Y016297D01*
X018188Y016309D01*
X018208Y016319D01*
X018228Y016324D01*
X018250Y016326D01*
X018272Y016324D01*
X018292Y016319D01*
X018312Y016309D01*
X018330Y016297D01*
X018345Y016282D01*
X018357Y016264D01*
X018367Y016244D01*
X018372Y016224D01*
X018374Y016202D01*
X018372Y016180D01*
X018367Y016160D01*
X018357Y016140D01*
X018345Y016122D01*
X018330Y016107D01*
X018312Y016095D01*
X018292Y016085D01*
X018272Y016080D01*
X018250Y016078D01*
X018228Y016080D01*
X018208Y016085D01*
X018188Y016095D01*
X018170Y016107D01*
X018155Y016122D01*
X018143Y016140D01*
X018133Y016160D01*
X018128Y016180D01*
X018126Y016202D01*
X018703Y019254D02*
X017128Y019254D01*
X017128Y020120D01*
X018703Y020120D01*
X018703Y019726D01*
X018270Y020002D01*
X018270Y019372D01*
X018703Y019687D01*
X018703Y019254D01*
X018742Y019254D01*
X018742Y020120D01*
X018703Y020120D01*
X018742Y020120D02*
X019648Y020120D01*
X019648Y019254D01*
X018742Y019254D01*
X018703Y019687D02*
X018703Y019726D01*
X017699Y020671D02*
X016714Y020671D01*
X016714Y021458D01*
X016616Y021458D01*
X016714Y021458D02*
X016714Y021950D01*
X017699Y020966D01*
X017699Y021458D01*
X017797Y021458D01*
X017699Y021458D02*
X017699Y022147D01*
X016714Y022147D01*
X016714Y021950D01*
X017699Y020966D02*
X017699Y020671D01*
X019864Y020573D02*
X014648Y020573D01*
X014648Y032088D01*
X019864Y032088D01*
X019864Y020573D01*
X020553Y020573D02*
X025770Y020573D01*
X025770Y032088D01*
X020553Y032088D01*
X020553Y020573D01*
X022620Y020671D02*
X023604Y020671D01*
X023604Y020966D01*
X022620Y021950D01*
X022620Y021458D01*
X022522Y021458D01*
X022620Y021458D02*
X022620Y020671D01*
X023033Y020120D02*
X023033Y019254D01*
X024608Y019254D01*
X024608Y019687D01*
X024175Y019372D01*
X024175Y020002D01*
X024608Y019726D01*
X024608Y019687D01*
X024608Y019726D02*
X024608Y020120D01*
X024648Y020120D01*
X024648Y019254D01*
X024608Y019254D01*
X024648Y019254D02*
X025553Y019254D01*
X025553Y020120D01*
X024648Y020120D01*
X024608Y020120D02*
X023033Y020120D01*
X023604Y020966D02*
X023604Y021458D01*
X023703Y021458D01*
X023604Y021458D02*
X023604Y022147D01*
X022620Y022147D01*
X022620Y021950D01*
X026065Y020573D02*
X031281Y020573D01*
X031281Y032088D01*
X026065Y032088D01*
X026065Y020573D01*
X028132Y020671D02*
X029116Y020671D01*
X029116Y020966D01*
X028132Y021950D01*
X028132Y021458D01*
X028033Y021458D01*
X028132Y021458D02*
X028132Y020671D01*
X028545Y020120D02*
X028545Y019254D01*
X030120Y019254D01*
X030120Y019687D01*
X029687Y019372D01*
X029687Y020002D01*
X030120Y019726D01*
X030120Y019687D01*
X030120Y019726D02*
X030120Y020120D01*
X030159Y020120D01*
X030159Y019254D01*
X030120Y019254D01*
X030159Y019254D02*
X031065Y019254D01*
X031065Y020120D01*
X030159Y020120D01*
X030120Y020120D02*
X028545Y020120D01*
X029116Y020966D02*
X029116Y021458D01*
X029214Y021458D01*
X029116Y021458D02*
X029116Y022147D01*
X028132Y022147D01*
X028132Y021950D01*
X027935Y027364D02*
X028624Y027364D01*
X028575Y027364D02*
X028577Y027377D01*
X028582Y027389D01*
X028591Y027400D01*
X028601Y027408D01*
X028614Y027412D01*
X028627Y027413D01*
X028640Y027410D01*
X028652Y027404D01*
X028662Y027395D01*
X028669Y027384D01*
X028673Y027371D01*
X028673Y027357D01*
X028669Y027344D01*
X028662Y027333D01*
X028652Y027324D01*
X028640Y027318D01*
X028627Y027315D01*
X028614Y027316D01*
X028601Y027320D01*
X028591Y027328D01*
X028582Y027339D01*
X028577Y027351D01*
X028575Y027364D01*
X028624Y027364D02*
X028624Y029135D01*
X028427Y028939D02*
X028821Y029332D01*
X029116Y029332D01*
X029067Y029332D02*
X029069Y029345D01*
X029074Y029357D01*
X029083Y029368D01*
X029093Y029376D01*
X029106Y029380D01*
X029119Y029381D01*
X029132Y029378D01*
X029144Y029372D01*
X029154Y029363D01*
X029161Y029352D01*
X029165Y029339D01*
X029165Y029325D01*
X029161Y029312D01*
X029154Y029301D01*
X029144Y029292D01*
X029132Y029286D01*
X029119Y029283D01*
X029106Y029284D01*
X029093Y029288D01*
X029083Y029296D01*
X029074Y029307D01*
X029069Y029319D01*
X029067Y029332D01*
X029116Y029332D02*
X029116Y030120D01*
X028033Y030120D01*
X028033Y029332D01*
X027935Y029332D01*
X028624Y029726D02*
X028624Y031301D01*
X028575Y031301D02*
X028577Y031314D01*
X028582Y031326D01*
X028591Y031337D01*
X028601Y031345D01*
X028614Y031349D01*
X028627Y031350D01*
X028640Y031347D01*
X028652Y031341D01*
X028662Y031332D01*
X028669Y031321D01*
X028673Y031308D01*
X028673Y031294D01*
X028669Y031281D01*
X028662Y031270D01*
X028652Y031261D01*
X028640Y031255D01*
X028627Y031252D01*
X028614Y031253D01*
X028601Y031257D01*
X028591Y031265D01*
X028582Y031276D01*
X028577Y031288D01*
X028575Y031301D01*
X028624Y031301D02*
X029214Y031301D01*
X028624Y031301D02*
X027935Y031301D01*
X029116Y029332D02*
X029214Y029332D01*
X029214Y027364D02*
X028624Y027364D01*
X023703Y027364D02*
X023112Y027364D01*
X023063Y027364D02*
X023065Y027377D01*
X023070Y027389D01*
X023079Y027400D01*
X023089Y027408D01*
X023102Y027412D01*
X023115Y027413D01*
X023128Y027410D01*
X023140Y027404D01*
X023150Y027395D01*
X023157Y027384D01*
X023161Y027371D01*
X023161Y027357D01*
X023157Y027344D01*
X023150Y027333D01*
X023140Y027324D01*
X023128Y027318D01*
X023115Y027315D01*
X023102Y027316D01*
X023089Y027320D01*
X023079Y027328D01*
X023070Y027339D01*
X023065Y027351D01*
X023063Y027364D01*
X023112Y027364D02*
X023112Y029135D01*
X022915Y028939D02*
X023309Y029332D01*
X023604Y029332D01*
X023555Y029332D02*
X023557Y029345D01*
X023562Y029357D01*
X023571Y029368D01*
X023581Y029376D01*
X023594Y029380D01*
X023607Y029381D01*
X023620Y029378D01*
X023632Y029372D01*
X023642Y029363D01*
X023649Y029352D01*
X023653Y029339D01*
X023653Y029325D01*
X023649Y029312D01*
X023642Y029301D01*
X023632Y029292D01*
X023620Y029286D01*
X023607Y029283D01*
X023594Y029284D01*
X023581Y029288D01*
X023571Y029296D01*
X023562Y029307D01*
X023557Y029319D01*
X023555Y029332D01*
X023604Y029332D02*
X023604Y030120D01*
X022522Y030120D01*
X022522Y029332D01*
X022423Y029332D01*
X023112Y029726D02*
X023112Y031301D01*
X023063Y031301D02*
X023065Y031314D01*
X023070Y031326D01*
X023079Y031337D01*
X023089Y031345D01*
X023102Y031349D01*
X023115Y031350D01*
X023128Y031347D01*
X023140Y031341D01*
X023150Y031332D01*
X023157Y031321D01*
X023161Y031308D01*
X023161Y031294D01*
X023157Y031281D01*
X023150Y031270D01*
X023140Y031261D01*
X023128Y031255D01*
X023115Y031252D01*
X023102Y031253D01*
X023089Y031257D01*
X023079Y031265D01*
X023070Y031276D01*
X023065Y031288D01*
X023063Y031301D01*
X023112Y031301D02*
X023703Y031301D01*
X023112Y031301D02*
X022423Y031301D01*
X023604Y029332D02*
X023703Y029332D01*
X023112Y027364D02*
X022423Y027364D01*
X017797Y027364D02*
X017207Y027364D01*
X017158Y027364D02*
X017160Y027377D01*
X017165Y027389D01*
X017174Y027400D01*
X017184Y027408D01*
X017197Y027412D01*
X017210Y027413D01*
X017223Y027410D01*
X017235Y027404D01*
X017245Y027395D01*
X017252Y027384D01*
X017256Y027371D01*
X017256Y027357D01*
X017252Y027344D01*
X017245Y027333D01*
X017235Y027324D01*
X017223Y027318D01*
X017210Y027315D01*
X017197Y027316D01*
X017184Y027320D01*
X017174Y027328D01*
X017165Y027339D01*
X017160Y027351D01*
X017158Y027364D01*
X017207Y027364D02*
X016518Y027364D01*
X017207Y027364D02*
X017207Y029135D01*
X017403Y029332D02*
X017010Y028939D01*
X017403Y029332D02*
X017699Y029332D01*
X017650Y029332D02*
X017652Y029345D01*
X017657Y029357D01*
X017666Y029368D01*
X017676Y029376D01*
X017689Y029380D01*
X017702Y029381D01*
X017715Y029378D01*
X017727Y029372D01*
X017737Y029363D01*
X017744Y029352D01*
X017748Y029339D01*
X017748Y029325D01*
X017744Y029312D01*
X017737Y029301D01*
X017727Y029292D01*
X017715Y029286D01*
X017702Y029283D01*
X017689Y029284D01*
X017676Y029288D01*
X017666Y029296D01*
X017657Y029307D01*
X017652Y029319D01*
X017650Y029332D01*
X017699Y029332D02*
X017699Y030120D01*
X016616Y030120D01*
X016616Y029332D01*
X016518Y029332D01*
X017207Y029726D02*
X017207Y031301D01*
X017158Y031301D02*
X017160Y031314D01*
X017165Y031326D01*
X017174Y031337D01*
X017184Y031345D01*
X017197Y031349D01*
X017210Y031350D01*
X017223Y031347D01*
X017235Y031341D01*
X017245Y031332D01*
X017252Y031321D01*
X017256Y031308D01*
X017256Y031294D01*
X017252Y031281D01*
X017245Y031270D01*
X017235Y031261D01*
X017223Y031255D01*
X017210Y031252D01*
X017197Y031253D01*
X017184Y031257D01*
X017174Y031265D01*
X017165Y031276D01*
X017160Y031288D01*
X017158Y031301D01*
X017207Y031301D02*
X016518Y031301D01*
X017207Y031301D02*
X017797Y031301D01*
X017797Y029332D02*
X017699Y029332D01*
X014352Y032088D02*
X009136Y032088D01*
X009136Y020573D01*
X014352Y020573D01*
X014352Y032088D01*
X012285Y031301D02*
X011695Y031301D01*
X011646Y031301D02*
X011648Y031314D01*
X011653Y031326D01*
X011662Y031337D01*
X011672Y031345D01*
X011685Y031349D01*
X011698Y031350D01*
X011711Y031347D01*
X011723Y031341D01*
X011733Y031332D01*
X011740Y031321D01*
X011744Y031308D01*
X011744Y031294D01*
X011740Y031281D01*
X011733Y031270D01*
X011723Y031261D01*
X011711Y031255D01*
X011698Y031252D01*
X011685Y031253D01*
X011672Y031257D01*
X011662Y031265D01*
X011653Y031276D01*
X011648Y031288D01*
X011646Y031301D01*
X011695Y031301D02*
X011006Y031301D01*
X011695Y031301D02*
X011695Y029726D01*
X011892Y029332D02*
X011498Y028939D01*
X011695Y029135D02*
X011695Y027364D01*
X011646Y027364D02*
X011648Y027377D01*
X011653Y027389D01*
X011662Y027400D01*
X011672Y027408D01*
X011685Y027412D01*
X011698Y027413D01*
X011711Y027410D01*
X011723Y027404D01*
X011733Y027395D01*
X011740Y027384D01*
X011744Y027371D01*
X011744Y027357D01*
X011740Y027344D01*
X011733Y027333D01*
X011723Y027324D01*
X011711Y027318D01*
X011698Y027315D01*
X011685Y027316D01*
X011672Y027320D01*
X011662Y027328D01*
X011653Y027339D01*
X011648Y027351D01*
X011646Y027364D01*
X011695Y027364D02*
X011006Y027364D01*
X011695Y027364D02*
X012285Y027364D01*
X012285Y029332D02*
X012187Y029332D01*
X012138Y029332D02*
X012140Y029345D01*
X012145Y029357D01*
X012154Y029368D01*
X012164Y029376D01*
X012177Y029380D01*
X012190Y029381D01*
X012203Y029378D01*
X012215Y029372D01*
X012225Y029363D01*
X012232Y029352D01*
X012236Y029339D01*
X012236Y029325D01*
X012232Y029312D01*
X012225Y029301D01*
X012215Y029292D01*
X012203Y029286D01*
X012190Y029283D01*
X012177Y029284D01*
X012164Y029288D01*
X012154Y029296D01*
X012145Y029307D01*
X012140Y029319D01*
X012138Y029332D01*
X012187Y029332D02*
X012187Y030120D01*
X011104Y030120D01*
X011104Y029332D01*
X011006Y029332D01*
X011892Y029332D02*
X012187Y029332D01*
X012187Y022147D02*
X011203Y022147D01*
X011203Y021950D01*
X012187Y020966D01*
X012187Y021458D01*
X012285Y021458D01*
X012187Y021458D02*
X012187Y022147D01*
X011203Y021950D02*
X011203Y021458D01*
X011104Y021458D01*
X011203Y021458D02*
X011203Y020671D01*
X012187Y020671D01*
X012187Y020966D01*
X011616Y020120D02*
X011616Y019254D01*
X013191Y019254D01*
X013191Y019687D01*
X012758Y019372D01*
X012758Y020002D01*
X013191Y019726D01*
X013191Y019687D01*
X013191Y019726D02*
X013191Y020120D01*
X013230Y020120D01*
X013230Y019254D01*
X013191Y019254D01*
X013230Y019254D02*
X014136Y019254D01*
X014136Y020120D01*
X013230Y020120D01*
X013191Y020120D02*
X011616Y020120D01*
X005340Y013427D02*
X004553Y013427D01*
X004553Y011380D01*
X005340Y011380D01*
X005340Y013427D01*
X005577Y011734D02*
X005577Y011498D01*
X005695Y011616D02*
X005459Y011616D01*
X005340Y011076D02*
X004553Y011076D01*
X004553Y009029D01*
X005340Y009029D01*
X005340Y011076D01*
X004057Y011273D02*
X004057Y010092D01*
X001695Y010092D01*
X001695Y011273D01*
X002285Y011273D01*
X002285Y011470D01*
X003466Y011470D01*
X003466Y011273D01*
X002285Y011273D01*
X003466Y011273D02*
X004057Y011273D01*
X005577Y009384D02*
X005577Y009147D01*
X005695Y009265D02*
X005459Y009265D01*
X011665Y008195D02*
X011665Y007821D01*
X011990Y007821D01*
X012620Y007821D02*
X012945Y007821D01*
X012945Y008195D01*
X013155Y008352D02*
X013155Y007919D01*
X013431Y007919D01*
X013982Y007919D02*
X014258Y007919D01*
X014258Y008352D01*
X013785Y008588D02*
X013628Y008588D01*
X012384Y008490D02*
X012226Y008490D01*
X013108Y009887D02*
X015155Y009887D01*
X015155Y010675D01*
X013108Y010675D01*
X013108Y009887D01*
X014801Y010911D02*
X015037Y010911D01*
X014919Y011029D02*
X014919Y010793D01*
X033899Y007128D02*
X034214Y007128D01*
X034057Y007285D02*
X034057Y006970D01*
X034333Y007482D02*
X035514Y007482D01*
X035514Y004332D01*
X034333Y004332D01*
X034333Y007482D01*
X035770Y010080D02*
X037029Y010080D01*
X037029Y011970D01*
X035770Y011970D01*
X035770Y010080D01*
X035878Y011773D02*
X035880Y011791D01*
X035886Y011809D01*
X035895Y011825D01*
X035907Y011838D01*
X035922Y011849D01*
X035939Y011857D01*
X035957Y011861D01*
X035975Y011861D01*
X035993Y011857D01*
X036010Y011849D01*
X036025Y011838D01*
X036037Y011825D01*
X036046Y011809D01*
X036052Y011791D01*
X036054Y011773D01*
X036052Y011755D01*
X036046Y011737D01*
X036037Y011721D01*
X036025Y011708D01*
X036010Y011697D01*
X035993Y011689D01*
X035975Y011685D01*
X035957Y011685D01*
X035939Y011689D01*
X035922Y011697D01*
X035907Y011708D01*
X035895Y011721D01*
X035886Y011737D01*
X035880Y011755D01*
X035878Y011773D01*
X037876Y009431D02*
X038663Y009431D01*
X038663Y007698D01*
X037876Y007698D01*
X037876Y009431D01*
X037827Y026783D02*
X038614Y026783D01*
X038614Y028830D01*
X037827Y028830D01*
X037827Y026783D01*
X038732Y027019D02*
X038968Y027019D01*
X038850Y026901D02*
X038850Y027137D01*
D12*
X038720Y022785D02*
X037720Y022785D01*
X037720Y016785D01*
X038720Y016785D01*
X038720Y022785D01*
X031035Y018948D02*
X031035Y018063D01*
X029362Y018063D01*
X029362Y018948D01*
X031035Y018948D01*
X031626Y015504D02*
X029953Y015504D01*
X029953Y014618D01*
X031626Y014618D01*
X031626Y015504D01*
X029756Y015504D02*
X029756Y014618D01*
X028083Y014618D01*
X028083Y015504D01*
X029756Y015504D01*
X028230Y013830D02*
X028230Y012157D01*
X027344Y012157D01*
X027344Y013830D01*
X028230Y013830D01*
X026508Y014618D02*
X026508Y012945D01*
X025622Y012945D01*
X025622Y014618D01*
X026508Y014618D01*
X026508Y012649D02*
X025622Y012649D01*
X025622Y010976D01*
X026508Y010976D01*
X026508Y012649D01*
X027295Y011862D02*
X028968Y011862D01*
X028968Y010976D01*
X027295Y010976D01*
X027295Y011862D01*
X025523Y018063D02*
X023850Y018063D01*
X023850Y018948D01*
X025523Y018948D01*
X025523Y018063D01*
X019618Y018063D02*
X019618Y018948D01*
X017945Y018948D01*
X017945Y018063D01*
X019618Y018063D01*
X016567Y016094D02*
X015681Y016094D01*
X015681Y014421D01*
X016567Y014421D01*
X016567Y016094D01*
X014106Y018063D02*
X014106Y018948D01*
X012433Y018948D01*
X012433Y018063D01*
X014106Y018063D01*
X008594Y013240D02*
X008594Y011567D01*
X007709Y011567D01*
X007709Y013240D01*
X008594Y013240D01*
X009677Y012452D02*
X009677Y010779D01*
X010563Y010779D01*
X010563Y012452D01*
X009677Y012452D01*
X009086Y010681D02*
X009086Y009795D01*
X010760Y009795D01*
X010760Y010681D01*
X009086Y010681D01*
X011252Y010681D02*
X011252Y009795D01*
X012925Y009795D01*
X012925Y010681D01*
X011252Y010681D01*
X009775Y008122D02*
X008102Y008122D01*
X008102Y007236D01*
X009775Y007236D01*
X009775Y008122D01*
X006035Y008220D02*
X006035Y006547D01*
X005149Y006547D01*
X005149Y008220D01*
X006035Y008220D01*
X014598Y008909D02*
X014598Y007236D01*
X015484Y007236D01*
X015484Y008909D01*
X014598Y008909D01*
X015779Y009204D02*
X015779Y008319D01*
X017453Y008319D01*
X017453Y009204D01*
X015779Y009204D01*
X015779Y008122D02*
X017453Y008122D01*
X017453Y007236D01*
X015779Y007236D01*
X015779Y008122D01*
X016764Y006547D02*
X016764Y005661D01*
X018437Y005661D01*
X018437Y006547D01*
X016764Y006547D01*
X017748Y005169D02*
X019421Y005169D01*
X019421Y004283D01*
X017748Y004283D01*
X017748Y005169D01*
X006035Y017472D02*
X005149Y017472D01*
X005149Y019145D01*
X006035Y019145D01*
X006035Y017472D01*
X006724Y022492D02*
X006724Y023378D01*
X008398Y023378D01*
X008398Y022492D01*
X006724Y022492D01*
X034234Y008417D02*
X034234Y007531D01*
X035907Y007531D01*
X035907Y008417D01*
X034234Y008417D01*
X035858Y008417D02*
X035858Y007531D01*
X037531Y007531D01*
X037531Y008417D01*
X035858Y008417D01*
X035858Y008515D02*
X037531Y008515D01*
X037531Y009401D01*
X035858Y009401D01*
X035858Y008515D01*
M02*
