G75*
G70*
%OFA0B0*%
%FSLAX24Y24*%
%IPPOS*%
%LPD*%
%AMOC8*
5,1,8,0,0,1.08239X$1,22.5*
%
%ADD10C,0.0000*%
%ADD11R,0.0740X0.0740*%
%ADD12C,0.0740*%
%ADD13C,0.1080*%
%ADD14C,0.1360*%
%ADD15C,0.0640*%
%ADD16OC8,0.0640*%
%ADD17C,0.0476*%
D10*
X001850Y003408D02*
X001850Y017581D01*
X016811Y017581D01*
X016811Y003408D01*
X001850Y003408D01*
X003572Y011394D02*
X003574Y011444D01*
X003580Y011494D01*
X003590Y011543D01*
X003603Y011592D01*
X003621Y011639D01*
X003642Y011685D01*
X003666Y011728D01*
X003694Y011770D01*
X003725Y011810D01*
X003759Y011847D01*
X003796Y011881D01*
X003836Y011912D01*
X003878Y011940D01*
X003921Y011964D01*
X003967Y011985D01*
X004014Y012003D01*
X004063Y012016D01*
X004112Y012026D01*
X004162Y012032D01*
X004212Y012034D01*
X004262Y012032D01*
X004312Y012026D01*
X004361Y012016D01*
X004410Y012003D01*
X004457Y011985D01*
X004503Y011964D01*
X004546Y011940D01*
X004588Y011912D01*
X004628Y011881D01*
X004665Y011847D01*
X004699Y011810D01*
X004730Y011770D01*
X004758Y011728D01*
X004782Y011685D01*
X004803Y011639D01*
X004821Y011592D01*
X004834Y011543D01*
X004844Y011494D01*
X004850Y011444D01*
X004852Y011394D01*
X004850Y011344D01*
X004844Y011294D01*
X004834Y011245D01*
X004821Y011196D01*
X004803Y011149D01*
X004782Y011103D01*
X004758Y011060D01*
X004730Y011018D01*
X004699Y010978D01*
X004665Y010941D01*
X004628Y010907D01*
X004588Y010876D01*
X004546Y010848D01*
X004503Y010824D01*
X004457Y010803D01*
X004410Y010785D01*
X004361Y010772D01*
X004312Y010762D01*
X004262Y010756D01*
X004212Y010754D01*
X004162Y010756D01*
X004112Y010762D01*
X004063Y010772D01*
X004014Y010785D01*
X003967Y010803D01*
X003921Y010824D01*
X003878Y010848D01*
X003836Y010876D01*
X003796Y010907D01*
X003759Y010941D01*
X003725Y010978D01*
X003694Y011018D01*
X003666Y011060D01*
X003642Y011103D01*
X003621Y011149D01*
X003603Y011196D01*
X003590Y011245D01*
X003580Y011294D01*
X003574Y011344D01*
X003572Y011394D01*
X003572Y015894D02*
X003574Y015944D01*
X003580Y015994D01*
X003590Y016043D01*
X003603Y016092D01*
X003621Y016139D01*
X003642Y016185D01*
X003666Y016228D01*
X003694Y016270D01*
X003725Y016310D01*
X003759Y016347D01*
X003796Y016381D01*
X003836Y016412D01*
X003878Y016440D01*
X003921Y016464D01*
X003967Y016485D01*
X004014Y016503D01*
X004063Y016516D01*
X004112Y016526D01*
X004162Y016532D01*
X004212Y016534D01*
X004262Y016532D01*
X004312Y016526D01*
X004361Y016516D01*
X004410Y016503D01*
X004457Y016485D01*
X004503Y016464D01*
X004546Y016440D01*
X004588Y016412D01*
X004628Y016381D01*
X004665Y016347D01*
X004699Y016310D01*
X004730Y016270D01*
X004758Y016228D01*
X004782Y016185D01*
X004803Y016139D01*
X004821Y016092D01*
X004834Y016043D01*
X004844Y015994D01*
X004850Y015944D01*
X004852Y015894D01*
X004850Y015844D01*
X004844Y015794D01*
X004834Y015745D01*
X004821Y015696D01*
X004803Y015649D01*
X004782Y015603D01*
X004758Y015560D01*
X004730Y015518D01*
X004699Y015478D01*
X004665Y015441D01*
X004628Y015407D01*
X004588Y015376D01*
X004546Y015348D01*
X004503Y015324D01*
X004457Y015303D01*
X004410Y015285D01*
X004361Y015272D01*
X004312Y015262D01*
X004262Y015256D01*
X004212Y015254D01*
X004162Y015256D01*
X004112Y015262D01*
X004063Y015272D01*
X004014Y015285D01*
X003967Y015303D01*
X003921Y015324D01*
X003878Y015348D01*
X003836Y015376D01*
X003796Y015407D01*
X003759Y015441D01*
X003725Y015478D01*
X003694Y015518D01*
X003666Y015560D01*
X003642Y015603D01*
X003621Y015649D01*
X003603Y015696D01*
X003590Y015745D01*
X003580Y015794D01*
X003574Y015844D01*
X003572Y015894D01*
D11*
X006712Y015394D03*
D12*
X007712Y014894D03*
X007712Y013894D03*
X007712Y012894D03*
X006712Y013394D03*
X006712Y014394D03*
X006712Y012394D03*
X007712Y011894D03*
X002607Y012081D03*
X002607Y011081D03*
X002607Y015221D03*
X002595Y016209D03*
D13*
X005450Y016644D03*
X005450Y010631D03*
D14*
X004212Y011394D03*
X004212Y015894D03*
D15*
X012514Y014628D03*
X014414Y014628D03*
D16*
X014342Y012494D03*
X014342Y011494D03*
X014342Y010494D03*
X014342Y009494D03*
X015342Y009494D03*
X015342Y010494D03*
X015342Y011494D03*
X015342Y012494D03*
X015342Y008494D03*
X014342Y008494D03*
M02*
