G75*
G70*
%OFA0B0*%
%FSLAX24Y24*%
%IPPOS*%
%LPD*%
%AMOC8*
5,1,8,0,0,1.08239X$1,22.5*
%
%ADD10C,0.0000*%
%ADD11C,0.0079*%
%ADD12C,0.0080*%
D10*
X001850Y003408D02*
X001850Y017581D01*
X016811Y017581D01*
X016811Y003408D01*
X001850Y003408D01*
X003572Y011394D02*
X003574Y011444D01*
X003580Y011494D01*
X003590Y011543D01*
X003603Y011592D01*
X003621Y011639D01*
X003642Y011685D01*
X003666Y011728D01*
X003694Y011770D01*
X003725Y011810D01*
X003759Y011847D01*
X003796Y011881D01*
X003836Y011912D01*
X003878Y011940D01*
X003921Y011964D01*
X003967Y011985D01*
X004014Y012003D01*
X004063Y012016D01*
X004112Y012026D01*
X004162Y012032D01*
X004212Y012034D01*
X004262Y012032D01*
X004312Y012026D01*
X004361Y012016D01*
X004410Y012003D01*
X004457Y011985D01*
X004503Y011964D01*
X004546Y011940D01*
X004588Y011912D01*
X004628Y011881D01*
X004665Y011847D01*
X004699Y011810D01*
X004730Y011770D01*
X004758Y011728D01*
X004782Y011685D01*
X004803Y011639D01*
X004821Y011592D01*
X004834Y011543D01*
X004844Y011494D01*
X004850Y011444D01*
X004852Y011394D01*
X004850Y011344D01*
X004844Y011294D01*
X004834Y011245D01*
X004821Y011196D01*
X004803Y011149D01*
X004782Y011103D01*
X004758Y011060D01*
X004730Y011018D01*
X004699Y010978D01*
X004665Y010941D01*
X004628Y010907D01*
X004588Y010876D01*
X004546Y010848D01*
X004503Y010824D01*
X004457Y010803D01*
X004410Y010785D01*
X004361Y010772D01*
X004312Y010762D01*
X004262Y010756D01*
X004212Y010754D01*
X004162Y010756D01*
X004112Y010762D01*
X004063Y010772D01*
X004014Y010785D01*
X003967Y010803D01*
X003921Y010824D01*
X003878Y010848D01*
X003836Y010876D01*
X003796Y010907D01*
X003759Y010941D01*
X003725Y010978D01*
X003694Y011018D01*
X003666Y011060D01*
X003642Y011103D01*
X003621Y011149D01*
X003603Y011196D01*
X003590Y011245D01*
X003580Y011294D01*
X003574Y011344D01*
X003572Y011394D01*
X003572Y015894D02*
X003574Y015944D01*
X003580Y015994D01*
X003590Y016043D01*
X003603Y016092D01*
X003621Y016139D01*
X003642Y016185D01*
X003666Y016228D01*
X003694Y016270D01*
X003725Y016310D01*
X003759Y016347D01*
X003796Y016381D01*
X003836Y016412D01*
X003878Y016440D01*
X003921Y016464D01*
X003967Y016485D01*
X004014Y016503D01*
X004063Y016516D01*
X004112Y016526D01*
X004162Y016532D01*
X004212Y016534D01*
X004262Y016532D01*
X004312Y016526D01*
X004361Y016516D01*
X004410Y016503D01*
X004457Y016485D01*
X004503Y016464D01*
X004546Y016440D01*
X004588Y016412D01*
X004628Y016381D01*
X004665Y016347D01*
X004699Y016310D01*
X004730Y016270D01*
X004758Y016228D01*
X004782Y016185D01*
X004803Y016139D01*
X004821Y016092D01*
X004834Y016043D01*
X004844Y015994D01*
X004850Y015944D01*
X004852Y015894D01*
X004850Y015844D01*
X004844Y015794D01*
X004834Y015745D01*
X004821Y015696D01*
X004803Y015649D01*
X004782Y015603D01*
X004758Y015560D01*
X004730Y015518D01*
X004699Y015478D01*
X004665Y015441D01*
X004628Y015407D01*
X004588Y015376D01*
X004546Y015348D01*
X004503Y015324D01*
X004457Y015303D01*
X004410Y015285D01*
X004361Y015272D01*
X004312Y015262D01*
X004262Y015256D01*
X004212Y015254D01*
X004162Y015256D01*
X004112Y015262D01*
X004063Y015272D01*
X004014Y015285D01*
X003967Y015303D01*
X003921Y015324D01*
X003878Y015348D01*
X003836Y015376D01*
X003796Y015407D01*
X003759Y015441D01*
X003725Y015478D01*
X003694Y015518D01*
X003666Y015560D01*
X003642Y015603D01*
X003621Y015649D01*
X003603Y015696D01*
X003590Y015745D01*
X003580Y015794D01*
X003574Y015844D01*
X003572Y015894D01*
D11*
X002047Y017384D02*
X002047Y003605D01*
X016614Y003605D01*
X016614Y017384D01*
X002047Y017384D01*
X008888Y016843D02*
X008888Y015170D01*
X009774Y015170D01*
X009774Y016843D01*
X008888Y016843D01*
X010069Y016843D02*
X010069Y015170D01*
X010955Y015170D01*
X010955Y016843D01*
X010069Y016843D01*
X011250Y016843D02*
X011250Y015957D01*
X012923Y015957D01*
X012923Y016843D01*
X011250Y016843D01*
X013218Y016843D02*
X013218Y015957D01*
X014892Y015957D01*
X014892Y016843D01*
X013218Y016843D01*
X009774Y014874D02*
X009774Y013201D01*
X008888Y013201D01*
X008888Y014874D01*
X009774Y014874D01*
X009774Y012512D02*
X008888Y012512D01*
X008888Y010839D01*
X009774Y010839D01*
X009774Y012512D01*
X010069Y012512D02*
X010069Y010839D01*
X010955Y010839D01*
X010955Y012512D01*
X010069Y012512D01*
X011250Y012512D02*
X011250Y010839D01*
X012136Y010839D01*
X012136Y012512D01*
X011250Y012512D01*
X007018Y009756D02*
X007018Y008870D01*
X005344Y008870D01*
X005344Y009756D01*
X007018Y009756D01*
X007018Y008181D02*
X005344Y008181D01*
X005344Y007296D01*
X007018Y007296D01*
X007018Y008181D01*
X007018Y006607D02*
X005344Y006607D01*
X005344Y005721D01*
X007018Y005721D01*
X007018Y006607D01*
X006722Y005032D02*
X006722Y004146D01*
X008396Y004146D01*
X008396Y005032D01*
X006722Y005032D01*
X006230Y005032D02*
X004557Y005032D01*
X004557Y004146D01*
X006230Y004146D01*
X006230Y005032D01*
X004655Y005721D02*
X004655Y006607D01*
X002982Y006607D01*
X002982Y005721D01*
X004655Y005721D01*
X004262Y005032D02*
X004262Y004146D01*
X002588Y004146D01*
X002588Y005032D01*
X004262Y005032D01*
X004655Y007296D02*
X002982Y007296D01*
X002982Y008181D01*
X004655Y008181D01*
X004655Y007296D01*
X004655Y008870D02*
X002982Y008870D01*
X002982Y009756D01*
X004655Y009756D01*
X004655Y008870D01*
X011250Y004638D02*
X011250Y003752D01*
X012923Y003752D01*
X012923Y004638D01*
X011250Y004638D01*
D12*
X011840Y005672D02*
X008396Y005672D01*
X008248Y005819D01*
X008248Y009264D01*
X008396Y009412D01*
X011840Y009412D01*
X011988Y009264D01*
X011988Y005819D01*
X011840Y005672D01*
X013031Y006951D02*
X015079Y006951D01*
X015079Y007738D01*
X013031Y007738D01*
X013031Y006951D01*
X014252Y006164D02*
X015433Y006164D01*
X015433Y005573D01*
X015630Y005573D01*
X015630Y004392D01*
X015433Y004392D01*
X015433Y005573D01*
X015433Y004392D02*
X015433Y003801D01*
X014252Y003801D01*
X014252Y006164D01*
X014842Y007857D02*
X014842Y008093D01*
X014724Y007975D02*
X014961Y007975D01*
X013898Y009983D02*
X013898Y010219D01*
X014016Y010101D02*
X013779Y010101D01*
X013661Y009864D02*
X012874Y009864D01*
X012874Y011912D01*
X013661Y011912D01*
X013661Y009864D01*
X011545Y009116D02*
X011547Y009140D01*
X011553Y009163D01*
X011562Y009185D01*
X011575Y009205D01*
X011590Y009223D01*
X011609Y009238D01*
X011630Y009250D01*
X011652Y009258D01*
X011675Y009263D01*
X011699Y009264D01*
X011723Y009261D01*
X011745Y009254D01*
X011767Y009244D01*
X011787Y009231D01*
X011804Y009214D01*
X011818Y009195D01*
X011829Y009174D01*
X011837Y009151D01*
X011841Y009128D01*
X011841Y009104D01*
X011837Y009081D01*
X011829Y009058D01*
X011818Y009037D01*
X011804Y009018D01*
X011787Y009001D01*
X011767Y008988D01*
X011745Y008978D01*
X011723Y008971D01*
X011699Y008968D01*
X011675Y008969D01*
X011652Y008974D01*
X011630Y008982D01*
X011609Y008994D01*
X011590Y009009D01*
X011575Y009027D01*
X011562Y009047D01*
X011553Y009069D01*
X011547Y009092D01*
X011545Y009116D01*
X008462Y010644D02*
X006212Y010644D01*
X004712Y010644D02*
X001462Y010644D01*
X001462Y011894D01*
X000962Y011894D01*
X000962Y010644D01*
X001462Y010644D01*
X000962Y011894D02*
X000962Y015394D01*
X001462Y015394D01*
X001462Y016644D01*
X004712Y016644D01*
X006212Y016644D02*
X008462Y016644D01*
X008462Y010644D01*
X011496Y013880D02*
X011496Y015376D01*
X015433Y015376D01*
X015433Y013880D01*
X011496Y013880D01*
X012953Y014628D02*
X013189Y014628D01*
X013189Y014904D01*
X013386Y014904D02*
X013386Y014353D01*
X013543Y014353D01*
X013543Y014904D01*
X013386Y014904D01*
X013189Y014628D02*
X013189Y014353D01*
X013740Y014353D02*
X013740Y014628D01*
X013740Y014904D01*
X013740Y014628D02*
X013976Y014628D01*
X001462Y016644D02*
X000962Y016644D01*
X000962Y015394D01*
M02*
