%
M48
M72
T01C0.0236
T02C0.0320
T03C0.0360
T04C0.0394
T05C0.0630
T06C0.1280
%
T01
X2490Y5081
X5000Y6164
X5197Y7689
X5000Y9215
X3474Y8477
X2441Y9805
X3474Y10002
X4803Y12561
X5492Y14431
X8346Y16892
X9921Y15120
X10512Y14628
X11201Y14235
X10118Y13939
X10118Y13152
X9331Y12758
X8642Y14136
X8149Y11183
X7903Y9855
X8543Y8624
X8592Y7738
X9478Y8181
X10315Y7935
X10856Y7049
X11250Y7542
X10610Y6360
X11053Y6016
X10020Y5967
X9429Y6213
X8592Y6705
X7461Y5573
X6329Y4589
X8543Y4097
X11004Y4195
X12382Y5179
X13563Y6656
X13120Y8477
X13907Y8969
X16122Y9313
X16122Y10888
X16122Y12463
X16122Y14038
X16122Y15612
X16122Y16794
X13071Y15809
X11102Y16892
X12874Y13250
X13268Y12266
X10709Y10396
X7165Y8624
X7165Y7345
X6919Y6853
X2441Y13742
X15138Y4097
X16122Y6164
X16122Y7738
T02
X14414Y14628
X12514Y14628
T03
X14342Y12494
X14342Y11494
X14342Y10494
X14342Y9494
X15342Y9494
X15342Y10494
X15342Y11494
X15342Y12494
X15342Y8494
X14342Y8494
T04
X7712Y11894
X6712Y12394
X6712Y13394
X6712Y14394
X7712Y14894
X7712Y13894
X7712Y12894
X6712Y15394
X2607Y15221
X2595Y16209
X2607Y12081
X2607Y11081
T05
X5450Y10631
X5450Y16644
T06
X4212Y15894
X4212Y11394
M30
