G75*
G70*
%OFA0B0*%
%FSLAX24Y24*%
%IPPOS*%
%LPD*%
%AMOC8*
5,1,8,0,0,1.08239X$1,22.5*
%
%ADD10C,0.0000*%
%ADD11R,0.0660X0.0660*%
%ADD12C,0.0660*%
%ADD13C,0.1000*%
%ADD14R,0.0197X0.0591*%
%ADD15R,0.0591X0.0197*%
%ADD16C,0.0560*%
%ADD17R,0.0551X0.0630*%
%ADD18R,0.0630X0.0551*%
%ADD19R,0.0790X0.0590*%
%ADD20R,0.0790X0.1500*%
%ADD21R,0.0512X0.0591*%
%ADD22R,0.0591X0.0512*%
%ADD23OC8,0.0560*%
%ADD24C,0.0160*%
%ADD25C,0.0396*%
%ADD26C,0.0100*%
D10*
X001850Y003408D02*
X001850Y017581D01*
X016811Y017581D01*
X016811Y003408D01*
X001850Y003408D01*
X003572Y011394D02*
X003574Y011444D01*
X003580Y011494D01*
X003590Y011543D01*
X003603Y011592D01*
X003621Y011639D01*
X003642Y011685D01*
X003666Y011728D01*
X003694Y011770D01*
X003725Y011810D01*
X003759Y011847D01*
X003796Y011881D01*
X003836Y011912D01*
X003878Y011940D01*
X003921Y011964D01*
X003967Y011985D01*
X004014Y012003D01*
X004063Y012016D01*
X004112Y012026D01*
X004162Y012032D01*
X004212Y012034D01*
X004262Y012032D01*
X004312Y012026D01*
X004361Y012016D01*
X004410Y012003D01*
X004457Y011985D01*
X004503Y011964D01*
X004546Y011940D01*
X004588Y011912D01*
X004628Y011881D01*
X004665Y011847D01*
X004699Y011810D01*
X004730Y011770D01*
X004758Y011728D01*
X004782Y011685D01*
X004803Y011639D01*
X004821Y011592D01*
X004834Y011543D01*
X004844Y011494D01*
X004850Y011444D01*
X004852Y011394D01*
X004850Y011344D01*
X004844Y011294D01*
X004834Y011245D01*
X004821Y011196D01*
X004803Y011149D01*
X004782Y011103D01*
X004758Y011060D01*
X004730Y011018D01*
X004699Y010978D01*
X004665Y010941D01*
X004628Y010907D01*
X004588Y010876D01*
X004546Y010848D01*
X004503Y010824D01*
X004457Y010803D01*
X004410Y010785D01*
X004361Y010772D01*
X004312Y010762D01*
X004262Y010756D01*
X004212Y010754D01*
X004162Y010756D01*
X004112Y010762D01*
X004063Y010772D01*
X004014Y010785D01*
X003967Y010803D01*
X003921Y010824D01*
X003878Y010848D01*
X003836Y010876D01*
X003796Y010907D01*
X003759Y010941D01*
X003725Y010978D01*
X003694Y011018D01*
X003666Y011060D01*
X003642Y011103D01*
X003621Y011149D01*
X003603Y011196D01*
X003590Y011245D01*
X003580Y011294D01*
X003574Y011344D01*
X003572Y011394D01*
X003572Y015894D02*
X003574Y015944D01*
X003580Y015994D01*
X003590Y016043D01*
X003603Y016092D01*
X003621Y016139D01*
X003642Y016185D01*
X003666Y016228D01*
X003694Y016270D01*
X003725Y016310D01*
X003759Y016347D01*
X003796Y016381D01*
X003836Y016412D01*
X003878Y016440D01*
X003921Y016464D01*
X003967Y016485D01*
X004014Y016503D01*
X004063Y016516D01*
X004112Y016526D01*
X004162Y016532D01*
X004212Y016534D01*
X004262Y016532D01*
X004312Y016526D01*
X004361Y016516D01*
X004410Y016503D01*
X004457Y016485D01*
X004503Y016464D01*
X004546Y016440D01*
X004588Y016412D01*
X004628Y016381D01*
X004665Y016347D01*
X004699Y016310D01*
X004730Y016270D01*
X004758Y016228D01*
X004782Y016185D01*
X004803Y016139D01*
X004821Y016092D01*
X004834Y016043D01*
X004844Y015994D01*
X004850Y015944D01*
X004852Y015894D01*
X004850Y015844D01*
X004844Y015794D01*
X004834Y015745D01*
X004821Y015696D01*
X004803Y015649D01*
X004782Y015603D01*
X004758Y015560D01*
X004730Y015518D01*
X004699Y015478D01*
X004665Y015441D01*
X004628Y015407D01*
X004588Y015376D01*
X004546Y015348D01*
X004503Y015324D01*
X004457Y015303D01*
X004410Y015285D01*
X004361Y015272D01*
X004312Y015262D01*
X004262Y015256D01*
X004212Y015254D01*
X004162Y015256D01*
X004112Y015262D01*
X004063Y015272D01*
X004014Y015285D01*
X003967Y015303D01*
X003921Y015324D01*
X003878Y015348D01*
X003836Y015376D01*
X003796Y015407D01*
X003759Y015441D01*
X003725Y015478D01*
X003694Y015518D01*
X003666Y015560D01*
X003642Y015603D01*
X003621Y015649D01*
X003603Y015696D01*
X003590Y015745D01*
X003580Y015794D01*
X003574Y015844D01*
X003572Y015894D01*
D11*
X006712Y015394D03*
D12*
X007712Y014894D03*
X007712Y013894D03*
X007712Y012894D03*
X006712Y013394D03*
X006712Y014394D03*
X006712Y012394D03*
X007712Y011894D03*
X002607Y012081D03*
X002607Y011081D03*
X002607Y015221D03*
X002595Y016209D03*
D13*
X005450Y016644D03*
X005450Y010631D03*
D14*
X008543Y009825D03*
X008858Y009825D03*
X009173Y009825D03*
X009488Y009825D03*
X009803Y009825D03*
X010118Y009825D03*
X010433Y009825D03*
X010748Y009825D03*
X011063Y009825D03*
X011378Y009825D03*
X011693Y009825D03*
X011693Y005258D03*
X011378Y005258D03*
X011063Y005258D03*
X010748Y005258D03*
X010433Y005258D03*
X010118Y005258D03*
X009803Y005258D03*
X009488Y005258D03*
X009173Y005258D03*
X008858Y005258D03*
X008543Y005258D03*
D15*
X007835Y005967D03*
X007835Y006282D03*
X007835Y006597D03*
X007835Y006912D03*
X007835Y007227D03*
X007835Y007542D03*
X007835Y007857D03*
X007835Y008172D03*
X007835Y008486D03*
X007835Y008801D03*
X007835Y009116D03*
X012401Y009116D03*
X012401Y008801D03*
X012401Y008486D03*
X012401Y008172D03*
X012401Y007857D03*
X012401Y007542D03*
X012401Y007227D03*
X012401Y006912D03*
X012401Y006597D03*
X012401Y006282D03*
X012401Y005967D03*
D16*
X012514Y014628D03*
X014414Y014628D03*
D17*
X013268Y011479D03*
X013268Y010298D03*
D18*
X013464Y007345D03*
X014646Y007345D03*
D19*
X013602Y005873D03*
X013602Y004973D03*
X013602Y004073D03*
D20*
X016082Y004983D03*
D21*
X012461Y004195D03*
X011712Y004195D03*
X007933Y004589D03*
X007185Y004589D03*
X005768Y004589D03*
X005020Y004589D03*
X003799Y004589D03*
X003051Y004589D03*
X003445Y006164D03*
X004193Y006164D03*
X004193Y007738D03*
X003445Y007738D03*
X003445Y009313D03*
X004193Y009313D03*
X005807Y009313D03*
X006555Y009313D03*
X006555Y007738D03*
X005807Y007738D03*
X005807Y006164D03*
X006555Y006164D03*
X011712Y016400D03*
X012461Y016400D03*
X013681Y016400D03*
X014429Y016400D03*
D22*
X010512Y016380D03*
X010512Y015632D03*
X009331Y015632D03*
X009331Y016380D03*
X009331Y014412D03*
X009331Y013664D03*
X009331Y012049D03*
X009331Y011301D03*
X010512Y011301D03*
X010512Y012049D03*
X011693Y012049D03*
X011693Y011301D03*
D23*
X014342Y011494D03*
X014342Y010494D03*
X014342Y009494D03*
X015342Y009494D03*
X015342Y010494D03*
X015342Y011494D03*
X015342Y012494D03*
X014342Y012494D03*
X014342Y008494D03*
X015342Y008494D03*
D24*
X015433Y008404D01*
X015433Y006803D01*
X014842Y006213D01*
X014842Y004589D01*
X014326Y004073D01*
X013602Y004073D01*
X013602Y004195D01*
X012461Y004195D01*
X013602Y004973D02*
X014193Y004973D01*
X014449Y005229D01*
X014449Y006656D01*
X014646Y006853D01*
X014646Y007345D01*
X013612Y008378D01*
X013612Y008772D01*
X013268Y009116D01*
X012401Y009116D01*
X011890Y009116D01*
X011348Y008575D01*
X010955Y008575D01*
X010684Y008846D01*
X010462Y008624D01*
X009134Y008624D01*
X009035Y008723D01*
X009035Y008329D01*
X008888Y008181D01*
X009035Y008034D01*
X009035Y007394D01*
X008937Y007296D01*
X009035Y007197D01*
X009035Y006459D01*
X007707Y005130D01*
X007411Y005130D01*
X007185Y004904D01*
X007185Y004589D01*
X007165Y004569D01*
X007165Y004195D01*
X006968Y003998D01*
X005246Y003998D01*
X005020Y004225D01*
X005020Y004589D01*
X003799Y004589D01*
X007835Y007227D02*
X008868Y007227D01*
X008937Y007296D01*
X008888Y008181D02*
X007844Y008181D01*
X007835Y008172D01*
X007835Y009116D02*
X008937Y009116D01*
X009035Y009018D01*
X009035Y008723D01*
X007835Y009116D02*
X007638Y009313D01*
X006555Y009313D01*
X006575Y009294D01*
X006575Y008772D01*
X006378Y008575D01*
X004852Y008575D01*
X004193Y009235D01*
X004193Y009313D01*
X010512Y014628D02*
X010512Y015632D01*
X010709Y010396D02*
X010748Y010357D01*
X010748Y009825D01*
X010748Y008910D01*
X010684Y008846D01*
D25*
X010315Y007935D03*
X009478Y008181D03*
X008592Y007738D03*
X008543Y008624D03*
X007165Y008624D03*
X007903Y009855D03*
X008149Y011183D03*
X009331Y012758D03*
X010118Y013152D03*
X010118Y013939D03*
X010512Y014628D03*
X009921Y015120D03*
X011201Y014235D03*
X012874Y013250D03*
X013268Y012266D03*
X010709Y010396D03*
X013120Y008477D03*
X013907Y008969D03*
X016122Y009313D03*
X016122Y010888D03*
X016122Y012463D03*
X016122Y014038D03*
X016122Y015612D03*
X016122Y016794D03*
X013071Y015809D03*
X011102Y016892D03*
X008346Y016892D03*
X005492Y014431D03*
X004803Y012561D03*
X002441Y013742D03*
X003474Y010002D03*
X002441Y009805D03*
X003474Y008477D03*
X005000Y009215D03*
X005197Y007689D03*
X005000Y006164D03*
X006329Y004589D03*
X007461Y005573D03*
X008592Y006705D03*
X009429Y006213D03*
X010020Y005967D03*
X010610Y006360D03*
X011053Y006016D03*
X010856Y007049D03*
X011250Y007542D03*
X013563Y006656D03*
X012382Y005179D03*
X011004Y004195D03*
X008543Y004097D03*
X006919Y006853D03*
X007165Y007345D03*
X002490Y005081D03*
X008642Y014136D03*
X016122Y007738D03*
X016122Y006164D03*
X015138Y004097D03*
D26*
X014958Y004294D02*
X015477Y004294D01*
X015477Y004196D02*
X014859Y004196D01*
X014761Y004097D02*
X015526Y004097D01*
X015477Y004146D02*
X015600Y004023D01*
X016361Y004023D01*
X016361Y003858D01*
X014521Y003858D01*
X015007Y004343D01*
X015088Y004425D01*
X015132Y004531D01*
X015132Y006093D01*
X015597Y006558D01*
X015679Y006639D01*
X015723Y006746D01*
X015723Y008182D01*
X015832Y008291D01*
X015832Y008697D01*
X015545Y008984D01*
X015139Y008984D01*
X014852Y008697D01*
X014852Y008291D01*
X015139Y008004D01*
X015143Y008004D01*
X015143Y007735D01*
X015047Y007830D01*
X014570Y007830D01*
X014302Y008098D01*
X014302Y008454D01*
X014382Y008454D01*
X014382Y008064D01*
X014521Y008064D01*
X014772Y008316D01*
X014772Y008454D01*
X014382Y008454D01*
X014382Y008534D01*
X014302Y008534D01*
X014302Y008856D01*
X014315Y008888D01*
X014315Y009004D01*
X014545Y009004D01*
X014832Y009291D01*
X014832Y009697D01*
X014545Y009984D01*
X014139Y009984D01*
X013852Y009697D01*
X013852Y009490D01*
X013570Y009773D01*
X013630Y009773D01*
X013753Y009896D01*
X013753Y010699D01*
X013630Y010822D01*
X012905Y010822D01*
X012782Y010699D01*
X012782Y009896D01*
X012905Y009773D01*
X013008Y009773D01*
X013008Y009655D01*
X013047Y009560D01*
X013120Y009487D01*
X013200Y009406D01*
X012802Y009406D01*
X012784Y009425D01*
X012019Y009425D01*
X012001Y009406D01*
X011878Y009406D01*
X011883Y009410D01*
X011911Y009438D01*
X011931Y009472D01*
X011941Y009510D01*
X011941Y009825D01*
X011693Y009825D01*
X011693Y009825D01*
X011941Y009825D01*
X011941Y010140D01*
X011931Y010178D01*
X011927Y010185D01*
X012040Y010185D01*
X012135Y010225D01*
X012529Y010618D01*
X012602Y010692D01*
X012642Y010787D01*
X012642Y011961D01*
X014669Y013989D01*
X014709Y014084D01*
X014709Y014229D01*
X014830Y014351D01*
X014904Y014531D01*
X014904Y014726D01*
X014830Y014906D01*
X014692Y015044D01*
X014674Y015051D01*
X014674Y015895D01*
X014772Y015895D01*
X014895Y016018D01*
X014895Y016782D01*
X014772Y016905D01*
X014086Y016905D01*
X014008Y016827D01*
X013995Y016835D01*
X013957Y016845D01*
X013731Y016845D01*
X013731Y016450D01*
X013631Y016450D01*
X013631Y016845D01*
X013405Y016845D01*
X013367Y016835D01*
X013333Y016815D01*
X013305Y016787D01*
X013285Y016753D01*
X013275Y016715D01*
X013275Y016450D01*
X013631Y016450D01*
X013631Y016350D01*
X013275Y016350D01*
X013275Y016085D01*
X013285Y016047D01*
X013305Y016012D01*
X013333Y015985D01*
X013367Y015965D01*
X013405Y015955D01*
X013631Y015955D01*
X013631Y016350D01*
X013731Y016350D01*
X013731Y015955D01*
X013957Y015955D01*
X013995Y015965D01*
X014008Y015973D01*
X014086Y015895D01*
X014154Y015895D01*
X014154Y015051D01*
X014137Y015044D01*
X013999Y014906D01*
X013924Y014726D01*
X013924Y014531D01*
X013999Y014351D01*
X014137Y014213D01*
X014152Y014207D01*
X012445Y012500D01*
X012445Y014138D01*
X012612Y014138D01*
X012792Y014213D01*
X012930Y014351D01*
X013004Y014531D01*
X013004Y014726D01*
X012930Y014906D01*
X012792Y015044D01*
X012721Y015073D01*
X012721Y015895D01*
X012803Y015895D01*
X012926Y016018D01*
X012926Y016782D01*
X012803Y016905D01*
X012118Y016905D01*
X012040Y016827D01*
X012026Y016835D01*
X011988Y016845D01*
X011762Y016845D01*
X011762Y016450D01*
X011662Y016450D01*
X011662Y016350D01*
X011307Y016350D01*
X011307Y016085D01*
X011317Y016047D01*
X011337Y016012D01*
X011364Y015985D01*
X011399Y015965D01*
X011437Y015955D01*
X011662Y015955D01*
X011662Y016350D01*
X011762Y016350D01*
X011762Y015955D01*
X011988Y015955D01*
X012026Y015965D01*
X012040Y015973D01*
X012118Y015895D01*
X012201Y015895D01*
X012201Y015007D01*
X012099Y014906D01*
X012024Y014726D01*
X012024Y014531D01*
X012032Y014513D01*
X011965Y014446D01*
X011925Y014350D01*
X011925Y013468D01*
X011913Y013496D01*
X011520Y013890D01*
X011446Y013963D01*
X011351Y014002D01*
X010526Y014002D01*
X010526Y014020D01*
X010464Y014170D01*
X010403Y014232D01*
X010431Y014220D01*
X010593Y014220D01*
X010743Y014282D01*
X010858Y014397D01*
X010920Y014547D01*
X010920Y014709D01*
X010858Y014859D01*
X010802Y014915D01*
X010802Y015166D01*
X010894Y015166D01*
X011017Y015289D01*
X011017Y015975D01*
X010986Y016006D01*
X011017Y016037D01*
X011017Y016723D01*
X010894Y016846D01*
X010129Y016846D01*
X010006Y016723D01*
X010006Y016640D01*
X009836Y016640D01*
X009836Y016723D01*
X009713Y016846D01*
X008948Y016846D01*
X008825Y016723D01*
X008825Y016611D01*
X008541Y016611D01*
X008445Y016571D01*
X008372Y016498D01*
X008175Y016301D01*
X008136Y016206D01*
X008136Y015235D01*
X008018Y015352D01*
X007820Y015434D01*
X007605Y015434D01*
X007407Y015352D01*
X007255Y015200D01*
X007252Y015195D01*
X007252Y015811D01*
X007129Y015934D01*
X006295Y015934D01*
X006172Y015811D01*
X006172Y015529D01*
X005788Y015144D01*
X005788Y015144D01*
X005715Y015071D01*
X005675Y014975D01*
X005675Y011722D01*
X005715Y011627D01*
X006167Y011174D01*
X006167Y010110D01*
X005876Y009819D01*
X005464Y009819D01*
X005341Y009696D01*
X005341Y008931D01*
X005407Y008865D01*
X004972Y008865D01*
X004659Y009179D01*
X004659Y009696D01*
X004536Y009819D01*
X003850Y009819D01*
X003833Y009802D01*
X003882Y009921D01*
X003882Y010083D01*
X003820Y010233D01*
X003705Y010348D01*
X003555Y010410D01*
X003393Y010410D01*
X003243Y010348D01*
X003128Y010233D01*
X003066Y010083D01*
X003066Y009921D01*
X003109Y009819D01*
X003102Y009819D01*
X002979Y009696D01*
X002979Y009573D01*
X002881Y009573D01*
X002786Y009534D01*
X002713Y009461D01*
X002319Y009067D01*
X002300Y009022D01*
X002300Y010711D01*
X002356Y010671D01*
X002423Y010637D01*
X002495Y010613D01*
X002559Y010603D01*
X002559Y011033D01*
X002656Y011033D01*
X002656Y011130D01*
X003086Y011130D01*
X003076Y011194D01*
X003052Y011266D01*
X003018Y011333D01*
X002974Y011394D01*
X002920Y011448D01*
X002859Y011492D01*
X002792Y011526D01*
X002728Y011547D01*
X002913Y011624D01*
X003065Y011776D01*
X003147Y011974D01*
X003147Y012189D01*
X003065Y012387D01*
X002913Y012539D01*
X002715Y012621D01*
X002500Y012621D01*
X002302Y012539D01*
X002300Y012538D01*
X002300Y014851D01*
X002356Y014811D01*
X002423Y014777D01*
X002495Y014753D01*
X002559Y014743D01*
X002559Y015173D01*
X002656Y015173D01*
X002656Y015270D01*
X003086Y015270D01*
X003076Y015334D01*
X003052Y015406D01*
X003018Y015473D01*
X002974Y015534D01*
X002920Y015588D01*
X002859Y015632D01*
X002792Y015666D01*
X002738Y015684D01*
X002901Y015751D01*
X003053Y015903D01*
X003135Y016102D01*
X003135Y016316D01*
X003053Y016515D01*
X002901Y016667D01*
X002702Y016749D01*
X002488Y016749D01*
X002300Y016671D01*
X002300Y017131D01*
X005018Y017131D01*
X004960Y017073D01*
X004908Y017006D01*
X004866Y016932D01*
X004833Y016853D01*
X004819Y016802D01*
X004633Y016910D01*
X004356Y016984D01*
X004069Y016984D01*
X003792Y016910D01*
X003543Y016766D01*
X003340Y016563D01*
X003197Y016315D01*
X003122Y016037D01*
X003122Y015750D01*
X003197Y015473D01*
X003340Y015225D01*
X003543Y015022D01*
X003792Y014878D01*
X004069Y014804D01*
X004356Y014804D01*
X004633Y014878D01*
X004882Y015022D01*
X005085Y015225D01*
X005228Y015473D01*
X005302Y015750D01*
X005302Y016011D01*
X005323Y016005D01*
X005400Y015995D01*
X005400Y016594D01*
X005500Y016594D01*
X005500Y016694D01*
X006099Y016694D01*
X006089Y016771D01*
X006067Y016853D01*
X006034Y016932D01*
X005992Y017006D01*
X005940Y017073D01*
X005882Y017131D01*
X016361Y017131D01*
X016361Y005943D01*
X015600Y005943D01*
X015477Y005820D01*
X015477Y004146D01*
X015477Y004393D02*
X015056Y004393D01*
X015007Y004343D02*
X015007Y004343D01*
X015116Y004491D02*
X015477Y004491D01*
X015477Y004590D02*
X015132Y004590D01*
X015132Y004688D02*
X015477Y004688D01*
X015477Y004787D02*
X015132Y004787D01*
X015132Y004885D02*
X015477Y004885D01*
X015477Y004984D02*
X015132Y004984D01*
X015132Y005082D02*
X015477Y005082D01*
X015477Y005181D02*
X015132Y005181D01*
X015132Y005279D02*
X015477Y005279D01*
X015477Y005378D02*
X015132Y005378D01*
X015132Y005476D02*
X015477Y005476D01*
X015477Y005575D02*
X015132Y005575D01*
X015132Y005673D02*
X015477Y005673D01*
X015477Y005772D02*
X015132Y005772D01*
X015132Y005870D02*
X015528Y005870D01*
X015132Y005969D02*
X016361Y005969D01*
X016361Y006067D02*
X015132Y006067D01*
X015205Y006166D02*
X016361Y006166D01*
X016361Y006264D02*
X015304Y006264D01*
X015402Y006363D02*
X016361Y006363D01*
X016361Y006461D02*
X015501Y006461D01*
X015599Y006560D02*
X016361Y006560D01*
X016361Y006658D02*
X015687Y006658D01*
X015723Y006757D02*
X016361Y006757D01*
X016361Y006855D02*
X015723Y006855D01*
X015723Y006954D02*
X016361Y006954D01*
X016361Y007052D02*
X015723Y007052D01*
X015723Y007151D02*
X016361Y007151D01*
X016361Y007249D02*
X015723Y007249D01*
X015723Y007348D02*
X016361Y007348D01*
X016361Y007446D02*
X015723Y007446D01*
X015723Y007545D02*
X016361Y007545D01*
X016361Y007643D02*
X015723Y007643D01*
X015723Y007742D02*
X016361Y007742D01*
X016361Y007840D02*
X015723Y007840D01*
X015723Y007939D02*
X016361Y007939D01*
X016361Y008037D02*
X015723Y008037D01*
X015723Y008136D02*
X016361Y008136D01*
X016361Y008234D02*
X015775Y008234D01*
X015832Y008333D02*
X016361Y008333D01*
X016361Y008431D02*
X015832Y008431D01*
X015832Y008530D02*
X016361Y008530D01*
X016361Y008628D02*
X015832Y008628D01*
X015803Y008727D02*
X016361Y008727D01*
X016361Y008825D02*
X015704Y008825D01*
X015606Y008924D02*
X016361Y008924D01*
X016361Y009022D02*
X015563Y009022D01*
X015545Y009004D02*
X015832Y009291D01*
X015832Y009697D01*
X015545Y009984D01*
X015139Y009984D01*
X014852Y009697D01*
X014852Y009291D01*
X015139Y009004D01*
X015545Y009004D01*
X015662Y009121D02*
X016361Y009121D01*
X016361Y009219D02*
X015760Y009219D01*
X015832Y009318D02*
X016361Y009318D01*
X016361Y009416D02*
X015832Y009416D01*
X015832Y009515D02*
X016361Y009515D01*
X016361Y009613D02*
X015832Y009613D01*
X015818Y009712D02*
X016361Y009712D01*
X016361Y009810D02*
X015719Y009810D01*
X015621Y009909D02*
X016361Y009909D01*
X016361Y010007D02*
X015548Y010007D01*
X015545Y010004D02*
X015832Y010291D01*
X015832Y010697D01*
X016361Y010697D01*
X016361Y010795D02*
X015734Y010795D01*
X015832Y010697D02*
X015545Y010984D01*
X015139Y010984D01*
X014852Y010697D01*
X014748Y010697D01*
X014772Y010672D02*
X014521Y010924D01*
X014382Y010924D01*
X014382Y010534D01*
X014302Y010534D01*
X014302Y010454D01*
X013912Y010454D01*
X013912Y010316D01*
X014164Y010064D01*
X014302Y010064D01*
X014302Y010454D01*
X014382Y010454D01*
X014382Y010064D01*
X014521Y010064D01*
X014772Y010316D01*
X014772Y010454D01*
X014382Y010454D01*
X014382Y010534D01*
X014772Y010534D01*
X014772Y010672D01*
X014772Y010598D02*
X014852Y010598D01*
X014852Y010500D02*
X014382Y010500D01*
X014302Y010500D02*
X013753Y010500D01*
X013753Y010598D02*
X013912Y010598D01*
X013912Y010534D02*
X014302Y010534D01*
X014302Y010924D01*
X014164Y010924D01*
X013912Y010672D01*
X013912Y010534D01*
X013912Y010401D02*
X013753Y010401D01*
X013753Y010303D02*
X013926Y010303D01*
X014024Y010204D02*
X013753Y010204D01*
X013753Y010106D02*
X014123Y010106D01*
X014302Y010106D02*
X014382Y010106D01*
X014382Y010204D02*
X014302Y010204D01*
X014302Y010303D02*
X014382Y010303D01*
X014382Y010401D02*
X014302Y010401D01*
X014302Y010598D02*
X014382Y010598D01*
X014382Y010697D02*
X014302Y010697D01*
X014302Y010795D02*
X014382Y010795D01*
X014382Y010894D02*
X014302Y010894D01*
X014134Y010894D02*
X012642Y010894D01*
X012642Y010992D02*
X016361Y010992D01*
X016361Y010894D02*
X015636Y010894D01*
X015545Y011004D02*
X015832Y011291D01*
X015832Y011697D01*
X015545Y011984D01*
X015139Y011984D01*
X014852Y011697D01*
X014852Y011291D01*
X015139Y011004D01*
X015545Y011004D01*
X015632Y011091D02*
X016361Y011091D01*
X016361Y011189D02*
X015730Y011189D01*
X015829Y011288D02*
X016361Y011288D01*
X016361Y011386D02*
X015832Y011386D01*
X015832Y011485D02*
X016361Y011485D01*
X016361Y011583D02*
X015832Y011583D01*
X015832Y011682D02*
X016361Y011682D01*
X016361Y011780D02*
X015749Y011780D01*
X015651Y011879D02*
X016361Y011879D01*
X016361Y011977D02*
X015552Y011977D01*
X015545Y012004D02*
X015832Y012291D01*
X015832Y012697D01*
X015545Y012984D01*
X015139Y012984D01*
X014852Y012697D01*
X014852Y012291D01*
X015139Y012004D01*
X015545Y012004D01*
X015617Y012076D02*
X016361Y012076D01*
X016361Y012174D02*
X015715Y012174D01*
X015814Y012273D02*
X016361Y012273D01*
X016361Y012371D02*
X015832Y012371D01*
X015832Y012470D02*
X016361Y012470D01*
X016361Y012568D02*
X015832Y012568D01*
X015832Y012667D02*
X016361Y012667D01*
X016361Y012765D02*
X015764Y012765D01*
X015666Y012864D02*
X016361Y012864D01*
X016361Y012962D02*
X015567Y012962D01*
X015117Y012962D02*
X014567Y012962D01*
X014545Y012984D02*
X014139Y012984D01*
X013852Y012697D01*
X013852Y012291D01*
X014139Y012004D01*
X014545Y012004D01*
X014832Y012291D01*
X014832Y012697D01*
X014545Y012984D01*
X014666Y012864D02*
X015019Y012864D01*
X014920Y012765D02*
X014764Y012765D01*
X014832Y012667D02*
X014852Y012667D01*
X014852Y012568D02*
X014832Y012568D01*
X014832Y012470D02*
X014852Y012470D01*
X014852Y012371D02*
X014832Y012371D01*
X014814Y012273D02*
X014871Y012273D01*
X014970Y012174D02*
X014715Y012174D01*
X014617Y012076D02*
X015068Y012076D01*
X015132Y011977D02*
X014552Y011977D01*
X014545Y011984D02*
X014139Y011984D01*
X013852Y011697D01*
X013852Y011291D01*
X014139Y011004D01*
X014545Y011004D01*
X014832Y011291D01*
X014832Y011697D01*
X014545Y011984D01*
X014651Y011879D02*
X015034Y011879D01*
X014935Y011780D02*
X014749Y011780D01*
X014832Y011682D02*
X014852Y011682D01*
X014852Y011583D02*
X014832Y011583D01*
X014832Y011485D02*
X014852Y011485D01*
X014852Y011386D02*
X014832Y011386D01*
X014829Y011288D02*
X014856Y011288D01*
X014955Y011189D02*
X014730Y011189D01*
X014632Y011091D02*
X015053Y011091D01*
X015049Y010894D02*
X014551Y010894D01*
X014650Y010795D02*
X014950Y010795D01*
X014852Y010697D02*
X014852Y010291D01*
X015139Y010004D01*
X015545Y010004D01*
X015647Y010106D02*
X016361Y010106D01*
X016361Y010204D02*
X015745Y010204D01*
X015832Y010303D02*
X016361Y010303D01*
X016361Y010401D02*
X015832Y010401D01*
X015832Y010500D02*
X016361Y010500D01*
X016361Y010598D02*
X015832Y010598D01*
X015137Y010007D02*
X013753Y010007D01*
X013753Y009909D02*
X014064Y009909D01*
X013965Y009810D02*
X013668Y009810D01*
X013630Y009712D02*
X013867Y009712D01*
X013852Y009613D02*
X013729Y009613D01*
X013827Y009515D02*
X013852Y009515D01*
X013907Y009067D02*
X013268Y009707D01*
X013268Y010298D01*
X013753Y010697D02*
X013937Y010697D01*
X014035Y010795D02*
X013657Y010795D01*
X013601Y011024D02*
X013635Y011044D01*
X013663Y011072D01*
X013683Y011106D01*
X013693Y011144D01*
X013693Y011429D01*
X013318Y011429D01*
X013318Y011529D01*
X013218Y011529D01*
X013218Y011944D01*
X012972Y011944D01*
X012934Y011933D01*
X012900Y011914D01*
X012872Y011886D01*
X012852Y011851D01*
X012842Y011813D01*
X012842Y011529D01*
X013218Y011529D01*
X013218Y011429D01*
X013318Y011429D01*
X013318Y011014D01*
X013563Y011014D01*
X013601Y011024D01*
X013674Y011091D02*
X014053Y011091D01*
X013955Y011189D02*
X013693Y011189D01*
X013693Y011288D02*
X013856Y011288D01*
X013852Y011386D02*
X013693Y011386D01*
X013693Y011529D02*
X013693Y011813D01*
X013683Y011851D01*
X013663Y011886D01*
X013635Y011914D01*
X013601Y011933D01*
X013563Y011944D01*
X013318Y011944D01*
X013318Y011529D01*
X013693Y011529D01*
X013693Y011583D02*
X013852Y011583D01*
X013852Y011485D02*
X013318Y011485D01*
X013318Y011583D02*
X013218Y011583D01*
X013218Y011485D02*
X012642Y011485D01*
X012642Y011583D02*
X012842Y011583D01*
X012842Y011682D02*
X012642Y011682D01*
X012642Y011780D02*
X012842Y011780D01*
X012868Y011879D02*
X012642Y011879D01*
X012658Y011977D02*
X014132Y011977D01*
X014068Y012076D02*
X012756Y012076D01*
X012855Y012174D02*
X013970Y012174D01*
X013871Y012273D02*
X012953Y012273D01*
X013052Y012371D02*
X013852Y012371D01*
X013852Y012470D02*
X013150Y012470D01*
X013249Y012568D02*
X013852Y012568D01*
X013852Y012667D02*
X013347Y012667D01*
X013446Y012765D02*
X013920Y012765D01*
X014019Y012864D02*
X013544Y012864D01*
X013643Y012962D02*
X014117Y012962D01*
X013938Y013258D02*
X016361Y013258D01*
X016361Y013356D02*
X014037Y013356D01*
X014135Y013455D02*
X016361Y013455D01*
X016361Y013553D02*
X014234Y013553D01*
X014332Y013652D02*
X016361Y013652D01*
X016361Y013750D02*
X014431Y013750D01*
X014529Y013849D02*
X016361Y013849D01*
X016361Y013947D02*
X014628Y013947D01*
X014693Y014046D02*
X016361Y014046D01*
X016361Y014144D02*
X014709Y014144D01*
X014722Y014243D02*
X016361Y014243D01*
X016361Y014341D02*
X014820Y014341D01*
X014867Y014440D02*
X016361Y014440D01*
X016361Y014538D02*
X014904Y014538D01*
X014904Y014637D02*
X016361Y014637D01*
X016361Y014735D02*
X014900Y014735D01*
X014860Y014834D02*
X016361Y014834D01*
X016361Y014932D02*
X014803Y014932D01*
X014705Y015031D02*
X016361Y015031D01*
X016361Y015129D02*
X014674Y015129D01*
X014674Y015228D02*
X016361Y015228D01*
X016361Y015326D02*
X014674Y015326D01*
X014674Y015425D02*
X016361Y015425D01*
X016361Y015523D02*
X014674Y015523D01*
X014674Y015622D02*
X016361Y015622D01*
X016361Y015720D02*
X014674Y015720D01*
X014674Y015819D02*
X016361Y015819D01*
X016361Y015917D02*
X014795Y015917D01*
X014893Y016016D02*
X016361Y016016D01*
X016361Y016114D02*
X014895Y016114D01*
X014895Y016213D02*
X016361Y016213D01*
X016361Y016311D02*
X014895Y016311D01*
X014895Y016410D02*
X016361Y016410D01*
X016361Y016508D02*
X014895Y016508D01*
X014895Y016607D02*
X016361Y016607D01*
X016361Y016705D02*
X014895Y016705D01*
X014873Y016804D02*
X016361Y016804D01*
X016361Y016902D02*
X014775Y016902D01*
X014429Y016400D02*
X014414Y016385D01*
X014414Y014628D01*
X014449Y014594D01*
X014449Y014136D01*
X012382Y012069D01*
X012382Y010839D01*
X011988Y010445D01*
X011496Y010445D01*
X011378Y010327D01*
X011378Y009825D01*
X011063Y009825D02*
X011063Y010307D01*
X011447Y010691D01*
X011988Y010691D01*
X012185Y010888D01*
X012185Y014299D01*
X012514Y014628D01*
X012431Y014545D01*
X012514Y014628D02*
X012461Y014682D01*
X012461Y016400D01*
X012926Y016410D02*
X013631Y016410D01*
X013631Y016508D02*
X013731Y016508D01*
X013731Y016607D02*
X013631Y016607D01*
X013631Y016705D02*
X013731Y016705D01*
X013731Y016804D02*
X013631Y016804D01*
X013322Y016804D02*
X012905Y016804D01*
X012926Y016705D02*
X013275Y016705D01*
X013275Y016607D02*
X012926Y016607D01*
X012926Y016508D02*
X013275Y016508D01*
X013275Y016311D02*
X012926Y016311D01*
X012926Y016213D02*
X013275Y016213D01*
X013275Y016114D02*
X012926Y016114D01*
X012925Y016016D02*
X013303Y016016D01*
X013631Y016016D02*
X013731Y016016D01*
X013731Y016114D02*
X013631Y016114D01*
X013631Y016213D02*
X013731Y016213D01*
X013731Y016311D02*
X013631Y016311D01*
X014063Y015917D02*
X012826Y015917D01*
X012721Y015819D02*
X014154Y015819D01*
X014154Y015720D02*
X012721Y015720D01*
X012721Y015622D02*
X014154Y015622D01*
X014154Y015523D02*
X012721Y015523D01*
X012721Y015425D02*
X014154Y015425D01*
X014154Y015326D02*
X012721Y015326D01*
X012721Y015228D02*
X014154Y015228D01*
X014154Y015129D02*
X012721Y015129D01*
X012805Y015031D02*
X014124Y015031D01*
X014026Y014932D02*
X012903Y014932D01*
X012960Y014834D02*
X013969Y014834D01*
X013928Y014735D02*
X013000Y014735D01*
X013004Y014637D02*
X013924Y014637D01*
X013924Y014538D02*
X013004Y014538D01*
X012967Y014440D02*
X013962Y014440D01*
X014008Y014341D02*
X012920Y014341D01*
X012822Y014243D02*
X014107Y014243D01*
X014089Y014144D02*
X012627Y014144D01*
X012445Y014046D02*
X013991Y014046D01*
X013892Y013947D02*
X012445Y013947D01*
X012445Y013849D02*
X013794Y013849D01*
X013695Y013750D02*
X012445Y013750D01*
X012445Y013652D02*
X013597Y013652D01*
X013498Y013553D02*
X012445Y013553D01*
X012445Y013455D02*
X013400Y013455D01*
X013301Y013356D02*
X012445Y013356D01*
X012445Y013258D02*
X013203Y013258D01*
X013104Y013159D02*
X012445Y013159D01*
X012445Y013061D02*
X013006Y013061D01*
X012907Y012962D02*
X012445Y012962D01*
X012445Y012864D02*
X012809Y012864D01*
X012710Y012765D02*
X012445Y012765D01*
X012445Y012667D02*
X012612Y012667D01*
X012513Y012568D02*
X012445Y012568D01*
X011693Y012049D02*
X011693Y013349D01*
X011299Y013742D01*
X010315Y013742D01*
X010118Y013939D01*
X009844Y014243D02*
X009776Y014243D01*
X009776Y014174D02*
X009776Y014362D01*
X009381Y014362D01*
X009381Y014462D01*
X009776Y014462D01*
X009776Y014687D01*
X009766Y014725D01*
X009746Y014760D01*
X009718Y014788D01*
X009684Y014807D01*
X009646Y014818D01*
X009381Y014818D01*
X009381Y014462D01*
X009281Y014462D01*
X009281Y014818D01*
X009016Y014818D01*
X008977Y014807D01*
X008943Y014788D01*
X008915Y014760D01*
X008896Y014725D01*
X008885Y014687D01*
X008885Y014462D01*
X009281Y014462D01*
X009281Y014362D01*
X008885Y014362D01*
X008885Y014136D01*
X008896Y014098D01*
X008903Y014084D01*
X008825Y014007D01*
X008825Y013911D01*
X008760Y013884D01*
X008123Y013247D01*
X008018Y013352D01*
X007916Y013394D01*
X008018Y013436D01*
X008170Y013588D01*
X008252Y013787D01*
X008252Y014001D01*
X008198Y014134D01*
X008213Y014134D01*
X008309Y014174D01*
X008543Y014408D01*
X008616Y014481D01*
X008656Y014576D01*
X008656Y016046D01*
X008700Y016091D01*
X008825Y016091D01*
X008825Y016037D01*
X008903Y015959D01*
X008896Y015946D01*
X008885Y015908D01*
X008885Y015682D01*
X009281Y015682D01*
X009281Y015582D01*
X009381Y015582D01*
X009381Y015682D01*
X009776Y015682D01*
X009776Y015908D01*
X009766Y015946D01*
X009758Y015959D01*
X009836Y016037D01*
X009836Y016120D01*
X010006Y016120D01*
X010006Y016037D01*
X010038Y016006D01*
X010006Y015975D01*
X010006Y015289D01*
X010129Y015166D01*
X010222Y015166D01*
X010222Y014915D01*
X010166Y014859D01*
X010104Y014709D01*
X010104Y014547D01*
X010166Y014397D01*
X010227Y014336D01*
X010199Y014347D01*
X010037Y014347D01*
X009887Y014285D01*
X009776Y014174D01*
X009776Y014341D02*
X010022Y014341D01*
X010148Y014440D02*
X009381Y014440D01*
X009381Y014538D02*
X009281Y014538D01*
X009281Y014440D02*
X008575Y014440D01*
X008640Y014538D02*
X008885Y014538D01*
X008885Y014637D02*
X008656Y014637D01*
X008656Y014735D02*
X008901Y014735D01*
X008656Y014834D02*
X010155Y014834D01*
X010114Y014735D02*
X009760Y014735D01*
X009776Y014637D02*
X010104Y014637D01*
X010107Y014538D02*
X009776Y014538D01*
X009381Y014637D02*
X009281Y014637D01*
X009281Y014735D02*
X009381Y014735D01*
X009381Y015226D02*
X009646Y015226D01*
X009684Y015236D01*
X009718Y015256D01*
X009746Y015284D01*
X009766Y015318D01*
X009776Y015356D01*
X009776Y015582D01*
X009381Y015582D01*
X009381Y015226D01*
X009381Y015228D02*
X009281Y015228D01*
X009281Y015226D02*
X009281Y015582D01*
X008885Y015582D01*
X008885Y015356D01*
X008896Y015318D01*
X008915Y015284D01*
X008943Y015256D01*
X008977Y015236D01*
X009016Y015226D01*
X009281Y015226D01*
X009281Y015326D02*
X009381Y015326D01*
X009381Y015425D02*
X009281Y015425D01*
X009281Y015523D02*
X009381Y015523D01*
X009381Y015622D02*
X010006Y015622D01*
X010006Y015720D02*
X009776Y015720D01*
X009776Y015819D02*
X010006Y015819D01*
X010006Y015917D02*
X009773Y015917D01*
X009814Y016016D02*
X010028Y016016D01*
X010006Y016114D02*
X009836Y016114D01*
X009331Y016380D02*
X010512Y016380D01*
X010936Y016804D02*
X011353Y016804D01*
X011364Y016815D02*
X011337Y016787D01*
X011317Y016753D01*
X011307Y016715D01*
X011307Y016450D01*
X011662Y016450D01*
X011662Y016845D01*
X011437Y016845D01*
X011399Y016835D01*
X011364Y016815D01*
X011307Y016705D02*
X011017Y016705D01*
X011017Y016607D02*
X011307Y016607D01*
X011307Y016508D02*
X011017Y016508D01*
X011017Y016410D02*
X011662Y016410D01*
X011662Y016508D02*
X011762Y016508D01*
X011762Y016607D02*
X011662Y016607D01*
X011662Y016705D02*
X011762Y016705D01*
X011762Y016804D02*
X011662Y016804D01*
X012115Y016902D02*
X006047Y016902D01*
X006080Y016804D02*
X008906Y016804D01*
X008825Y016705D02*
X006098Y016705D01*
X006099Y016594D02*
X005500Y016594D01*
X005500Y015995D01*
X005577Y016005D01*
X005659Y016027D01*
X005738Y016060D01*
X005812Y016102D01*
X005879Y016154D01*
X005940Y016214D01*
X005992Y016282D01*
X006034Y016356D01*
X006067Y016435D01*
X006089Y016517D01*
X006099Y016594D01*
X006087Y016508D02*
X008382Y016508D01*
X008284Y016410D02*
X006057Y016410D01*
X006008Y016311D02*
X008185Y016311D01*
X008139Y016213D02*
X005938Y016213D01*
X005827Y016114D02*
X008136Y016114D01*
X008136Y016016D02*
X005617Y016016D01*
X005500Y016016D02*
X005400Y016016D01*
X005400Y016114D02*
X005500Y016114D01*
X005500Y016213D02*
X005400Y016213D01*
X005400Y016311D02*
X005500Y016311D01*
X005500Y016410D02*
X005400Y016410D01*
X005400Y016508D02*
X005500Y016508D01*
X005500Y016607D02*
X008531Y016607D01*
X008592Y016351D02*
X009301Y016351D01*
X009331Y016380D01*
X009755Y016804D02*
X010087Y016804D01*
X010006Y016705D02*
X009836Y016705D01*
X008847Y016016D02*
X008656Y016016D01*
X008656Y015917D02*
X008888Y015917D01*
X008885Y015819D02*
X008656Y015819D01*
X008656Y015720D02*
X008885Y015720D01*
X008885Y015523D02*
X008656Y015523D01*
X008656Y015425D02*
X008885Y015425D01*
X008893Y015326D02*
X008656Y015326D01*
X008656Y015228D02*
X009010Y015228D01*
X008656Y015129D02*
X010222Y015129D01*
X010222Y015031D02*
X008656Y015031D01*
X008656Y014932D02*
X010222Y014932D01*
X010068Y015228D02*
X009651Y015228D01*
X009768Y015326D02*
X010006Y015326D01*
X010006Y015425D02*
X009776Y015425D01*
X009776Y015523D02*
X010006Y015523D01*
X009281Y015622D02*
X008656Y015622D01*
X008136Y015622D02*
X007252Y015622D01*
X007252Y015720D02*
X008136Y015720D01*
X008136Y015819D02*
X007245Y015819D01*
X007146Y015917D02*
X008136Y015917D01*
X008396Y016154D02*
X008592Y016351D01*
X008396Y016154D02*
X008396Y014628D01*
X008161Y014394D01*
X006712Y014394D01*
X006916Y013894D02*
X007018Y013936D01*
X007170Y014088D01*
X007189Y014134D01*
X007227Y014134D01*
X007172Y014001D01*
X007172Y013787D01*
X007255Y013588D01*
X007407Y013436D01*
X007509Y013394D01*
X007407Y013352D01*
X007255Y013200D01*
X007172Y013001D01*
X007172Y012787D01*
X007255Y012588D01*
X007407Y012436D01*
X007509Y012394D01*
X007407Y012352D01*
X007255Y012200D01*
X007172Y012001D01*
X007172Y011787D01*
X007255Y011588D01*
X007407Y011436D01*
X007605Y011354D01*
X007820Y011354D01*
X008018Y011436D01*
X008170Y011588D01*
X008252Y011787D01*
X008252Y012001D01*
X008170Y012200D01*
X008018Y012352D01*
X007916Y012394D01*
X008018Y012436D01*
X008170Y012588D01*
X008178Y012607D01*
X008248Y012636D01*
X008321Y012709D01*
X008321Y012709D01*
X008879Y013267D01*
X008948Y013198D01*
X009710Y013198D01*
X009710Y013071D01*
X009772Y012921D01*
X009887Y012806D01*
X010037Y012744D01*
X010158Y012744D01*
X010252Y012650D01*
X010252Y012515D01*
X010129Y012515D01*
X010006Y012392D01*
X010006Y011707D01*
X010038Y011675D01*
X010006Y011644D01*
X010006Y011537D01*
X009922Y011502D01*
X009848Y011429D01*
X009836Y011417D01*
X009836Y011644D01*
X009758Y011722D01*
X009766Y011736D01*
X009776Y011774D01*
X009776Y011999D01*
X009381Y011999D01*
X009381Y012099D01*
X009776Y012099D01*
X009776Y012325D01*
X009766Y012363D01*
X009746Y012397D01*
X009718Y012425D01*
X009684Y012445D01*
X009646Y012455D01*
X009381Y012455D01*
X009381Y012099D01*
X009281Y012099D01*
X009281Y011999D01*
X008885Y011999D01*
X008885Y011774D01*
X008896Y011736D01*
X008903Y011722D01*
X008825Y011644D01*
X008825Y011489D01*
X008323Y010986D01*
X008283Y010891D01*
X008283Y010256D01*
X008235Y010207D01*
X008235Y010100D01*
X008135Y010201D01*
X007985Y010263D01*
X007822Y010263D01*
X007814Y010259D01*
X007808Y010262D01*
X006687Y010262D01*
X006687Y011333D01*
X006647Y011429D01*
X006574Y011502D01*
X006195Y011882D01*
X006195Y012232D01*
X006255Y012088D01*
X006407Y011936D01*
X006605Y011854D01*
X006820Y011854D01*
X007018Y011936D01*
X007170Y012088D01*
X007252Y012287D01*
X007252Y012501D01*
X007170Y012700D01*
X007018Y012852D01*
X006916Y012894D01*
X007018Y012936D01*
X007170Y013088D01*
X007252Y013287D01*
X007252Y013501D01*
X007170Y013700D01*
X007018Y013852D01*
X006916Y013894D01*
X007021Y013849D02*
X007172Y013849D01*
X007172Y013947D02*
X007029Y013947D01*
X007128Y014046D02*
X007191Y014046D01*
X007188Y013750D02*
X007120Y013750D01*
X007190Y013652D02*
X007228Y013652D01*
X007231Y013553D02*
X007289Y013553D01*
X007252Y013455D02*
X007388Y013455D01*
X007417Y013356D02*
X007252Y013356D01*
X007241Y013258D02*
X007313Y013258D01*
X007238Y013159D02*
X007200Y013159D01*
X007197Y013061D02*
X007143Y013061D01*
X007172Y012962D02*
X007044Y012962D01*
X006989Y012864D02*
X007172Y012864D01*
X007181Y012765D02*
X007105Y012765D01*
X007184Y012667D02*
X007222Y012667D01*
X007225Y012568D02*
X007275Y012568D01*
X007252Y012470D02*
X007373Y012470D01*
X007454Y012371D02*
X007252Y012371D01*
X007247Y012273D02*
X007328Y012273D01*
X007244Y012174D02*
X007206Y012174D01*
X007203Y012076D02*
X007158Y012076D01*
X007172Y011977D02*
X007059Y011977D01*
X007172Y011879D02*
X006880Y011879D01*
X006545Y011879D02*
X006198Y011879D01*
X006195Y011977D02*
X006366Y011977D01*
X006267Y012076D02*
X006195Y012076D01*
X006195Y012174D02*
X006219Y012174D01*
X006296Y011780D02*
X007175Y011780D01*
X007216Y011682D02*
X006395Y011682D01*
X006493Y011583D02*
X007260Y011583D01*
X007358Y011485D02*
X006592Y011485D01*
X006574Y011502D02*
X006574Y011502D01*
X006665Y011386D02*
X007527Y011386D01*
X007898Y011386D02*
X008723Y011386D01*
X008624Y011288D02*
X006687Y011288D01*
X006687Y011189D02*
X008526Y011189D01*
X008427Y011091D02*
X006687Y011091D01*
X006687Y010992D02*
X008329Y010992D01*
X008285Y010894D02*
X006687Y010894D01*
X006687Y010795D02*
X008283Y010795D01*
X008283Y010697D02*
X006687Y010697D01*
X006687Y010598D02*
X008283Y010598D01*
X008283Y010500D02*
X006687Y010500D01*
X006687Y010401D02*
X008283Y010401D01*
X008283Y010303D02*
X006687Y010303D01*
X006427Y010101D02*
X006525Y010002D01*
X007756Y010002D01*
X007903Y009855D01*
X008229Y010106D02*
X008235Y010106D01*
X008235Y010204D02*
X008126Y010204D01*
X008543Y009825D02*
X008543Y010839D01*
X008986Y011282D01*
X009311Y011282D01*
X009331Y011301D01*
X008821Y011485D02*
X008067Y011485D01*
X008165Y011583D02*
X008825Y011583D01*
X008863Y011682D02*
X008209Y011682D01*
X008250Y011780D02*
X008885Y011780D01*
X008885Y011879D02*
X008252Y011879D01*
X008252Y011977D02*
X008885Y011977D01*
X008885Y012099D02*
X009281Y012099D01*
X009281Y012455D01*
X009016Y012455D01*
X008977Y012445D01*
X008943Y012425D01*
X008915Y012397D01*
X008896Y012363D01*
X008885Y012325D01*
X008885Y012099D01*
X008885Y012174D02*
X008181Y012174D01*
X008222Y012076D02*
X009281Y012076D01*
X009281Y012174D02*
X009381Y012174D01*
X009381Y012076D02*
X010006Y012076D01*
X010006Y012174D02*
X009776Y012174D01*
X009776Y012273D02*
X010006Y012273D01*
X010006Y012371D02*
X009761Y012371D01*
X009381Y012371D02*
X009281Y012371D01*
X009281Y012273D02*
X009381Y012273D01*
X009776Y011977D02*
X010006Y011977D01*
X010006Y011879D02*
X009776Y011879D01*
X009776Y011780D02*
X010006Y011780D01*
X010031Y011682D02*
X009798Y011682D01*
X009836Y011583D02*
X010006Y011583D01*
X009904Y011485D02*
X009836Y011485D01*
X010069Y011282D02*
X010492Y011282D01*
X010512Y011301D01*
X010069Y011282D02*
X009921Y011134D01*
X009921Y010937D01*
X009626Y010642D01*
X009085Y010642D01*
X008858Y010416D01*
X008858Y009825D01*
X009173Y009825D02*
X009173Y010189D01*
X009380Y010396D01*
X009774Y010396D01*
X010118Y010740D01*
X010955Y010740D01*
X011053Y010839D01*
X011053Y011183D01*
X011151Y011282D01*
X011673Y011282D01*
X011693Y011301D01*
X012410Y010500D02*
X012782Y010500D01*
X012782Y010598D02*
X012509Y010598D01*
X012604Y010697D02*
X012782Y010697D01*
X012878Y010795D02*
X012642Y010795D01*
X012642Y011091D02*
X012861Y011091D01*
X012852Y011106D02*
X012872Y011072D01*
X012900Y011044D01*
X012934Y011024D01*
X012972Y011014D01*
X013218Y011014D01*
X013218Y011429D01*
X012842Y011429D01*
X012842Y011144D01*
X012852Y011106D01*
X012842Y011189D02*
X012642Y011189D01*
X012642Y011288D02*
X012842Y011288D01*
X012842Y011386D02*
X012642Y011386D01*
X013218Y011386D02*
X013318Y011386D01*
X013318Y011288D02*
X013218Y011288D01*
X013218Y011189D02*
X013318Y011189D01*
X013318Y011091D02*
X013218Y011091D01*
X013218Y011682D02*
X013318Y011682D01*
X013318Y011780D02*
X013218Y011780D01*
X013218Y011879D02*
X013318Y011879D01*
X013667Y011879D02*
X014034Y011879D01*
X013935Y011780D02*
X013693Y011780D01*
X013693Y011682D02*
X013852Y011682D01*
X013741Y013061D02*
X016361Y013061D01*
X016361Y013159D02*
X013840Y013159D01*
X012024Y014538D02*
X010916Y014538D01*
X010920Y014637D02*
X012024Y014637D01*
X012028Y014735D02*
X010909Y014735D01*
X010868Y014834D02*
X012069Y014834D01*
X012126Y014932D02*
X010802Y014932D01*
X010802Y015031D02*
X012201Y015031D01*
X012201Y015129D02*
X010802Y015129D01*
X010955Y015228D02*
X012201Y015228D01*
X012201Y015326D02*
X011017Y015326D01*
X011017Y015425D02*
X012201Y015425D01*
X012201Y015523D02*
X011017Y015523D01*
X011017Y015622D02*
X012201Y015622D01*
X012201Y015720D02*
X011017Y015720D01*
X011017Y015819D02*
X012201Y015819D01*
X012095Y015917D02*
X011017Y015917D01*
X010995Y016016D02*
X011335Y016016D01*
X011307Y016114D02*
X011017Y016114D01*
X011017Y016213D02*
X011307Y016213D01*
X011307Y016311D02*
X011017Y016311D01*
X011662Y016311D02*
X011762Y016311D01*
X011762Y016213D02*
X011662Y016213D01*
X011662Y016114D02*
X011762Y016114D01*
X011762Y016016D02*
X011662Y016016D01*
X012806Y016902D02*
X014083Y016902D01*
X016361Y017001D02*
X005995Y017001D01*
X005914Y017099D02*
X016361Y017099D01*
X011962Y014440D02*
X010875Y014440D01*
X010802Y014341D02*
X011925Y014341D01*
X011925Y014243D02*
X010648Y014243D01*
X010475Y014144D02*
X011925Y014144D01*
X011925Y014046D02*
X010516Y014046D01*
X010221Y014341D02*
X010214Y014341D01*
X009331Y013664D02*
X008907Y013664D01*
X008100Y012857D01*
X007750Y012857D01*
X007712Y012894D01*
X008112Y013258D02*
X008134Y013258D01*
X008232Y013356D02*
X008007Y013356D01*
X008037Y013455D02*
X008331Y013455D01*
X008429Y013553D02*
X008135Y013553D01*
X008197Y013652D02*
X008528Y013652D01*
X008626Y013750D02*
X008237Y013750D01*
X008252Y013849D02*
X008725Y013849D01*
X008825Y013947D02*
X008252Y013947D01*
X008234Y014046D02*
X008865Y014046D01*
X008885Y014144D02*
X008238Y014144D01*
X008378Y014243D02*
X008885Y014243D01*
X008885Y014341D02*
X008476Y014341D01*
X008136Y015326D02*
X008044Y015326D01*
X008136Y015425D02*
X007842Y015425D01*
X007583Y015425D02*
X007252Y015425D01*
X007252Y015523D02*
X008136Y015523D01*
X007381Y015326D02*
X007252Y015326D01*
X007252Y015228D02*
X007283Y015228D01*
X006712Y015394D02*
X006405Y015394D01*
X005935Y014923D01*
X005935Y011774D01*
X006427Y011282D01*
X006427Y010101D01*
X006427Y010002D02*
X006525Y010002D01*
X006427Y010002D02*
X005807Y009382D01*
X005807Y009313D01*
X005341Y009318D02*
X004659Y009318D01*
X004659Y009416D02*
X005341Y009416D01*
X005341Y009515D02*
X004659Y009515D01*
X004659Y009613D02*
X005341Y009613D01*
X005357Y009712D02*
X004642Y009712D01*
X004544Y009810D02*
X005456Y009810D01*
X005500Y009982D02*
X005577Y009993D01*
X005659Y010015D01*
X005738Y010047D01*
X005812Y010090D01*
X005879Y010142D01*
X005940Y010202D01*
X005992Y010270D01*
X006034Y010343D01*
X006067Y010422D01*
X006089Y010504D01*
X006099Y010581D01*
X005500Y010581D01*
X005500Y009982D01*
X005500Y010007D02*
X005400Y010007D01*
X005400Y009982D02*
X005400Y010581D01*
X005500Y010581D01*
X005500Y010681D01*
X006099Y010681D01*
X006089Y010759D01*
X006067Y010841D01*
X006034Y010920D01*
X005992Y010993D01*
X005940Y011061D01*
X005879Y011121D01*
X005812Y011173D01*
X005738Y011216D01*
X005659Y011248D01*
X005577Y011270D01*
X005500Y011280D01*
X005500Y010681D01*
X005400Y010681D01*
X005400Y011280D01*
X005323Y011270D01*
X005302Y011265D01*
X005302Y011537D01*
X005228Y011815D01*
X005085Y012063D01*
X004882Y012266D01*
X004633Y012410D01*
X004356Y012484D01*
X004069Y012484D01*
X003792Y012410D01*
X003543Y012266D01*
X003340Y012063D01*
X003197Y011815D01*
X003122Y011537D01*
X003122Y011250D01*
X003197Y010973D01*
X003340Y010725D01*
X003543Y010522D01*
X003792Y010378D01*
X004069Y010304D01*
X004356Y010304D01*
X004633Y010378D01*
X004817Y010484D01*
X004833Y010422D01*
X004866Y010343D01*
X004908Y010270D01*
X004960Y010202D01*
X005020Y010142D01*
X005088Y010090D01*
X005162Y010047D01*
X005241Y010015D01*
X005323Y009993D01*
X005400Y009982D01*
X005400Y010106D02*
X005500Y010106D01*
X005500Y010204D02*
X005400Y010204D01*
X005400Y010303D02*
X005500Y010303D01*
X005500Y010401D02*
X005400Y010401D01*
X005400Y010500D02*
X005500Y010500D01*
X005500Y010598D02*
X006167Y010598D01*
X006167Y010500D02*
X006088Y010500D01*
X006058Y010401D02*
X006167Y010401D01*
X006167Y010303D02*
X006011Y010303D01*
X005941Y010204D02*
X006167Y010204D01*
X006163Y010106D02*
X005833Y010106D01*
X005632Y010007D02*
X006064Y010007D01*
X005966Y009909D02*
X003877Y009909D01*
X003882Y010007D02*
X005268Y010007D01*
X005067Y010106D02*
X003873Y010106D01*
X003832Y010204D02*
X004958Y010204D01*
X004889Y010303D02*
X003751Y010303D01*
X003752Y010401D02*
X003577Y010401D01*
X003581Y010500D02*
X002300Y010500D01*
X002300Y010598D02*
X003467Y010598D01*
X003368Y010697D02*
X002895Y010697D01*
X002920Y010715D02*
X002974Y010769D01*
X003018Y010830D01*
X003052Y010897D01*
X003076Y010969D01*
X003086Y011033D01*
X002656Y011033D01*
X002656Y010603D01*
X002720Y010613D01*
X002792Y010637D01*
X002859Y010671D01*
X002920Y010715D01*
X002993Y010795D02*
X003300Y010795D01*
X003243Y010894D02*
X003051Y010894D01*
X003079Y010992D02*
X003192Y010992D01*
X003165Y011091D02*
X002656Y011091D01*
X002656Y010992D02*
X002559Y010992D01*
X002559Y010894D02*
X002656Y010894D01*
X002656Y010795D02*
X002559Y010795D01*
X002559Y010697D02*
X002656Y010697D01*
X002320Y010697D02*
X002300Y010697D01*
X002300Y010401D02*
X003371Y010401D01*
X003198Y010303D02*
X002300Y010303D01*
X002300Y010204D02*
X003116Y010204D01*
X003075Y010106D02*
X002300Y010106D01*
X002300Y010007D02*
X003066Y010007D01*
X003071Y009909D02*
X002300Y009909D01*
X002300Y009810D02*
X003094Y009810D01*
X002995Y009712D02*
X002300Y009712D01*
X002300Y009613D02*
X002979Y009613D01*
X002767Y009515D02*
X002300Y009515D01*
X002300Y009416D02*
X002668Y009416D01*
X002570Y009318D02*
X002300Y009318D01*
X002300Y009219D02*
X002471Y009219D01*
X002373Y009121D02*
X002300Y009121D01*
X002300Y009022D02*
X002300Y009022D01*
X002539Y008920D02*
X002933Y009313D01*
X003445Y009313D01*
X003474Y009343D01*
X003474Y010002D01*
X003837Y009810D02*
X003842Y009810D01*
X004659Y009219D02*
X005341Y009219D01*
X005341Y009121D02*
X004717Y009121D01*
X004815Y009022D02*
X005341Y009022D01*
X005348Y008924D02*
X004914Y008924D01*
X004487Y008530D02*
X003882Y008530D01*
X003882Y008558D02*
X003820Y008708D01*
X003720Y008808D01*
X003788Y008808D01*
X003819Y008839D01*
X003850Y008808D01*
X004209Y008808D01*
X004606Y008411D01*
X004688Y008329D01*
X004795Y008285D01*
X006436Y008285D01*
X006542Y008329D01*
X006739Y008526D01*
X006821Y008608D01*
X006865Y008714D01*
X006865Y008808D01*
X006898Y008808D01*
X007021Y008931D01*
X007021Y009023D01*
X007329Y009023D01*
X007329Y008931D01*
X007389Y008871D01*
X007389Y008801D01*
X007389Y008683D01*
X007399Y008645D01*
X007400Y008644D01*
X007399Y008643D01*
X007389Y008605D01*
X007389Y008486D01*
X007389Y008417D01*
X007329Y008357D01*
X007329Y008139D01*
X007313Y008156D01*
X007217Y008195D01*
X006946Y008195D01*
X006898Y008244D01*
X006212Y008244D01*
X006181Y008213D01*
X006150Y008244D01*
X005464Y008244D01*
X005341Y008121D01*
X005341Y008071D01*
X005278Y008097D01*
X005116Y008097D01*
X004966Y008035D01*
X004851Y007920D01*
X004789Y007770D01*
X004789Y007608D01*
X004851Y007458D01*
X004966Y007343D01*
X005116Y007281D01*
X005278Y007281D01*
X005376Y007322D01*
X005464Y007233D01*
X006150Y007233D01*
X006181Y007264D01*
X006203Y007242D01*
X006172Y007211D01*
X004410Y007211D01*
X004419Y007233D01*
X004536Y007233D01*
X004659Y007356D01*
X004659Y008121D01*
X004536Y008244D01*
X003850Y008244D01*
X003819Y008213D01*
X003803Y008228D01*
X003820Y008245D01*
X003882Y008395D01*
X003882Y008558D01*
X003853Y008628D02*
X004389Y008628D01*
X004290Y008727D02*
X003801Y008727D01*
X003805Y008825D02*
X003833Y008825D01*
X003882Y008431D02*
X004586Y008431D01*
X004606Y008411D02*
X004606Y008411D01*
X004684Y008333D02*
X003856Y008333D01*
X003840Y008234D02*
X003809Y008234D01*
X003474Y008477D02*
X003474Y007768D01*
X003445Y007738D01*
X003573Y007246D02*
X004114Y007246D01*
X004163Y007296D01*
X004163Y007709D01*
X004193Y007738D01*
X004659Y007742D02*
X004789Y007742D01*
X004789Y007643D02*
X004659Y007643D01*
X004659Y007545D02*
X004815Y007545D01*
X004863Y007446D02*
X004659Y007446D01*
X004650Y007348D02*
X004961Y007348D01*
X005197Y007689D02*
X005758Y007689D01*
X005807Y007738D01*
X005356Y008136D02*
X004644Y008136D01*
X004659Y008037D02*
X004970Y008037D01*
X004869Y007939D02*
X004659Y007939D01*
X004659Y007840D02*
X004818Y007840D01*
X004545Y008234D02*
X005455Y008234D01*
X006159Y008234D02*
X006203Y008234D01*
X006546Y008333D02*
X007329Y008333D01*
X007329Y008234D02*
X006907Y008234D01*
X006644Y008431D02*
X007389Y008431D01*
X007389Y008486D02*
X007835Y008486D01*
X007835Y008486D01*
X008280Y008486D01*
X008280Y008471D01*
X008745Y008471D01*
X008745Y008826D01*
X008280Y008826D01*
X008280Y008801D01*
X007835Y008801D01*
X007835Y008801D01*
X007835Y008486D01*
X008280Y008486D01*
X008280Y008605D01*
X008270Y008643D01*
X008269Y008644D01*
X008270Y008645D01*
X008280Y008683D01*
X008280Y008801D01*
X007835Y008801D01*
X007835Y008801D01*
X007835Y008735D01*
X007835Y008486D01*
X007835Y008486D01*
X007835Y008486D01*
X007389Y008486D01*
X007389Y008530D02*
X006743Y008530D01*
X006739Y008526D02*
X006739Y008526D01*
X006829Y008628D02*
X007396Y008628D01*
X007389Y008727D02*
X006865Y008727D01*
X006915Y008825D02*
X007389Y008825D01*
X007389Y008801D02*
X007835Y008801D01*
X007389Y008801D01*
X007336Y008924D02*
X007014Y008924D01*
X007021Y009022D02*
X007329Y009022D01*
X007835Y008801D02*
X007835Y008801D01*
X007835Y008727D02*
X007835Y008727D01*
X007835Y008628D02*
X007835Y008628D01*
X007835Y008530D02*
X007835Y008530D01*
X008280Y008530D02*
X008745Y008530D01*
X008745Y008628D02*
X008273Y008628D01*
X008280Y008727D02*
X008745Y008727D01*
X008745Y008825D02*
X008280Y008825D01*
X008592Y007837D02*
X007854Y007837D01*
X007835Y007857D01*
X007835Y007542D02*
X007559Y007542D01*
X007165Y007935D01*
X006752Y007935D01*
X006555Y007738D01*
X006555Y007227D01*
X006279Y006951D01*
X003671Y006951D01*
X003524Y006803D01*
X003524Y006242D01*
X003445Y006164D01*
X003179Y005475D02*
X002736Y005918D01*
X002736Y006410D01*
X003573Y007246D01*
X004552Y007249D02*
X005448Y007249D01*
X006166Y007249D02*
X006196Y007249D01*
X006555Y007738D02*
X006752Y007542D01*
X007021Y007545D02*
X007188Y007545D01*
X007090Y007643D02*
X007021Y007643D01*
X007021Y007675D02*
X007058Y007675D01*
X007329Y007404D01*
X007329Y007041D01*
X007389Y006981D01*
X007389Y006912D01*
X007835Y006912D01*
X007835Y006912D01*
X007389Y006912D01*
X007389Y006842D01*
X007329Y006782D01*
X007329Y006541D01*
X007234Y006502D01*
X007067Y006335D01*
X007021Y006289D01*
X007021Y006453D01*
X007150Y006507D01*
X007265Y006621D01*
X007327Y006771D01*
X007327Y006934D01*
X007265Y007084D01*
X007150Y007199D01*
X007000Y007261D01*
X006925Y007261D01*
X007021Y007356D01*
X007021Y007675D01*
X007021Y007446D02*
X007287Y007446D01*
X007329Y007348D02*
X007012Y007348D01*
X007028Y007249D02*
X007329Y007249D01*
X007329Y007151D02*
X007198Y007151D01*
X007278Y007052D02*
X007329Y007052D01*
X007319Y006954D02*
X007389Y006954D01*
X007389Y006855D02*
X007327Y006855D01*
X007321Y006757D02*
X007329Y006757D01*
X007329Y006658D02*
X007280Y006658D01*
X007329Y006560D02*
X007203Y006560D01*
X007194Y006461D02*
X007041Y006461D01*
X007021Y006363D02*
X007095Y006363D01*
X007214Y006114D02*
X007214Y005918D01*
X006476Y005179D01*
X003081Y005179D01*
X002539Y005721D01*
X002539Y008920D01*
X004673Y010401D02*
X004842Y010401D01*
X005400Y010697D02*
X005500Y010697D01*
X005500Y010795D02*
X005400Y010795D01*
X005400Y010894D02*
X005500Y010894D01*
X005500Y010992D02*
X005400Y010992D01*
X005400Y011091D02*
X005500Y011091D01*
X005500Y011189D02*
X005400Y011189D01*
X005302Y011288D02*
X006053Y011288D01*
X005955Y011386D02*
X005302Y011386D01*
X005302Y011485D02*
X005856Y011485D01*
X005758Y011583D02*
X005290Y011583D01*
X005264Y011682D02*
X005692Y011682D01*
X005675Y011780D02*
X005237Y011780D01*
X005191Y011879D02*
X005675Y011879D01*
X005675Y011977D02*
X005134Y011977D01*
X005072Y012076D02*
X005675Y012076D01*
X005675Y012174D02*
X004974Y012174D01*
X004870Y012273D02*
X005675Y012273D01*
X005675Y012371D02*
X004700Y012371D01*
X004409Y012470D02*
X005675Y012470D01*
X005675Y012568D02*
X002843Y012568D01*
X002983Y012470D02*
X004016Y012470D01*
X003725Y012371D02*
X003072Y012371D01*
X003113Y012273D02*
X003555Y012273D01*
X003451Y012174D02*
X003147Y012174D01*
X003147Y012076D02*
X003353Y012076D01*
X003291Y011977D02*
X003147Y011977D01*
X003108Y011879D02*
X003234Y011879D01*
X003188Y011780D02*
X003067Y011780D01*
X003161Y011682D02*
X002971Y011682D01*
X002816Y011583D02*
X003135Y011583D01*
X003122Y011485D02*
X002869Y011485D01*
X002979Y011386D02*
X003122Y011386D01*
X003122Y011288D02*
X003041Y011288D01*
X003076Y011189D02*
X003139Y011189D01*
X002372Y012568D02*
X002300Y012568D01*
X002300Y012667D02*
X005675Y012667D01*
X005675Y012765D02*
X002300Y012765D01*
X002300Y012864D02*
X005675Y012864D01*
X005675Y012962D02*
X002300Y012962D01*
X002300Y013061D02*
X005675Y013061D01*
X005675Y013159D02*
X002300Y013159D01*
X002300Y013258D02*
X005675Y013258D01*
X005675Y013356D02*
X002300Y013356D01*
X002300Y013455D02*
X005675Y013455D01*
X005675Y013553D02*
X002300Y013553D01*
X002300Y013652D02*
X005675Y013652D01*
X005675Y013750D02*
X002300Y013750D01*
X002300Y013849D02*
X005675Y013849D01*
X005675Y013947D02*
X002300Y013947D01*
X002300Y014046D02*
X005675Y014046D01*
X005675Y014144D02*
X002300Y014144D01*
X002300Y014243D02*
X005675Y014243D01*
X005675Y014341D02*
X002300Y014341D01*
X002300Y014440D02*
X005675Y014440D01*
X005675Y014538D02*
X002300Y014538D01*
X002300Y014637D02*
X005675Y014637D01*
X005675Y014735D02*
X002300Y014735D01*
X002300Y014834D02*
X002324Y014834D01*
X002559Y014834D02*
X002656Y014834D01*
X002656Y014743D02*
X002720Y014753D01*
X002792Y014777D01*
X002859Y014811D01*
X002920Y014855D01*
X002974Y014909D01*
X003018Y014970D01*
X003052Y015037D01*
X003076Y015109D01*
X003086Y015173D01*
X002656Y015173D01*
X002656Y014743D01*
X002656Y014932D02*
X002559Y014932D01*
X002559Y015031D02*
X002656Y015031D01*
X002656Y015129D02*
X002559Y015129D01*
X002656Y015228D02*
X003338Y015228D01*
X003282Y015326D02*
X003077Y015326D01*
X003043Y015425D02*
X003225Y015425D01*
X003183Y015523D02*
X002981Y015523D01*
X002873Y015622D02*
X003157Y015622D01*
X003131Y015720D02*
X002826Y015720D01*
X002968Y015819D02*
X003122Y015819D01*
X003122Y015917D02*
X003059Y015917D01*
X003099Y016016D02*
X003122Y016016D01*
X003135Y016114D02*
X003143Y016114D01*
X003135Y016213D02*
X003169Y016213D01*
X003196Y016311D02*
X003135Y016311D01*
X003096Y016410D02*
X003252Y016410D01*
X003309Y016508D02*
X003055Y016508D01*
X002961Y016607D02*
X003384Y016607D01*
X003482Y016705D02*
X002808Y016705D01*
X002382Y016705D02*
X002300Y016705D01*
X002300Y016804D02*
X003608Y016804D01*
X003779Y016902D02*
X002300Y016902D01*
X002300Y017001D02*
X004905Y017001D01*
X004853Y016902D02*
X004646Y016902D01*
X004817Y016804D02*
X004820Y016804D01*
X004986Y017099D02*
X002300Y017099D01*
X003079Y015129D02*
X003436Y015129D01*
X003534Y015031D02*
X003049Y015031D01*
X002991Y014932D02*
X003698Y014932D01*
X003958Y014834D02*
X002891Y014834D01*
X004467Y014834D02*
X005675Y014834D01*
X005675Y014932D02*
X004727Y014932D01*
X004891Y015031D02*
X005698Y015031D01*
X005773Y015129D02*
X004989Y015129D01*
X005086Y015228D02*
X005872Y015228D01*
X005970Y015326D02*
X005143Y015326D01*
X005200Y015425D02*
X006069Y015425D01*
X006167Y015523D02*
X005242Y015523D01*
X005268Y015622D02*
X006172Y015622D01*
X006172Y015720D02*
X005294Y015720D01*
X005302Y015819D02*
X006180Y015819D01*
X006279Y015917D02*
X005302Y015917D01*
X008377Y012765D02*
X009985Y012765D01*
X009829Y012864D02*
X008475Y012864D01*
X008574Y012962D02*
X009755Y012962D01*
X009714Y013061D02*
X008672Y013061D01*
X008771Y013159D02*
X009710Y013159D01*
X010118Y013152D02*
X010512Y012758D01*
X010512Y012049D01*
X010084Y012470D02*
X008052Y012470D01*
X007971Y012371D02*
X008900Y012371D01*
X008885Y012273D02*
X008097Y012273D01*
X008150Y012568D02*
X010252Y012568D01*
X010235Y012667D02*
X008278Y012667D01*
X008869Y013258D02*
X008888Y013258D01*
X011462Y013947D02*
X011925Y013947D01*
X011925Y013849D02*
X011560Y013849D01*
X011659Y013750D02*
X011925Y013750D01*
X011925Y013652D02*
X011757Y013652D01*
X011856Y013553D02*
X011925Y013553D01*
X012312Y010401D02*
X012782Y010401D01*
X012782Y010303D02*
X012213Y010303D01*
X012086Y010204D02*
X012782Y010204D01*
X012782Y010106D02*
X011941Y010106D01*
X011941Y010007D02*
X012782Y010007D01*
X012782Y009909D02*
X011941Y009909D01*
X011941Y009810D02*
X012867Y009810D01*
X013008Y009712D02*
X011941Y009712D01*
X011941Y009613D02*
X013025Y009613D01*
X013092Y009515D02*
X011941Y009515D01*
X011890Y009416D02*
X012011Y009416D01*
X011768Y009380D02*
X011725Y009362D01*
X011228Y008865D01*
X011075Y008865D01*
X011038Y008902D01*
X011038Y008967D01*
X011038Y009320D01*
X011563Y009320D01*
X011623Y009380D01*
X011693Y009380D01*
X011768Y009380D01*
X011693Y009380D02*
X011693Y009825D01*
X011693Y009825D01*
X011693Y009380D01*
X011693Y009416D02*
X011693Y009416D01*
X011693Y009515D02*
X011693Y009515D01*
X011693Y009613D02*
X011693Y009613D01*
X011693Y009712D02*
X011693Y009712D01*
X011693Y009810D02*
X011693Y009810D01*
X011681Y009318D02*
X011038Y009318D01*
X011038Y009219D02*
X011582Y009219D01*
X011484Y009121D02*
X011038Y009121D01*
X011038Y009022D02*
X011385Y009022D01*
X011287Y008924D02*
X011038Y008924D01*
X010684Y008436D02*
X010790Y008329D01*
X010897Y008285D01*
X011406Y008285D01*
X011513Y008329D01*
X011594Y008411D01*
X011896Y008713D01*
X011896Y008616D01*
X011956Y008556D01*
X011956Y008486D01*
X011956Y008417D01*
X011896Y008357D01*
X011896Y007263D01*
X011658Y007501D01*
X011658Y007623D01*
X011596Y007773D01*
X011481Y007888D01*
X011331Y007950D01*
X011169Y007950D01*
X011019Y007888D01*
X010904Y007773D01*
X010842Y007623D01*
X010842Y007460D01*
X010843Y007458D01*
X010775Y007458D01*
X010625Y007395D01*
X010510Y007281D01*
X010448Y007131D01*
X010448Y006968D01*
X010510Y006818D01*
X010560Y006769D01*
X010529Y006769D01*
X010379Y006706D01*
X010264Y006592D01*
X010202Y006442D01*
X010202Y006279D01*
X010264Y006129D01*
X010379Y006015D01*
X010529Y005952D01*
X010645Y005952D01*
X010645Y005935D01*
X010707Y005785D01*
X010728Y005763D01*
X009347Y005763D01*
X009389Y005805D01*
X009510Y005805D01*
X009660Y005867D01*
X009775Y005982D01*
X009837Y006132D01*
X009837Y006294D01*
X009775Y006444D01*
X009660Y006559D01*
X009510Y006621D01*
X009348Y006621D01*
X009325Y006612D01*
X009325Y007255D01*
X009308Y007296D01*
X009325Y007336D01*
X009325Y008091D01*
X009288Y008181D01*
X009325Y008271D01*
X009325Y008334D01*
X010520Y008334D01*
X010627Y008378D01*
X010684Y008436D01*
X010680Y008431D02*
X010688Y008431D01*
X010787Y008333D02*
X009325Y008333D01*
X009310Y008234D02*
X011896Y008234D01*
X011896Y008136D02*
X009307Y008136D01*
X009325Y008037D02*
X011896Y008037D01*
X011896Y007939D02*
X011358Y007939D01*
X011528Y007840D02*
X011896Y007840D01*
X011896Y007742D02*
X011609Y007742D01*
X011650Y007643D02*
X011896Y007643D01*
X011896Y007545D02*
X011658Y007545D01*
X011713Y007446D02*
X011896Y007446D01*
X011896Y007348D02*
X011811Y007348D01*
X011880Y006912D02*
X011250Y007542D01*
X010971Y007840D02*
X009325Y007840D01*
X009325Y007742D02*
X010891Y007742D01*
X010850Y007643D02*
X009325Y007643D01*
X009325Y007545D02*
X010842Y007545D01*
X010748Y007446D02*
X009325Y007446D01*
X009325Y007348D02*
X010577Y007348D01*
X010497Y007249D02*
X009325Y007249D01*
X009325Y007151D02*
X010456Y007151D01*
X010448Y007052D02*
X009325Y007052D01*
X009325Y006954D02*
X010454Y006954D01*
X010495Y006855D02*
X009325Y006855D01*
X009325Y006757D02*
X010500Y006757D01*
X010331Y006658D02*
X009325Y006658D01*
X009658Y006560D02*
X010251Y006560D01*
X010210Y006461D02*
X009758Y006461D01*
X009809Y006363D02*
X010202Y006363D01*
X010208Y006264D02*
X009837Y006264D01*
X009837Y006166D02*
X010249Y006166D01*
X010326Y006067D02*
X009810Y006067D01*
X009762Y005969D02*
X010489Y005969D01*
X010672Y005870D02*
X009664Y005870D01*
X009356Y005772D02*
X010720Y005772D01*
X011053Y006016D02*
X012352Y006016D01*
X012401Y005967D01*
X012382Y006262D02*
X012401Y006282D01*
X012382Y006262D02*
X011594Y006262D01*
X011496Y006360D01*
X010610Y006360D01*
X010856Y007049D02*
X011348Y007049D01*
X011791Y006607D01*
X012392Y006607D01*
X012401Y006597D01*
X012401Y006912D02*
X011880Y006912D01*
X012907Y006954D02*
X013053Y006954D01*
X013057Y006949D02*
X013092Y006929D01*
X013130Y006919D01*
X013414Y006919D01*
X013414Y007295D01*
X012999Y007295D01*
X012999Y007049D01*
X013010Y007011D01*
X013029Y006977D01*
X013057Y006949D01*
X012999Y007052D02*
X012907Y007052D01*
X012907Y007151D02*
X012999Y007151D01*
X012999Y007249D02*
X012907Y007249D01*
X012907Y007348D02*
X013414Y007348D01*
X013414Y007395D02*
X013414Y007295D01*
X013514Y007295D01*
X013514Y006919D01*
X013799Y006919D01*
X013837Y006929D01*
X013872Y006949D01*
X013899Y006977D01*
X013919Y007011D01*
X013929Y007049D01*
X013929Y007295D01*
X013514Y007295D01*
X013514Y007395D01*
X013414Y007395D01*
X012999Y007395D01*
X012999Y007640D01*
X013010Y007678D01*
X013029Y007712D01*
X013057Y007740D01*
X013092Y007760D01*
X013130Y007770D01*
X013414Y007770D01*
X013414Y007395D01*
X013414Y007446D02*
X013514Y007446D01*
X013514Y007395D02*
X013514Y007770D01*
X013799Y007770D01*
X013814Y007766D01*
X013400Y008180D01*
X013351Y008131D01*
X013201Y008069D01*
X013039Y008069D01*
X012907Y008123D01*
X012907Y005781D01*
X012784Y005658D01*
X012019Y005658D01*
X011922Y005756D01*
X011571Y005756D01*
X011623Y005703D01*
X011693Y005703D01*
X011693Y005258D01*
X011693Y005258D01*
X011941Y005258D01*
X011941Y004943D01*
X011931Y004905D01*
X011911Y004871D01*
X011883Y004843D01*
X011849Y004823D01*
X011811Y004813D01*
X011693Y004813D01*
X011693Y005258D01*
X011693Y005258D01*
X011941Y005258D01*
X011941Y005573D01*
X011931Y005611D01*
X011911Y005646D01*
X011883Y005673D01*
X011849Y005693D01*
X011811Y005703D01*
X011693Y005703D01*
X011693Y005258D01*
X011693Y004813D01*
X011623Y004813D01*
X011563Y004753D01*
X009098Y004753D01*
X009098Y004734D01*
X009059Y004638D01*
X008986Y004565D01*
X008789Y004368D01*
X008693Y004329D01*
X008399Y004329D01*
X008399Y004207D01*
X008276Y004084D01*
X007590Y004084D01*
X007559Y004115D01*
X007528Y004084D01*
X007433Y004084D01*
X007411Y004031D01*
X007330Y003949D01*
X007238Y003858D01*
X011313Y003858D01*
X011307Y003880D01*
X011307Y004145D01*
X011662Y004145D01*
X011662Y004245D01*
X011307Y004245D01*
X011307Y004510D01*
X011317Y004548D01*
X011337Y004583D01*
X011364Y004610D01*
X011399Y004630D01*
X011437Y004640D01*
X011662Y004640D01*
X011662Y004245D01*
X011762Y004245D01*
X011762Y004640D01*
X011988Y004640D01*
X012026Y004630D01*
X012040Y004622D01*
X012118Y004700D01*
X012803Y004700D01*
X012926Y004577D01*
X012926Y004485D01*
X013028Y004485D01*
X013065Y004523D01*
X012997Y004591D01*
X012997Y005355D01*
X013108Y005465D01*
X013087Y005485D01*
X013068Y005520D01*
X013057Y005558D01*
X013057Y005823D01*
X013552Y005823D01*
X013552Y005923D01*
X013552Y006318D01*
X013188Y006318D01*
X013150Y006307D01*
X013115Y006288D01*
X013087Y006260D01*
X013068Y006225D01*
X013057Y006187D01*
X013057Y005923D01*
X013552Y005923D01*
X013652Y005923D01*
X013652Y006318D01*
X014017Y006318D01*
X014055Y006307D01*
X014090Y006288D01*
X014117Y006260D01*
X014137Y006225D01*
X014147Y006187D01*
X014147Y005923D01*
X013652Y005923D01*
X013652Y005823D01*
X014147Y005823D01*
X014147Y005558D01*
X014137Y005520D01*
X014117Y005485D01*
X014097Y005465D01*
X014159Y005403D01*
X014159Y006713D01*
X014203Y006820D01*
X014243Y006860D01*
X014121Y006982D01*
X014121Y007460D01*
X013925Y007655D01*
X013929Y007640D01*
X013929Y007395D01*
X013514Y007395D01*
X013514Y007348D02*
X014121Y007348D01*
X014121Y007446D02*
X013929Y007446D01*
X013929Y007545D02*
X014035Y007545D01*
X013937Y007643D02*
X013929Y007643D01*
X013740Y007840D02*
X012907Y007840D01*
X012907Y007742D02*
X013060Y007742D01*
X013000Y007643D02*
X012907Y007643D01*
X012907Y007545D02*
X012999Y007545D01*
X012999Y007446D02*
X012907Y007446D01*
X012907Y007939D02*
X013641Y007939D01*
X013543Y008037D02*
X012907Y008037D01*
X013356Y008136D02*
X013444Y008136D01*
X013414Y007742D02*
X013514Y007742D01*
X013514Y007643D02*
X013414Y007643D01*
X013414Y007545D02*
X013514Y007545D01*
X013514Y007249D02*
X013414Y007249D01*
X013414Y007151D02*
X013514Y007151D01*
X013514Y007052D02*
X013414Y007052D01*
X013414Y006954D02*
X013514Y006954D01*
X013876Y006954D02*
X014149Y006954D01*
X014121Y007052D02*
X013929Y007052D01*
X013929Y007151D02*
X014121Y007151D01*
X014121Y007249D02*
X013929Y007249D01*
X014238Y006855D02*
X012907Y006855D01*
X012907Y006757D02*
X014177Y006757D01*
X014159Y006658D02*
X012907Y006658D01*
X012907Y006560D02*
X014159Y006560D01*
X014159Y006461D02*
X012907Y006461D01*
X012907Y006363D02*
X014159Y006363D01*
X014159Y006264D02*
X014113Y006264D01*
X014147Y006166D02*
X014159Y006166D01*
X014147Y006067D02*
X014159Y006067D01*
X014147Y005969D02*
X014159Y005969D01*
X014159Y005870D02*
X013652Y005870D01*
X013652Y005969D02*
X013552Y005969D01*
X013552Y006067D02*
X013652Y006067D01*
X013652Y006166D02*
X013552Y006166D01*
X013552Y006264D02*
X013652Y006264D01*
X013552Y005870D02*
X012907Y005870D01*
X012907Y005969D02*
X013057Y005969D01*
X013057Y006067D02*
X012907Y006067D01*
X012907Y006166D02*
X013057Y006166D01*
X013092Y006264D02*
X012907Y006264D01*
X012897Y005772D02*
X013057Y005772D01*
X013057Y005673D02*
X012799Y005673D01*
X013021Y005378D02*
X011941Y005378D01*
X011941Y005476D02*
X013097Y005476D01*
X013057Y005575D02*
X011941Y005575D01*
X011884Y005673D02*
X012004Y005673D01*
X011693Y005673D02*
X011693Y005673D01*
X011693Y005575D02*
X011693Y005575D01*
X011693Y005476D02*
X011693Y005476D01*
X011693Y005378D02*
X011693Y005378D01*
X011693Y005279D02*
X011693Y005279D01*
X011693Y005258D02*
X011693Y005258D01*
X011693Y005181D02*
X011693Y005181D01*
X011693Y005082D02*
X011693Y005082D01*
X011693Y004984D02*
X011693Y004984D01*
X011693Y004885D02*
X011693Y004885D01*
X011597Y004787D02*
X012997Y004787D01*
X012997Y004885D02*
X011920Y004885D01*
X011941Y004984D02*
X012997Y004984D01*
X012997Y005082D02*
X011941Y005082D01*
X011941Y005181D02*
X012997Y005181D01*
X012997Y005279D02*
X011941Y005279D01*
X012105Y004688D02*
X009080Y004688D01*
X009010Y004590D02*
X011344Y004590D01*
X011307Y004491D02*
X008912Y004491D01*
X008813Y004393D02*
X011307Y004393D01*
X011307Y004294D02*
X008399Y004294D01*
X008388Y004196D02*
X011662Y004196D01*
X011662Y004294D02*
X011762Y004294D01*
X011762Y004393D02*
X011662Y004393D01*
X011662Y004491D02*
X011762Y004491D01*
X011762Y004590D02*
X011662Y004590D01*
X011307Y004097D02*
X008290Y004097D01*
X008642Y004589D02*
X007933Y004589D01*
X007576Y004097D02*
X007541Y004097D01*
X007379Y003999D02*
X011307Y003999D01*
X011307Y003900D02*
X007280Y003900D01*
X006719Y004713D02*
X006675Y004820D01*
X006561Y004933D01*
X006624Y004959D01*
X006697Y005032D01*
X007430Y005765D01*
X007447Y005748D01*
X007481Y005729D01*
X007520Y005718D01*
X007835Y005718D01*
X007885Y005718D01*
X007586Y005420D01*
X007354Y005420D01*
X007247Y005376D01*
X007165Y005294D01*
X006965Y005094D01*
X006842Y005094D01*
X006719Y004971D01*
X006719Y004713D01*
X006719Y004787D02*
X006688Y004787D01*
X006719Y004885D02*
X006609Y004885D01*
X006648Y004984D02*
X006732Y004984D01*
X006747Y005082D02*
X006830Y005082D01*
X006845Y005181D02*
X007052Y005181D01*
X007150Y005279D02*
X006944Y005279D01*
X007042Y005378D02*
X007251Y005378D01*
X007141Y005476D02*
X007643Y005476D01*
X007741Y005575D02*
X007239Y005575D01*
X007338Y005673D02*
X007840Y005673D01*
X007835Y005718D02*
X007835Y005967D01*
X007835Y005967D01*
X007835Y005718D01*
X007835Y005772D02*
X007835Y005772D01*
X007835Y005870D02*
X007835Y005870D01*
X007835Y006282D02*
X007382Y006282D01*
X007214Y006114D01*
X006555Y006164D02*
X006555Y005750D01*
X006279Y005475D01*
X003179Y005475D01*
X002810Y005082D02*
X002300Y005082D01*
X002300Y004984D02*
X002683Y004984D01*
X002675Y004976D02*
X002655Y004942D01*
X002645Y004904D01*
X002645Y004639D01*
X003001Y004639D01*
X003001Y004539D01*
X002645Y004539D01*
X002645Y004274D01*
X002655Y004236D01*
X002675Y004201D01*
X002703Y004174D01*
X002737Y004154D01*
X002775Y004144D01*
X003001Y004144D01*
X003001Y004539D01*
X003101Y004539D01*
X003101Y004144D01*
X003327Y004144D01*
X003365Y004154D01*
X003378Y004162D01*
X003456Y004084D01*
X004142Y004084D01*
X004265Y004207D01*
X004265Y004299D01*
X004554Y004299D01*
X004554Y004207D01*
X004677Y004084D01*
X004764Y004084D01*
X004774Y004060D01*
X004976Y003858D01*
X002300Y003858D01*
X002300Y005618D01*
X002319Y005573D01*
X002392Y005500D01*
X002858Y005034D01*
X002775Y005034D01*
X002737Y005024D01*
X002703Y005004D01*
X002675Y004976D01*
X002645Y004885D02*
X002300Y004885D01*
X002300Y004787D02*
X002645Y004787D01*
X002645Y004688D02*
X002300Y004688D01*
X002300Y004590D02*
X003001Y004590D01*
X003001Y004491D02*
X003101Y004491D01*
X003101Y004393D02*
X003001Y004393D01*
X003001Y004294D02*
X003101Y004294D01*
X003101Y004196D02*
X003001Y004196D01*
X002681Y004196D02*
X002300Y004196D01*
X002300Y004294D02*
X002645Y004294D01*
X002645Y004393D02*
X002300Y004393D01*
X002300Y004491D02*
X002645Y004491D01*
X002300Y004097D02*
X003443Y004097D01*
X004156Y004097D02*
X004663Y004097D01*
X004565Y004196D02*
X004254Y004196D01*
X004265Y004294D02*
X004554Y004294D01*
X004835Y003999D02*
X002300Y003999D01*
X002300Y003900D02*
X004934Y003900D01*
X005768Y004589D02*
X006329Y004589D01*
X006555Y006164D02*
X006555Y006488D01*
X006919Y006853D01*
X007835Y006597D02*
X008484Y006597D01*
X008592Y006705D01*
X009429Y006213D02*
X008888Y005672D01*
X008888Y005288D01*
X008858Y005258D01*
X008838Y005238D01*
X008838Y004786D01*
X008642Y004589D01*
X005807Y006164D02*
X005000Y006164D01*
X004193Y006164D01*
X002712Y005181D02*
X002300Y005181D01*
X002300Y005279D02*
X002613Y005279D01*
X002515Y005378D02*
X002300Y005378D01*
X002300Y005476D02*
X002416Y005476D01*
X002318Y005575D02*
X002300Y005575D01*
X006097Y010697D02*
X006167Y010697D01*
X006167Y010795D02*
X006079Y010795D01*
X006045Y010894D02*
X006167Y010894D01*
X006167Y010992D02*
X005992Y010992D01*
X005910Y011091D02*
X006167Y011091D01*
X006152Y011189D02*
X005784Y011189D01*
X008592Y007837D02*
X008592Y007738D01*
X009325Y007939D02*
X011142Y007939D01*
X011516Y008333D02*
X011896Y008333D01*
X011956Y008431D02*
X011615Y008431D01*
X011713Y008530D02*
X011956Y008530D01*
X011956Y008486D02*
X012401Y008486D01*
X011956Y008486D01*
X011896Y008628D02*
X011812Y008628D01*
X012401Y008486D02*
X012401Y008486D01*
X012401Y008801D02*
X012795Y008801D01*
X013120Y008477D01*
X013907Y008969D02*
X013907Y009067D01*
X014315Y008924D02*
X014382Y008924D01*
X014382Y008534D01*
X014772Y008534D01*
X014772Y008672D01*
X014521Y008924D01*
X015079Y008924D01*
X015122Y009022D02*
X014563Y009022D01*
X014521Y008924D02*
X014382Y008924D01*
X014382Y008825D02*
X014302Y008825D01*
X014302Y008727D02*
X014382Y008727D01*
X014382Y008628D02*
X014302Y008628D01*
X014382Y008530D02*
X014852Y008530D01*
X014852Y008628D02*
X014772Y008628D01*
X014718Y008727D02*
X014882Y008727D01*
X014980Y008825D02*
X014620Y008825D01*
X014662Y009121D02*
X015023Y009121D01*
X014925Y009219D02*
X014760Y009219D01*
X014832Y009318D02*
X014852Y009318D01*
X014852Y009416D02*
X014832Y009416D01*
X014832Y009515D02*
X014852Y009515D01*
X014852Y009613D02*
X014832Y009613D01*
X014818Y009712D02*
X014867Y009712D01*
X014965Y009810D02*
X014719Y009810D01*
X014621Y009909D02*
X015064Y009909D01*
X015038Y010106D02*
X014562Y010106D01*
X014660Y010204D02*
X014940Y010204D01*
X014852Y010303D02*
X014759Y010303D01*
X014772Y010401D02*
X014852Y010401D01*
X013191Y009416D02*
X012792Y009416D01*
X014302Y008431D02*
X014382Y008431D01*
X014382Y008333D02*
X014302Y008333D01*
X014302Y008234D02*
X014382Y008234D01*
X014382Y008136D02*
X014302Y008136D01*
X014363Y008037D02*
X015107Y008037D01*
X015143Y007939D02*
X014462Y007939D01*
X014560Y007840D02*
X015143Y007840D01*
X015136Y007742D02*
X015143Y007742D01*
X015008Y008136D02*
X014592Y008136D01*
X014690Y008234D02*
X014910Y008234D01*
X014852Y008333D02*
X014772Y008333D01*
X014772Y008431D02*
X014852Y008431D01*
X014159Y005772D02*
X014147Y005772D01*
X014147Y005673D02*
X014159Y005673D01*
X014147Y005575D02*
X014159Y005575D01*
X014159Y005476D02*
X014108Y005476D01*
X012997Y004688D02*
X012816Y004688D01*
X012914Y004590D02*
X012998Y004590D01*
X013034Y004491D02*
X012926Y004491D01*
X014564Y003900D02*
X016361Y003900D01*
X016361Y003999D02*
X014662Y003999D01*
M02*
